%TF.GenerationSoftware,KiCad,Pcbnew,9.0.2*%
%TF.CreationDate,2025-07-31T20:28:33-07:00*%
%TF.ProjectId,TimeCapsule,54696d65-4361-4707-9375-6c652e6b6963,rev?*%
%TF.SameCoordinates,Original*%
%TF.FileFunction,Soldermask,Top*%
%TF.FilePolarity,Negative*%
%FSLAX46Y46*%
G04 Gerber Fmt 4.6, Leading zero omitted, Abs format (unit mm)*
G04 Created by KiCad (PCBNEW 9.0.2) date 2025-07-31 20:28:33*
%MOMM*%
%LPD*%
G01*
G04 APERTURE LIST*
G04 Aperture macros list*
%AMRoundRect*
0 Rectangle with rounded corners*
0 $1 Rounding radius*
0 $2 $3 $4 $5 $6 $7 $8 $9 X,Y pos of 4 corners*
0 Add a 4 corners polygon primitive as box body*
4,1,4,$2,$3,$4,$5,$6,$7,$8,$9,$2,$3,0*
0 Add four circle primitives for the rounded corners*
1,1,$1+$1,$2,$3*
1,1,$1+$1,$4,$5*
1,1,$1+$1,$6,$7*
1,1,$1+$1,$8,$9*
0 Add four rect primitives between the rounded corners*
20,1,$1+$1,$2,$3,$4,$5,0*
20,1,$1+$1,$4,$5,$6,$7,0*
20,1,$1+$1,$6,$7,$8,$9,0*
20,1,$1+$1,$8,$9,$2,$3,0*%
G04 Aperture macros list end*
%ADD10RoundRect,0.150000X-0.587500X-0.150000X0.587500X-0.150000X0.587500X0.150000X-0.587500X0.150000X0*%
%ADD11RoundRect,0.150000X0.587500X0.150000X-0.587500X0.150000X-0.587500X-0.150000X0.587500X-0.150000X0*%
%ADD12RoundRect,0.160000X-0.160000X0.197500X-0.160000X-0.197500X0.160000X-0.197500X0.160000X0.197500X0*%
%ADD13C,2.000000*%
%ADD14RoundRect,0.160000X0.197500X0.160000X-0.197500X0.160000X-0.197500X-0.160000X0.197500X-0.160000X0*%
%ADD15RoundRect,0.250000X-0.550000X0.550000X-0.550000X-0.550000X0.550000X-0.550000X0.550000X0.550000X0*%
%ADD16C,1.600000*%
%ADD17RoundRect,0.155000X-0.155000X0.212500X-0.155000X-0.212500X0.155000X-0.212500X0.155000X0.212500X0*%
%ADD18RoundRect,0.150000X-0.512500X-0.150000X0.512500X-0.150000X0.512500X0.150000X-0.512500X0.150000X0*%
%ADD19RoundRect,0.155000X0.212500X0.155000X-0.212500X0.155000X-0.212500X-0.155000X0.212500X-0.155000X0*%
%ADD20RoundRect,0.160000X0.160000X-0.197500X0.160000X0.197500X-0.160000X0.197500X-0.160000X-0.197500X0*%
%ADD21RoundRect,0.050000X-0.050000X0.387500X-0.050000X-0.387500X0.050000X-0.387500X0.050000X0.387500X0*%
%ADD22RoundRect,0.050000X-0.387500X0.050000X-0.387500X-0.050000X0.387500X-0.050000X0.387500X0.050000X0*%
%ADD23R,3.200000X3.200000*%
%ADD24RoundRect,0.155000X0.155000X-0.212500X0.155000X0.212500X-0.155000X0.212500X-0.155000X-0.212500X0*%
%ADD25RoundRect,0.160000X-0.197500X-0.160000X0.197500X-0.160000X0.197500X0.160000X-0.197500X0.160000X0*%
%ADD26RoundRect,0.162500X0.650000X0.162500X-0.650000X0.162500X-0.650000X-0.162500X0.650000X-0.162500X0*%
%ADD27C,2.700000*%
%ADD28RoundRect,0.162500X0.312500X0.162500X-0.312500X0.162500X-0.312500X-0.162500X0.312500X-0.162500X0*%
%ADD29RoundRect,0.150000X0.150000X-0.512500X0.150000X0.512500X-0.150000X0.512500X-0.150000X-0.512500X0*%
%ADD30R,3.000000X3.000000*%
%ADD31C,3.000000*%
%ADD32RoundRect,0.243750X-0.456250X0.243750X-0.456250X-0.243750X0.456250X-0.243750X0.456250X0.243750X0*%
%ADD33RoundRect,0.155000X-0.212500X-0.155000X0.212500X-0.155000X0.212500X0.155000X-0.212500X0.155000X0*%
%ADD34RoundRect,0.250000X-0.350000X0.450000X-0.350000X-0.450000X0.350000X-0.450000X0.350000X0.450000X0*%
%ADD35RoundRect,0.150000X0.150000X-0.587500X0.150000X0.587500X-0.150000X0.587500X-0.150000X-0.587500X0*%
%ADD36C,0.650000*%
%ADD37RoundRect,0.150000X-0.150000X-0.425000X0.150000X-0.425000X0.150000X0.425000X-0.150000X0.425000X0*%
%ADD38RoundRect,0.075000X-0.075000X-0.500000X0.075000X-0.500000X0.075000X0.500000X-0.075000X0.500000X0*%
%ADD39O,1.000000X2.100000*%
%ADD40O,1.000000X1.800000*%
G04 APERTURE END LIST*
D10*
%TO.C,Q4*%
X54875000Y-69450000D03*
X53000000Y-70400000D03*
X53000000Y-68500000D03*
%TD*%
D11*
%TO.C,Q3*%
X64750000Y-72150000D03*
X64750000Y-70250000D03*
X62875000Y-71200000D03*
%TD*%
D12*
%TO.C,R15*%
X67250000Y-72847500D03*
X67250000Y-71652500D03*
%TD*%
D13*
%TO.C,SW2*%
X53000000Y-89250000D03*
X59500000Y-89250000D03*
X53000000Y-93750000D03*
X59500000Y-93750000D03*
%TD*%
D12*
%TO.C,R16*%
X51250000Y-68902500D03*
X51250000Y-70097500D03*
%TD*%
D14*
%TO.C,R14*%
X64000000Y-92500000D03*
X62805000Y-92500000D03*
%TD*%
D15*
%TO.C,D2*%
X54750000Y-76750000D03*
D16*
X54750000Y-84370000D03*
%TD*%
D14*
%TO.C,R6*%
X87095000Y-89300000D03*
X85900000Y-89300000D03*
%TD*%
%TO.C,R10*%
X58997500Y-71500000D03*
X57802500Y-71500000D03*
%TD*%
D17*
%TO.C,C13*%
X65750000Y-107720000D03*
X65750000Y-108855000D03*
%TD*%
%TO.C,C1*%
X62200000Y-93765000D03*
X62200000Y-94900000D03*
%TD*%
%TO.C,C7*%
X72200000Y-92832500D03*
X72200000Y-93967500D03*
%TD*%
D18*
%TO.C,U2*%
X61225000Y-66050000D03*
X61225000Y-67000000D03*
X61225000Y-67950000D03*
X63500000Y-67950000D03*
X63500000Y-67000000D03*
X63500000Y-66050000D03*
%TD*%
D19*
%TO.C,C3*%
X63467500Y-88900000D03*
X62332500Y-88900000D03*
%TD*%
D17*
%TO.C,C17*%
X53400000Y-73065000D03*
X53400000Y-74200000D03*
%TD*%
D19*
%TO.C,C16*%
X60335000Y-80500000D03*
X59200000Y-80500000D03*
%TD*%
D20*
%TO.C,R3*%
X76100000Y-108102500D03*
X76100000Y-106907500D03*
%TD*%
D21*
%TO.C,U1*%
X71150000Y-85000000D03*
X70750000Y-85000000D03*
X70350000Y-85000000D03*
X69950000Y-85000000D03*
X69550000Y-85000000D03*
X69150000Y-85000000D03*
X68750000Y-85000000D03*
X68350000Y-85000000D03*
X67950000Y-85000000D03*
X67550000Y-85000000D03*
X67150000Y-85000000D03*
X66750000Y-85000000D03*
X66350000Y-85000000D03*
X65950000Y-85000000D03*
D22*
X65112500Y-85837500D03*
X65112500Y-86237500D03*
X65112500Y-86637500D03*
X65112500Y-87037500D03*
X65112500Y-87437500D03*
X65112500Y-87837500D03*
X65112500Y-88237500D03*
X65112500Y-88637500D03*
X65112500Y-89037500D03*
X65112500Y-89437500D03*
X65112500Y-89837500D03*
X65112500Y-90237500D03*
X65112500Y-90637500D03*
X65112500Y-91037500D03*
D21*
X65950000Y-91875000D03*
X66350000Y-91875000D03*
X66750000Y-91875000D03*
X67150000Y-91875000D03*
X67550000Y-91875000D03*
X67950000Y-91875000D03*
X68350000Y-91875000D03*
X68750000Y-91875000D03*
X69150000Y-91875000D03*
X69550000Y-91875000D03*
X69950000Y-91875000D03*
X70350000Y-91875000D03*
X70750000Y-91875000D03*
X71150000Y-91875000D03*
D22*
X71987500Y-91037500D03*
X71987500Y-90637500D03*
X71987500Y-90237500D03*
X71987500Y-89837500D03*
X71987500Y-89437500D03*
X71987500Y-89037500D03*
X71987500Y-88637500D03*
X71987500Y-88237500D03*
X71987500Y-87837500D03*
X71987500Y-87437500D03*
X71987500Y-87037500D03*
X71987500Y-86637500D03*
X71987500Y-86237500D03*
X71987500Y-85837500D03*
D23*
X68550000Y-88437500D03*
%TD*%
D13*
%TO.C,SW1*%
X89500000Y-93500000D03*
X89500000Y-100000000D03*
X85000000Y-93500000D03*
X85000000Y-100000000D03*
%TD*%
D17*
%TO.C,C5*%
X71100000Y-93800000D03*
X71100000Y-94935000D03*
%TD*%
%TO.C,C2*%
X64600000Y-93765000D03*
X64600000Y-94900000D03*
%TD*%
D24*
%TO.C,C14*%
X67600000Y-83500000D03*
X67600000Y-82365000D03*
%TD*%
D25*
%TO.C,R5*%
X79100000Y-92600000D03*
X80295000Y-92600000D03*
%TD*%
D20*
%TO.C,R2*%
X82400000Y-114700000D03*
X82400000Y-113505000D03*
%TD*%
D26*
%TO.C,U5*%
X83975000Y-89040000D03*
X83975000Y-87770000D03*
X83975000Y-86500000D03*
X83975000Y-85230000D03*
X76800000Y-85230000D03*
X76800000Y-86500000D03*
X76800000Y-87770000D03*
X76800000Y-89040000D03*
%TD*%
D20*
%TO.C,R4*%
X77300000Y-108100000D03*
X77300000Y-106905000D03*
%TD*%
D19*
%TO.C,C11*%
X63500000Y-90200000D03*
X62365000Y-90200000D03*
%TD*%
D27*
%TO.C,H4*%
X94000000Y-114000000D03*
%TD*%
D28*
%TO.C,U4*%
X72100000Y-79700000D03*
X72100000Y-78800000D03*
X72100000Y-77900000D03*
X72100000Y-77000000D03*
X70800000Y-77000000D03*
X70800000Y-77900000D03*
X70800000Y-78800000D03*
X70800000Y-79700000D03*
%TD*%
D29*
%TO.C,U6*%
X64412500Y-63987500D03*
X65362500Y-63987500D03*
X66312500Y-63987500D03*
X66312500Y-61712500D03*
X64412500Y-61712500D03*
%TD*%
D25*
%TO.C,R7*%
X60805000Y-86300000D03*
X62000000Y-86300000D03*
%TD*%
D10*
%TO.C,Q1*%
X57000000Y-73000000D03*
X57000000Y-74900000D03*
X58875000Y-73950000D03*
%TD*%
D27*
%TO.C,H3*%
X56000000Y-56000000D03*
%TD*%
D18*
%TO.C,U3*%
X68284556Y-104850000D03*
X68284556Y-105800000D03*
X68284556Y-106750000D03*
X70559556Y-106750000D03*
X70559556Y-104850000D03*
%TD*%
D30*
%TO.C,BT1*%
X70500000Y-67000000D03*
D31*
X90990000Y-67000000D03*
%TD*%
D32*
%TO.C,D1*%
X58000000Y-63625000D03*
X58000000Y-65500000D03*
%TD*%
D33*
%TO.C,C8*%
X73600000Y-89700000D03*
X74735000Y-89700000D03*
%TD*%
D12*
%TO.C,R1*%
X69500000Y-115002500D03*
X69500000Y-116197500D03*
%TD*%
D34*
%TO.C,Y1*%
X58800000Y-82300000D03*
X58800000Y-84500000D03*
X60500000Y-84500000D03*
X60500000Y-82300000D03*
%TD*%
D33*
%TO.C,C12*%
X68865000Y-109250000D03*
X70000000Y-109250000D03*
%TD*%
%TO.C,C9*%
X73602500Y-88512500D03*
X74737500Y-88512500D03*
%TD*%
%TO.C,C4*%
X72300000Y-83600000D03*
X73435000Y-83600000D03*
%TD*%
D17*
%TO.C,C15*%
X62200000Y-83365000D03*
X62200000Y-84500000D03*
%TD*%
%TO.C,C6*%
X67600000Y-93800000D03*
X67600000Y-94935000D03*
%TD*%
D20*
%TO.C,R8*%
X75000000Y-82397500D03*
X75000000Y-81202500D03*
%TD*%
%TO.C,R11*%
X60600000Y-70495000D03*
X60600000Y-69300000D03*
%TD*%
%TO.C,R12*%
X65400000Y-66995000D03*
X65400000Y-65800000D03*
%TD*%
D14*
%TO.C,R9*%
X69995000Y-81200000D03*
X68800000Y-81200000D03*
%TD*%
D35*
%TO.C,Q2*%
X67250000Y-59175000D03*
X69150000Y-59175000D03*
X68200000Y-57300000D03*
%TD*%
D36*
%TO.C,J1*%
X72790000Y-113345000D03*
X78570000Y-113345000D03*
D37*
X72480000Y-112270000D03*
X73280000Y-112270000D03*
D38*
X74430000Y-112270000D03*
X75430000Y-112270000D03*
X75930000Y-112270000D03*
X76930000Y-112270000D03*
D37*
X78080000Y-112270000D03*
X78880000Y-112270000D03*
X78880000Y-112270000D03*
X78080000Y-112270000D03*
D38*
X77430000Y-112270000D03*
X76430000Y-112270000D03*
X74930000Y-112270000D03*
X73930000Y-112270000D03*
D37*
X73280000Y-112270000D03*
X72480000Y-112270000D03*
D39*
X71360000Y-112845000D03*
D40*
X71360000Y-117025000D03*
D39*
X80000000Y-112845000D03*
D40*
X80000000Y-117025000D03*
%TD*%
D19*
%TO.C,C18*%
X70000000Y-108000000D03*
X68865000Y-108000000D03*
%TD*%
D33*
%TO.C,C10*%
X73465000Y-91800000D03*
X74600000Y-91800000D03*
%TD*%
D14*
%TO.C,R13*%
X68800000Y-77900000D03*
X67605000Y-77900000D03*
%TD*%
M02*
