%TF.GenerationSoftware,KiCad,Pcbnew,9.0.2*%
%TF.CreationDate,2025-08-07T00:04:07-07:00*%
%TF.ProjectId,TimeCapsule,54696d65-4361-4707-9375-6c652e6b6963,rev?*%
%TF.SameCoordinates,Original*%
%TF.FileFunction,Copper,L1,Top*%
%TF.FilePolarity,Positive*%
%FSLAX46Y46*%
G04 Gerber Fmt 4.6, Leading zero omitted, Abs format (unit mm)*
G04 Created by KiCad (PCBNEW 9.0.2) date 2025-08-07 00:04:07*
%MOMM*%
%LPD*%
G01*
G04 APERTURE LIST*
G04 Aperture macros list*
%AMRoundRect*
0 Rectangle with rounded corners*
0 $1 Rounding radius*
0 $2 $3 $4 $5 $6 $7 $8 $9 X,Y pos of 4 corners*
0 Add a 4 corners polygon primitive as box body*
4,1,4,$2,$3,$4,$5,$6,$7,$8,$9,$2,$3,0*
0 Add four circle primitives for the rounded corners*
1,1,$1+$1,$2,$3*
1,1,$1+$1,$4,$5*
1,1,$1+$1,$6,$7*
1,1,$1+$1,$8,$9*
0 Add four rect primitives between the rounded corners*
20,1,$1+$1,$2,$3,$4,$5,0*
20,1,$1+$1,$4,$5,$6,$7,0*
20,1,$1+$1,$6,$7,$8,$9,0*
20,1,$1+$1,$8,$9,$2,$3,0*%
G04 Aperture macros list end*
%TA.AperFunction,SMDPad,CuDef*%
%ADD10RoundRect,0.160000X0.197500X0.160000X-0.197500X0.160000X-0.197500X-0.160000X0.197500X-0.160000X0*%
%TD*%
%TA.AperFunction,SMDPad,CuDef*%
%ADD11RoundRect,0.155000X-0.155000X0.212500X-0.155000X-0.212500X0.155000X-0.212500X0.155000X0.212500X0*%
%TD*%
%TA.AperFunction,SMDPad,CuDef*%
%ADD12RoundRect,0.150000X-0.512500X-0.150000X0.512500X-0.150000X0.512500X0.150000X-0.512500X0.150000X0*%
%TD*%
%TA.AperFunction,SMDPad,CuDef*%
%ADD13RoundRect,0.155000X0.212500X0.155000X-0.212500X0.155000X-0.212500X-0.155000X0.212500X-0.155000X0*%
%TD*%
%TA.AperFunction,SMDPad,CuDef*%
%ADD14RoundRect,0.150000X0.587500X0.150000X-0.587500X0.150000X-0.587500X-0.150000X0.587500X-0.150000X0*%
%TD*%
%TA.AperFunction,SMDPad,CuDef*%
%ADD15RoundRect,0.160000X-0.160000X0.197500X-0.160000X-0.197500X0.160000X-0.197500X0.160000X0.197500X0*%
%TD*%
%TA.AperFunction,SMDPad,CuDef*%
%ADD16RoundRect,0.160000X0.160000X-0.197500X0.160000X0.197500X-0.160000X0.197500X-0.160000X-0.197500X0*%
%TD*%
%TA.AperFunction,SMDPad,CuDef*%
%ADD17RoundRect,0.050000X-0.050000X0.387500X-0.050000X-0.387500X0.050000X-0.387500X0.050000X0.387500X0*%
%TD*%
%TA.AperFunction,SMDPad,CuDef*%
%ADD18RoundRect,0.050000X-0.387500X0.050000X-0.387500X-0.050000X0.387500X-0.050000X0.387500X0.050000X0*%
%TD*%
%TA.AperFunction,HeatsinkPad*%
%ADD19R,3.200000X3.200000*%
%TD*%
%TA.AperFunction,ComponentPad*%
%ADD20C,2.000000*%
%TD*%
%TA.AperFunction,SMDPad,CuDef*%
%ADD21RoundRect,0.150000X-0.587500X-0.150000X0.587500X-0.150000X0.587500X0.150000X-0.587500X0.150000X0*%
%TD*%
%TA.AperFunction,SMDPad,CuDef*%
%ADD22RoundRect,0.155000X0.155000X-0.212500X0.155000X0.212500X-0.155000X0.212500X-0.155000X-0.212500X0*%
%TD*%
%TA.AperFunction,SMDPad,CuDef*%
%ADD23RoundRect,0.160000X-0.197500X-0.160000X0.197500X-0.160000X0.197500X0.160000X-0.197500X0.160000X0*%
%TD*%
%TA.AperFunction,SMDPad,CuDef*%
%ADD24RoundRect,0.162500X0.650000X0.162500X-0.650000X0.162500X-0.650000X-0.162500X0.650000X-0.162500X0*%
%TD*%
%TA.AperFunction,SMDPad,CuDef*%
%ADD25RoundRect,0.162500X0.312500X0.162500X-0.312500X0.162500X-0.312500X-0.162500X0.312500X-0.162500X0*%
%TD*%
%TA.AperFunction,SMDPad,CuDef*%
%ADD26RoundRect,0.150000X0.150000X-0.512500X0.150000X0.512500X-0.150000X0.512500X-0.150000X-0.512500X0*%
%TD*%
%TA.AperFunction,ComponentPad*%
%ADD27R,3.000000X3.000000*%
%TD*%
%TA.AperFunction,ComponentPad*%
%ADD28C,3.000000*%
%TD*%
%TA.AperFunction,SMDPad,CuDef*%
%ADD29RoundRect,0.243750X-0.456250X0.243750X-0.456250X-0.243750X0.456250X-0.243750X0.456250X0.243750X0*%
%TD*%
%TA.AperFunction,SMDPad,CuDef*%
%ADD30RoundRect,0.155000X-0.212500X-0.155000X0.212500X-0.155000X0.212500X0.155000X-0.212500X0.155000X0*%
%TD*%
%TA.AperFunction,SMDPad,CuDef*%
%ADD31RoundRect,0.250000X-0.350000X0.450000X-0.350000X-0.450000X0.350000X-0.450000X0.350000X0.450000X0*%
%TD*%
%TA.AperFunction,ComponentPad*%
%ADD32RoundRect,0.250000X-0.550000X0.550000X-0.550000X-0.550000X0.550000X-0.550000X0.550000X0.550000X0*%
%TD*%
%TA.AperFunction,ComponentPad*%
%ADD33C,1.600000*%
%TD*%
%TA.AperFunction,SMDPad,CuDef*%
%ADD34RoundRect,0.150000X0.150000X-0.587500X0.150000X0.587500X-0.150000X0.587500X-0.150000X-0.587500X0*%
%TD*%
%TA.AperFunction,SMDPad,CuDef*%
%ADD35RoundRect,0.150000X-0.150000X-0.425000X0.150000X-0.425000X0.150000X0.425000X-0.150000X0.425000X0*%
%TD*%
%TA.AperFunction,SMDPad,CuDef*%
%ADD36RoundRect,0.075000X-0.075000X-0.500000X0.075000X-0.500000X0.075000X0.500000X-0.075000X0.500000X0*%
%TD*%
%TA.AperFunction,HeatsinkPad*%
%ADD37O,1.000000X2.100000*%
%TD*%
%TA.AperFunction,HeatsinkPad*%
%ADD38O,1.000000X1.800000*%
%TD*%
%TA.AperFunction,ViaPad*%
%ADD39C,0.600000*%
%TD*%
%TA.AperFunction,Conductor*%
%ADD40C,0.200000*%
%TD*%
%TA.AperFunction,Conductor*%
%ADD41C,0.150000*%
%TD*%
%TA.AperFunction,Conductor*%
%ADD42C,0.500000*%
%TD*%
G04 APERTURE END LIST*
D10*
%TO.P,R6,1*%
%TO.N,Net-(R6-Pad1)*%
X87095000Y-89300000D03*
%TO.P,R6,2*%
%TO.N,/QSPI_SS*%
X85900000Y-89300000D03*
%TD*%
%TO.P,R10,1*%
%TO.N,/BAT+*%
X58997500Y-71500000D03*
%TO.P,R10,2*%
%TO.N,Net-(D2-K)*%
X57802500Y-71500000D03*
%TD*%
D11*
%TO.P,C13,1*%
%TO.N,+5V*%
X65750000Y-107720000D03*
%TO.P,C13,2*%
%TO.N,Net-(U3-GND)*%
X65750000Y-108855000D03*
%TD*%
%TO.P,C1,1*%
%TO.N,+3V3*%
X62200000Y-93765000D03*
%TO.P,C1,2*%
%TO.N,GND*%
X62200000Y-94900000D03*
%TD*%
%TO.P,C7,1*%
%TO.N,+3V3*%
X72200000Y-92832500D03*
%TO.P,C7,2*%
%TO.N,GND*%
X72200000Y-93967500D03*
%TD*%
D12*
%TO.P,U2,1,VDD*%
%TO.N,/V_BLINKER*%
X61225000Y-66050000D03*
%TO.P,U2,2,GND*%
%TO.N,GND*%
X61225000Y-67000000D03*
%TO.P,U2,3,DELAY/M_DRV*%
%TO.N,Net-(U2-DELAY{slash}M_DRV)*%
X61225000Y-67950000D03*
%TO.P,U2,4,DONE*%
%TO.N,unconnected-(U2-DONE-Pad4)*%
X63500000Y-67950000D03*
%TO.P,U2,5,DRV*%
%TO.N,Net-(U2-DRV)*%
X63500000Y-67000000D03*
%TO.P,U2,6,EN/ONE_SHOT*%
%TO.N,/V_BLINKER*%
X63500000Y-66050000D03*
%TD*%
D13*
%TO.P,C3,1*%
%TO.N,+3V3*%
X63467500Y-88900000D03*
%TO.P,C3,2*%
%TO.N,GND*%
X62332500Y-88900000D03*
%TD*%
D14*
%TO.P,Q3,1,G*%
%TO.N,Net-(Q3-G)*%
X64750000Y-72150000D03*
%TO.P,Q3,2,S*%
%TO.N,GND*%
X64750000Y-70250000D03*
%TO.P,Q3,3,D*%
%TO.N,Net-(D2-K)*%
X62875000Y-71200000D03*
%TD*%
D11*
%TO.P,C17,1*%
%TO.N,GND*%
X53400000Y-73065000D03*
%TO.P,C17,2*%
%TO.N,/V_BLINKER*%
X53400000Y-74200000D03*
%TD*%
D13*
%TO.P,C16,1*%
%TO.N,GND*%
X60335000Y-80500000D03*
%TO.P,C16,2*%
%TO.N,/XIN*%
X59200000Y-80500000D03*
%TD*%
D15*
%TO.P,R15,1*%
%TO.N,/V_BLINKER*%
X67250000Y-71652500D03*
%TO.P,R15,2*%
%TO.N,Net-(Q3-G)*%
X67250000Y-72847500D03*
%TD*%
D16*
%TO.P,R3,1*%
%TO.N,/D+*%
X76100000Y-108102500D03*
%TO.P,R3,2*%
%TO.N,Net-(U1-USB_DP)*%
X76100000Y-106907500D03*
%TD*%
D17*
%TO.P,U1,1,IOVDD*%
%TO.N,+3V3*%
X71150000Y-85000000D03*
%TO.P,U1,2,GPIO0*%
%TO.N,/I2C0_SCL*%
X70750000Y-85000000D03*
%TO.P,U1,3,GPIO1*%
%TO.N,/I2C0_SDA*%
X70350000Y-85000000D03*
%TO.P,U1,4,GPIO2*%
%TO.N,/GPIO2*%
X69950000Y-85000000D03*
%TO.P,U1,5,GPIO3*%
%TO.N,/BLINKER_RESET*%
X69550000Y-85000000D03*
%TO.P,U1,6,GPIO4*%
%TO.N,unconnected-(U1-GPIO4-Pad6)*%
X69150000Y-85000000D03*
%TO.P,U1,7,GPIO5*%
%TO.N,unconnected-(U1-GPIO5-Pad7)*%
X68750000Y-85000000D03*
%TO.P,U1,8,GPIO6*%
%TO.N,unconnected-(U1-GPIO6-Pad8)*%
X68350000Y-85000000D03*
%TO.P,U1,9,GPIO7*%
%TO.N,unconnected-(U1-GPIO7-Pad9)*%
X67950000Y-85000000D03*
%TO.P,U1,10,IOVDD*%
%TO.N,+3V3*%
X67550000Y-85000000D03*
%TO.P,U1,11,GPIO8*%
%TO.N,unconnected-(U1-GPIO8-Pad11)*%
X67150000Y-85000000D03*
%TO.P,U1,12,GPIO9*%
%TO.N,unconnected-(U1-GPIO9-Pad12)*%
X66750000Y-85000000D03*
%TO.P,U1,13,GPIO10*%
%TO.N,unconnected-(U1-GPIO10-Pad13)*%
X66350000Y-85000000D03*
%TO.P,U1,14,GPIO11*%
%TO.N,unconnected-(U1-GPIO11-Pad14)*%
X65950000Y-85000000D03*
D18*
%TO.P,U1,15,GPIO12*%
%TO.N,unconnected-(U1-GPIO12-Pad15)*%
X65112500Y-85837500D03*
%TO.P,U1,16,GPIO13*%
%TO.N,unconnected-(U1-GPIO13-Pad16)*%
X65112500Y-86237500D03*
%TO.P,U1,17,GPIO14*%
%TO.N,unconnected-(U1-GPIO14-Pad17)*%
X65112500Y-86637500D03*
%TO.P,U1,18,GPIO15*%
%TO.N,unconnected-(U1-GPIO15-Pad18)*%
X65112500Y-87037500D03*
%TO.P,U1,19,TESTEN*%
%TO.N,unconnected-(U1-TESTEN-Pad19)*%
X65112500Y-87437500D03*
%TO.P,U1,20,XIN*%
%TO.N,/XIN*%
X65112500Y-87837500D03*
%TO.P,U1,21,XOUT*%
%TO.N,/XOUT*%
X65112500Y-88237500D03*
%TO.P,U1,22,IOVDD*%
%TO.N,+3V3*%
X65112500Y-88637500D03*
%TO.P,U1,23,DVDD*%
%TO.N,+1V1*%
X65112500Y-89037500D03*
%TO.P,U1,24,SWCLK*%
%TO.N,unconnected-(U1-SWCLK-Pad24)*%
X65112500Y-89437500D03*
%TO.P,U1,25,SWD*%
%TO.N,unconnected-(U1-SWD-Pad25)*%
X65112500Y-89837500D03*
%TO.P,U1,26,RUN*%
%TO.N,Net-(U1-RUN)*%
X65112500Y-90237500D03*
%TO.P,U1,27,GPIO16*%
%TO.N,unconnected-(U1-GPIO16-Pad27)*%
X65112500Y-90637500D03*
%TO.P,U1,28,GPIO17*%
%TO.N,unconnected-(U1-GPIO17-Pad28)*%
X65112500Y-91037500D03*
D17*
%TO.P,U1,29,GPIO18*%
%TO.N,unconnected-(U1-GPIO18-Pad29)*%
X65950000Y-91875000D03*
%TO.P,U1,30,GPIO19*%
%TO.N,unconnected-(U1-GPIO19-Pad30)*%
X66350000Y-91875000D03*
%TO.P,U1,31,GPIO20*%
%TO.N,unconnected-(U1-GPIO20-Pad31)*%
X66750000Y-91875000D03*
%TO.P,U1,32,GPIO21*%
%TO.N,unconnected-(U1-GPIO21-Pad32)*%
X67150000Y-91875000D03*
%TO.P,U1,33,IOVDD*%
%TO.N,+3V3*%
X67550000Y-91875000D03*
%TO.P,U1,34,GPIO22*%
%TO.N,unconnected-(U1-GPIO22-Pad34)*%
X67950000Y-91875000D03*
%TO.P,U1,35,GPIO23*%
%TO.N,unconnected-(U1-GPIO23-Pad35)*%
X68350000Y-91875000D03*
%TO.P,U1,36,GPIO24*%
%TO.N,unconnected-(U1-GPIO24-Pad36)*%
X68750000Y-91875000D03*
%TO.P,U1,37,GPIO25*%
%TO.N,unconnected-(U1-GPIO25-Pad37)*%
X69150000Y-91875000D03*
%TO.P,U1,38,GPIO26_ADC0*%
%TO.N,unconnected-(U1-GPIO26_ADC0-Pad38)*%
X69550000Y-91875000D03*
%TO.P,U1,39,GPIO27_ADC1*%
%TO.N,unconnected-(U1-GPIO27_ADC1-Pad39)*%
X69950000Y-91875000D03*
%TO.P,U1,40,GPIO28_ADC2*%
%TO.N,unconnected-(U1-GPIO28_ADC2-Pad40)*%
X70350000Y-91875000D03*
%TO.P,U1,41,GPIO29_ADC3*%
%TO.N,unconnected-(U1-GPIO29_ADC3-Pad41)*%
X70750000Y-91875000D03*
%TO.P,U1,42,IOVDD*%
%TO.N,+3V3*%
X71150000Y-91875000D03*
D18*
%TO.P,U1,43,ADC_AVDD*%
X71987500Y-91037500D03*
%TO.P,U1,44,VREG_IN*%
X71987500Y-90637500D03*
%TO.P,U1,45,VREG_VOUT*%
%TO.N,+1V1*%
X71987500Y-90237500D03*
%TO.P,U1,46,USB_DM*%
%TO.N,Net-(U1-USB_DM)*%
X71987500Y-89837500D03*
%TO.P,U1,47,USB_DP*%
%TO.N,Net-(U1-USB_DP)*%
X71987500Y-89437500D03*
%TO.P,U1,48,USB_VDD*%
%TO.N,+3V3*%
X71987500Y-89037500D03*
%TO.P,U1,49,IOVDD*%
X71987500Y-88637500D03*
%TO.P,U1,50,DVDD*%
%TO.N,+1V1*%
X71987500Y-88237500D03*
%TO.P,U1,51,QSPI_SD3*%
%TO.N,/QSPI_SD3*%
X71987500Y-87837500D03*
%TO.P,U1,52,QSPI_SCLK*%
%TO.N,/QSPI_SCLK*%
X71987500Y-87437500D03*
%TO.P,U1,53,QSPI_SD0*%
%TO.N,/QSPI_SD0*%
X71987500Y-87037500D03*
%TO.P,U1,54,QSPI_SD2*%
%TO.N,/QSPI_SD2*%
X71987500Y-86637500D03*
%TO.P,U1,55,QSPI_SD1*%
%TO.N,/QSPI_SD1*%
X71987500Y-86237500D03*
%TO.P,U1,56,QSPI_SS*%
%TO.N,/QSPI_SS*%
X71987500Y-85837500D03*
D19*
%TO.P,U1,57,GND*%
%TO.N,GND*%
X68550000Y-88437500D03*
%TD*%
D20*
%TO.P,SW1,1,1*%
%TO.N,GND*%
X89500000Y-93500000D03*
X89500000Y-100000000D03*
%TO.P,SW1,2,2*%
%TO.N,Net-(R6-Pad1)*%
X85000000Y-93500000D03*
X85000000Y-100000000D03*
%TD*%
D11*
%TO.P,C5,1*%
%TO.N,+3V3*%
X71100000Y-93800000D03*
%TO.P,C5,2*%
%TO.N,GND*%
X71100000Y-94935000D03*
%TD*%
D21*
%TO.P,Q4,1,G*%
%TO.N,/BLINKER_RESET*%
X53000000Y-68500000D03*
%TO.P,Q4,2,S*%
%TO.N,GND*%
X53000000Y-70400000D03*
%TO.P,Q4,3,D*%
%TO.N,Net-(Q3-G)*%
X54875000Y-69450000D03*
%TD*%
D11*
%TO.P,C2,1*%
%TO.N,+3V3*%
X64600000Y-93765000D03*
%TO.P,C2,2*%
%TO.N,GND*%
X64600000Y-94900000D03*
%TD*%
D22*
%TO.P,C14,1*%
%TO.N,+3V3*%
X67600000Y-83500000D03*
%TO.P,C14,2*%
%TO.N,GND*%
X67600000Y-82365000D03*
%TD*%
D23*
%TO.P,R5,1*%
%TO.N,+3V3*%
X79100000Y-92600000D03*
%TO.P,R5,2*%
%TO.N,/QSPI_SS*%
X80295000Y-92600000D03*
%TD*%
D16*
%TO.P,R2,1*%
%TO.N,Net-(J1-CC2)*%
X82400000Y-114700000D03*
%TO.P,R2,2*%
%TO.N,GND*%
X82400000Y-113505000D03*
%TD*%
D24*
%TO.P,U5,1,~{CS}*%
%TO.N,/QSPI_SS*%
X83975000Y-89040000D03*
%TO.P,U5,2,DO/IO_{1}*%
%TO.N,/QSPI_SD1*%
X83975000Y-87770000D03*
%TO.P,U5,3,~{WP}/IO_{2}*%
%TO.N,/QSPI_SD2*%
X83975000Y-86500000D03*
%TO.P,U5,4,GND*%
%TO.N,GND*%
X83975000Y-85230000D03*
%TO.P,U5,5,DI/IO_{0}*%
%TO.N,/QSPI_SD0*%
X76800000Y-85230000D03*
%TO.P,U5,6,CLK*%
%TO.N,/QSPI_SCLK*%
X76800000Y-86500000D03*
%TO.P,U5,7,~{HOLD}/~{RESET}/IO_{3}*%
%TO.N,/QSPI_SD3*%
X76800000Y-87770000D03*
%TO.P,U5,8,VCC*%
%TO.N,+3V3*%
X76800000Y-89040000D03*
%TD*%
D16*
%TO.P,R4,1*%
%TO.N,/D-*%
X77300000Y-108100000D03*
%TO.P,R4,2*%
%TO.N,Net-(U1-USB_DM)*%
X77300000Y-106905000D03*
%TD*%
D13*
%TO.P,C11,1*%
%TO.N,+1V1*%
X63500000Y-90200000D03*
%TO.P,C11,2*%
%TO.N,GND*%
X62365000Y-90200000D03*
%TD*%
D15*
%TO.P,R16,1*%
%TO.N,/BLINKER_RESET*%
X51250000Y-68902500D03*
%TO.P,R16,2*%
%TO.N,GND*%
X51250000Y-70097500D03*
%TD*%
D10*
%TO.P,R14,1*%
%TO.N,+3V3*%
X64000000Y-92500000D03*
%TO.P,R14,2*%
%TO.N,Net-(U1-RUN)*%
X62805000Y-92500000D03*
%TD*%
D25*
%TO.P,U4,1,CLKOUT*%
%TO.N,unconnected-(U4-CLKOUT-Pad1)*%
X72100000Y-79700000D03*
%TO.P,U4,2,~{INT}*%
%TO.N,/INT*%
X72100000Y-78800000D03*
%TO.P,U4,3,SCL*%
%TO.N,/I2C0_SCL*%
X72100000Y-77900000D03*
%TO.P,U4,4,SDA*%
%TO.N,/I2C0_SDA*%
X72100000Y-77000000D03*
%TO.P,U4,5,VSS*%
%TO.N,GND*%
X70800000Y-77000000D03*
%TO.P,U4,6,VBACKUP*%
%TO.N,/BAT+*%
X70800000Y-77900000D03*
%TO.P,U4,7,VDD*%
%TO.N,+3V3*%
X70800000Y-78800000D03*
%TO.P,U4,8,EVI*%
%TO.N,unconnected-(U4-EVI-Pad8)*%
X70800000Y-79700000D03*
%TD*%
D26*
%TO.P,U6,1*%
%TO.N,Net-(U2-DRV)*%
X64412500Y-63987500D03*
%TO.P,U6,2*%
%TO.N,/RP2040_LED_CTRL*%
X65362500Y-63987500D03*
%TO.P,U6,3,GND*%
%TO.N,GND*%
X66312500Y-63987500D03*
%TO.P,U6,4*%
%TO.N,Net-(Q2-G)*%
X66312500Y-61712500D03*
%TO.P,U6,5,VCC*%
%TO.N,+BATT*%
X64412500Y-61712500D03*
%TD*%
D23*
%TO.P,R7,1*%
%TO.N,Net-(C15-Pad2)*%
X60805000Y-86300000D03*
%TO.P,R7,2*%
%TO.N,/XOUT*%
X62000000Y-86300000D03*
%TD*%
D21*
%TO.P,Q1,1,G*%
%TO.N,Net-(D2-K)*%
X57000000Y-73000000D03*
%TO.P,Q1,2,S*%
%TO.N,/V_BLINKER*%
X57000000Y-74900000D03*
%TO.P,Q1,3,D*%
%TO.N,/BAT+*%
X58875000Y-73950000D03*
%TD*%
D12*
%TO.P,U3,1,VIN*%
%TO.N,+5V*%
X68284556Y-104850000D03*
%TO.P,U3,2,GND*%
%TO.N,Net-(U3-GND)*%
X68284556Y-105800000D03*
%TO.P,U3,3,EN*%
%TO.N,+5V*%
X68284556Y-106750000D03*
%TO.P,U3,4,NC*%
%TO.N,unconnected-(U3-NC-Pad4)*%
X70559556Y-106750000D03*
%TO.P,U3,5,VOUT*%
%TO.N,+3V3*%
X70559556Y-104850000D03*
%TD*%
D27*
%TO.P,BT1,1,+*%
%TO.N,/BAT+*%
X70500000Y-67000000D03*
D28*
%TO.P,BT1,2,-*%
%TO.N,GND*%
X90990000Y-67000000D03*
%TD*%
D29*
%TO.P,D1,1,K*%
%TO.N,Net-(D1-K)*%
X58000000Y-63625000D03*
%TO.P,D1,2,A*%
%TO.N,Net-(D1-A)*%
X58000000Y-65500000D03*
%TD*%
D30*
%TO.P,C8,1*%
%TO.N,+3V3*%
X73600000Y-89700000D03*
%TO.P,C8,2*%
%TO.N,GND*%
X74735000Y-89700000D03*
%TD*%
D15*
%TO.P,R1,1*%
%TO.N,Net-(J1-CC1)*%
X69500000Y-115002500D03*
%TO.P,R1,2*%
%TO.N,GND*%
X69500000Y-116197500D03*
%TD*%
D31*
%TO.P,Y1,1*%
%TO.N,/XIN*%
X58800000Y-82300000D03*
%TO.P,Y1,2,GND*%
%TO.N,GND*%
X58800000Y-84500000D03*
%TO.P,Y1,3*%
%TO.N,Net-(C15-Pad2)*%
X60500000Y-84500000D03*
%TO.P,Y1,4,GND__1*%
%TO.N,GND*%
X60500000Y-82300000D03*
%TD*%
D30*
%TO.P,C12,1*%
%TO.N,+5V*%
X68865000Y-109250000D03*
%TO.P,C12,2*%
%TO.N,GND*%
X70000000Y-109250000D03*
%TD*%
D20*
%TO.P,SW2,1,1*%
%TO.N,GND*%
X53000000Y-89250000D03*
X59500000Y-89250000D03*
%TO.P,SW2,2,2*%
%TO.N,Net-(U1-RUN)*%
X53000000Y-93750000D03*
X59500000Y-93750000D03*
%TD*%
D30*
%TO.P,C9,1*%
%TO.N,+1V1*%
X73602500Y-88512500D03*
%TO.P,C9,2*%
%TO.N,GND*%
X74737500Y-88512500D03*
%TD*%
%TO.P,C4,1*%
%TO.N,+3V3*%
X72300000Y-83600000D03*
%TO.P,C4,2*%
%TO.N,GND*%
X73435000Y-83600000D03*
%TD*%
D32*
%TO.P,D2,1,K*%
%TO.N,Net-(D2-K)*%
X54750000Y-76750000D03*
D33*
%TO.P,D2,2,A*%
%TO.N,/INT*%
X54750000Y-84370000D03*
%TD*%
D11*
%TO.P,C15,1*%
%TO.N,GND*%
X62200000Y-83365000D03*
%TO.P,C15,2*%
%TO.N,Net-(C15-Pad2)*%
X62200000Y-84500000D03*
%TD*%
%TO.P,C6,1*%
%TO.N,+3V3*%
X67600000Y-93800000D03*
%TO.P,C6,2*%
%TO.N,GND*%
X67600000Y-94935000D03*
%TD*%
D16*
%TO.P,R8,1*%
%TO.N,+3V3*%
X75000000Y-82397500D03*
%TO.P,R8,2*%
%TO.N,/I2C0_SCL*%
X75000000Y-81202500D03*
%TD*%
%TO.P,R11,1*%
%TO.N,GND*%
X60600000Y-70495000D03*
%TO.P,R11,2*%
%TO.N,Net-(U2-DELAY{slash}M_DRV)*%
X60600000Y-69300000D03*
%TD*%
%TO.P,R12,1*%
%TO.N,GND*%
X65400000Y-66995000D03*
%TO.P,R12,2*%
%TO.N,/RP2040_LED_CTRL*%
X65400000Y-65800000D03*
%TD*%
D10*
%TO.P,R9,1*%
%TO.N,/I2C0_SDA*%
X69995000Y-81200000D03*
%TO.P,R9,2*%
%TO.N,+3V3*%
X68800000Y-81200000D03*
%TD*%
D34*
%TO.P,Q2,1,G*%
%TO.N,Net-(Q2-G)*%
X67250000Y-59175000D03*
%TO.P,Q2,2,S*%
%TO.N,GND*%
X69150000Y-59175000D03*
%TO.P,Q2,3,D*%
%TO.N,Net-(D1-K)*%
X68200000Y-57300000D03*
%TD*%
D35*
%TO.P,J1,A1,GND*%
%TO.N,GND*%
X72480000Y-112270000D03*
%TO.P,J1,A4,VBUS*%
%TO.N,+5V*%
X73280000Y-112270000D03*
D36*
%TO.P,J1,A5,CC1*%
%TO.N,Net-(J1-CC1)*%
X74430000Y-112270000D03*
%TO.P,J1,A6,D+*%
%TO.N,/D+*%
X75430000Y-112270000D03*
%TO.P,J1,A7,D-*%
%TO.N,/D-*%
X75930000Y-112270000D03*
%TO.P,J1,A8*%
%TO.N,N/C*%
X76930000Y-112270000D03*
D35*
%TO.P,J1,A9,VBUS*%
%TO.N,+5V*%
X78080000Y-112270000D03*
%TO.P,J1,A12,GND*%
%TO.N,GND*%
X78880000Y-112270000D03*
%TO.P,J1,B1,GND*%
X78880000Y-112270000D03*
%TO.P,J1,B4,VBUS*%
%TO.N,+5V*%
X78080000Y-112270000D03*
D36*
%TO.P,J1,B5,CC2*%
%TO.N,Net-(J1-CC2)*%
X77430000Y-112270000D03*
%TO.P,J1,B6,D+*%
%TO.N,/D+*%
X76430000Y-112270000D03*
%TO.P,J1,B7,D-*%
%TO.N,/D-*%
X74930000Y-112270000D03*
%TO.P,J1,B8*%
%TO.N,N/C*%
X73930000Y-112270000D03*
D35*
%TO.P,J1,B9,VBUS*%
%TO.N,+5V*%
X73280000Y-112270000D03*
%TO.P,J1,B12,GND*%
%TO.N,GND*%
X72480000Y-112270000D03*
D37*
%TO.P,J1,S1,SHIELD*%
%TO.N,unconnected-(J1-SHIELD-PadS1)*%
X71360000Y-112845000D03*
D38*
X71360000Y-117025000D03*
D37*
X80000000Y-112845000D03*
D38*
X80000000Y-117025000D03*
%TD*%
D13*
%TO.P,C18,1*%
%TO.N,+3V3*%
X70000000Y-108000000D03*
%TO.P,C18,2*%
%TO.N,Net-(U3-GND)*%
X68865000Y-108000000D03*
%TD*%
D30*
%TO.P,C10,1*%
%TO.N,+1V1*%
X73465000Y-91800000D03*
%TO.P,C10,2*%
%TO.N,GND*%
X74600000Y-91800000D03*
%TD*%
D10*
%TO.P,R13,1*%
%TO.N,/BAT+*%
X68800000Y-77900000D03*
%TO.P,R13,2*%
%TO.N,Net-(D1-A)*%
X67605000Y-77900000D03*
%TD*%
D39*
%TO.N,Net-(D1-A)*%
X64700000Y-77900000D03*
X58000000Y-66900000D03*
%TO.N,/QSPI_SS*%
X74200000Y-85100000D03*
X81300000Y-88900000D03*
%TO.N,/I2C0_SDA*%
X72000000Y-81900000D03*
X74300000Y-77000000D03*
%TO.N,+3V3*%
X67900000Y-81100000D03*
X69300000Y-79000000D03*
X70500000Y-103200000D03*
X71050001Y-85878304D03*
X67538436Y-91053254D03*
X70500000Y-93200000D03*
X66049000Y-88101000D03*
X67549820Y-85812840D03*
X71035627Y-88864326D03*
X76800000Y-90900000D03*
X71700000Y-91570000D03*
%TO.N,Net-(D2-K)*%
X55750000Y-73000000D03*
X56750000Y-76750000D03*
%TO.N,/XIN*%
X63500000Y-86800000D03*
X57400000Y-82300000D03*
%TO.N,Net-(Q3-G)*%
X56000000Y-69500000D03*
X61250000Y-72750000D03*
%TO.N,/QSPI_SD1*%
X73500000Y-85900000D03*
X78500000Y-87000000D03*
%TO.N,GND*%
X75400000Y-88800000D03*
X70900000Y-109300000D03*
X65900000Y-67600000D03*
X75387500Y-89987500D03*
X74000000Y-83100000D03*
X69100000Y-117000000D03*
X83100000Y-113300000D03*
X62100000Y-82600000D03*
X75100000Y-92400000D03*
X72700000Y-94600000D03*
X68600000Y-88500000D03*
X66500000Y-65000000D03*
X67100000Y-81800000D03*
X85000000Y-84700000D03*
X61700000Y-89400000D03*
X53500000Y-72300000D03*
X61250000Y-90500000D03*
X60200000Y-67100000D03*
X57300000Y-84500000D03*
X78900000Y-110400000D03*
X61000000Y-71200000D03*
X72400000Y-110400000D03*
X61100000Y-80500000D03*
X68000000Y-95600000D03*
X70900000Y-76300000D03*
X71800000Y-95350000D03*
X69500000Y-60200000D03*
X52750000Y-71250000D03*
%TO.N,/D-*%
X75800000Y-110200000D03*
X77200000Y-110200000D03*
%TO.N,+5V*%
X78100000Y-109200000D03*
X74900000Y-109200000D03*
%TO.N,Net-(U1-USB_DP)*%
X69932607Y-90537500D03*
X69000000Y-94500000D03*
%TO.N,Net-(U1-USB_DM)*%
X70622332Y-90942819D03*
X69800000Y-94500000D03*
%TO.N,/BLINKER_RESET*%
X54000000Y-67250000D03*
X69500000Y-83250000D03*
%TO.N,Net-(U1-RUN)*%
X63750000Y-91250000D03*
%TD*%
D40*
%TO.N,Net-(D1-K)*%
X58000000Y-63625000D02*
X64325000Y-57300000D01*
X64325000Y-57300000D02*
X68200000Y-57300000D01*
%TO.N,Net-(D1-A)*%
X58000000Y-65500000D02*
X58000000Y-66900000D01*
X64700000Y-77900000D02*
X67605000Y-77900000D01*
%TO.N,/QSPI_SS*%
X81300000Y-88900000D02*
X81440000Y-89040000D01*
X83975000Y-89040000D02*
X85640000Y-89040000D01*
X72725000Y-85100000D02*
X74200000Y-85100000D01*
X71987500Y-85837500D02*
X72725000Y-85100000D01*
X80295000Y-89905000D02*
X81300000Y-88900000D01*
X80295000Y-92600000D02*
X80295000Y-89905000D01*
X85640000Y-89040000D02*
X85900000Y-89300000D01*
X81440000Y-89040000D02*
X83975000Y-89040000D01*
%TO.N,/QSPI_SD0*%
X74122464Y-87037500D02*
X71987500Y-87037500D01*
X75929964Y-85230000D02*
X74122464Y-87037500D01*
X76800000Y-85230000D02*
X75929964Y-85230000D01*
%TO.N,+1V1*%
X68601000Y-95351057D02*
X68601000Y-95848943D01*
X70048943Y-93899000D02*
X68751057Y-93899000D01*
X66091246Y-89037500D02*
X65112500Y-89037500D01*
X71452226Y-88237500D02*
X70451000Y-87236274D01*
X70401000Y-94251057D02*
X70048943Y-93899000D01*
X68399000Y-94251057D02*
X68399000Y-95149057D01*
X66649000Y-88479746D02*
X66091246Y-89037500D01*
X66649000Y-86536500D02*
X66649000Y-88479746D01*
X70775999Y-96100000D02*
X70401000Y-95725001D01*
X72049943Y-96100000D02*
X70775999Y-96100000D01*
X68751057Y-93899000D02*
X68399000Y-94251057D01*
D41*
X63500000Y-90200000D02*
X63500000Y-90150080D01*
D40*
X68248943Y-96201000D02*
X62484324Y-96201000D01*
X62484324Y-96201000D02*
X61589000Y-95305676D01*
X68601000Y-95848943D02*
X68248943Y-96201000D01*
X63500000Y-89890000D02*
X64352500Y-89037500D01*
X70401000Y-95725001D02*
X70401000Y-94251057D01*
X70451000Y-86536500D02*
X66649000Y-86536500D01*
X71987500Y-88237500D02*
X73327500Y-88237500D01*
X72737500Y-90237500D02*
X73465000Y-90965000D01*
X73465000Y-94684943D02*
X72049943Y-96100000D01*
X73465000Y-90965000D02*
X73465000Y-91800000D01*
X68399000Y-95149057D02*
X68601000Y-95351057D01*
X61589000Y-92111000D02*
X63500000Y-90200000D01*
X71987500Y-90237500D02*
X72737500Y-90237500D01*
X63500000Y-90200000D02*
X63500000Y-89890000D01*
X73327500Y-88237500D02*
X73602500Y-88512500D01*
X73465000Y-91800000D02*
X73465000Y-94684943D01*
X61589000Y-95305676D02*
X61589000Y-92111000D01*
X64352500Y-89037500D02*
X65112500Y-89037500D01*
X71987500Y-88237500D02*
X71452226Y-88237500D01*
X70451000Y-87236274D02*
X70451000Y-86536500D01*
%TO.N,/QSPI_SD2*%
X73762500Y-86637500D02*
X75800000Y-84600000D01*
X78900000Y-84600000D02*
X80800000Y-86500000D01*
X75800000Y-84600000D02*
X78900000Y-84600000D01*
X71987500Y-86637500D02*
X73762500Y-86637500D01*
X80800000Y-86500000D02*
X83975000Y-86500000D01*
%TO.N,/QSPI_SD3*%
X76732500Y-87837500D02*
X71987500Y-87837500D01*
D41*
X76800000Y-87770000D02*
X76732500Y-87837500D01*
D40*
%TO.N,/I2C0_SDA*%
X70350000Y-83550000D02*
X72000000Y-81900000D01*
D41*
X69995000Y-81200000D02*
X71300000Y-81200000D01*
D40*
X74300000Y-77000000D02*
X72100000Y-77000000D01*
X70350000Y-85000000D02*
X70350000Y-83550000D01*
D41*
X71300000Y-81200000D02*
X72000000Y-81900000D01*
D40*
%TO.N,/QSPI_SCLK*%
X71987500Y-87437500D02*
X75262500Y-87437500D01*
X75262500Y-87437500D02*
X75700000Y-87000000D01*
D41*
X76632864Y-86500000D02*
X76800000Y-86500000D01*
D40*
X76300000Y-87000000D02*
X76800000Y-86500000D01*
X75700000Y-87000000D02*
X76300000Y-87000000D01*
D42*
%TO.N,+3V3*%
X67910000Y-83500000D02*
X67600000Y-83500000D01*
D41*
X66049000Y-88101000D02*
X66050000Y-88102000D01*
X72300000Y-83850000D02*
X72300000Y-83600000D01*
X71150000Y-93750000D02*
X71100000Y-93800000D01*
X67600000Y-93750000D02*
X67550000Y-93700000D01*
D40*
X72600000Y-90700000D02*
X72537500Y-90637500D01*
X72774960Y-88774960D02*
X72774960Y-89100000D01*
D41*
X67900000Y-81100000D02*
X68700000Y-81100000D01*
D40*
X67550000Y-83550000D02*
X67550000Y-85000000D01*
X63730000Y-88637500D02*
X65112500Y-88637500D01*
X66050000Y-88102000D02*
X66050000Y-88511646D01*
D41*
X67550000Y-92750000D02*
X67500000Y-92800000D01*
D42*
X64000000Y-92500000D02*
X64000000Y-93165000D01*
D40*
X65924146Y-88637500D02*
X65112500Y-88637500D01*
X72774960Y-89325040D02*
X73149920Y-89700000D01*
D42*
X64000000Y-93165000D02*
X64600000Y-93765000D01*
D40*
X73502500Y-82397500D02*
X72300000Y-83600000D01*
D41*
X71700000Y-91570000D02*
X71700000Y-91200000D01*
X69500000Y-78800000D02*
X69300000Y-79000000D01*
D42*
X71132500Y-92832500D02*
X71100000Y-92800000D01*
X71900000Y-107600000D02*
X71800000Y-107600000D01*
X71100000Y-93800000D02*
X70500000Y-93200000D01*
X71100000Y-92800000D02*
X71100000Y-93800000D01*
D40*
X71050001Y-85878304D02*
X71150000Y-85778305D01*
X75000000Y-82397500D02*
X73502500Y-82397500D01*
D41*
X71862500Y-91037500D02*
X71987500Y-91037500D01*
X71150000Y-92750000D02*
X71100000Y-92800000D01*
D42*
X70559556Y-103259556D02*
X70500000Y-103200000D01*
D41*
X67600000Y-83500000D02*
X67550000Y-83550000D01*
D40*
X71150000Y-85000000D02*
X72300000Y-83850000D01*
D41*
X71330000Y-91570000D02*
X71150000Y-91750000D01*
D40*
X72712460Y-89037500D02*
X72774960Y-89100000D01*
D42*
X67565000Y-93765000D02*
X67600000Y-93800000D01*
D40*
X66050000Y-88511646D02*
X65924146Y-88637500D01*
X71035627Y-88831729D02*
X71229856Y-88637500D01*
X67550000Y-85000000D02*
X67550000Y-85812660D01*
D42*
X67500000Y-92800000D02*
X67600000Y-92900000D01*
D41*
X68700000Y-81100000D02*
X68800000Y-81200000D01*
D40*
X71987500Y-91037500D02*
X72562500Y-91037500D01*
D41*
X67550000Y-91064818D02*
X67538436Y-91053254D01*
D42*
X72200000Y-92832500D02*
X71132500Y-92832500D01*
X68800000Y-81200000D02*
X68800000Y-82610000D01*
D40*
X71150000Y-85778305D02*
X71150000Y-85000000D01*
D41*
X67600000Y-93800000D02*
X67550000Y-93750000D01*
D40*
X72637500Y-88637500D02*
X72774960Y-88774960D01*
X72562500Y-91037500D02*
X72600000Y-91000000D01*
D42*
X62200000Y-93765000D02*
X67565000Y-93765000D01*
D40*
X71229856Y-88637500D02*
X71987500Y-88637500D01*
X72600000Y-91000000D02*
X72600000Y-90700000D01*
D41*
X67550000Y-93700000D02*
X67550000Y-93850000D01*
D42*
X71400000Y-108000000D02*
X70000000Y-108000000D01*
D41*
X70800000Y-78800000D02*
X69500000Y-78800000D01*
D40*
X72774960Y-89100000D02*
X72774960Y-89325040D01*
X71987500Y-89037500D02*
X72712460Y-89037500D01*
D42*
X68800000Y-82610000D02*
X67910000Y-83500000D01*
D40*
X63467500Y-88900000D02*
X63730000Y-88637500D01*
D42*
X70559556Y-104850000D02*
X71900000Y-106190444D01*
D41*
X71035627Y-88864326D02*
X71035627Y-88831729D01*
D40*
X76800000Y-89040000D02*
X76800000Y-90900000D01*
D42*
X67600000Y-92900000D02*
X67600000Y-93800000D01*
D40*
X67550000Y-91875000D02*
X67550000Y-91064818D01*
D41*
X67550000Y-85812660D02*
X67549820Y-85812840D01*
D40*
X71700000Y-91200000D02*
X71862500Y-91037500D01*
D41*
X71150000Y-91750000D02*
X71150000Y-91875000D01*
D40*
X67550000Y-91875000D02*
X67550000Y-92750000D01*
D42*
X70559556Y-104850000D02*
X70559556Y-103259556D01*
D41*
X73600000Y-89700000D02*
X73637500Y-89662500D01*
D40*
X73149920Y-89700000D02*
X73600000Y-89700000D01*
X71150000Y-91875000D02*
X71150000Y-92750000D01*
X71987500Y-88637500D02*
X72637500Y-88637500D01*
D42*
X71900000Y-106190444D02*
X71900000Y-107600000D01*
D40*
X78500000Y-92600000D02*
X79100000Y-92600000D01*
X72537500Y-90637500D02*
X71987500Y-90637500D01*
X76800000Y-90900000D02*
X78500000Y-92600000D01*
D41*
X71700000Y-91570000D02*
X71330000Y-91570000D01*
D42*
X71800000Y-107600000D02*
X71400000Y-108000000D01*
D40*
%TO.N,Net-(D2-K)*%
X55750000Y-73000000D02*
X56599000Y-73000000D01*
X58423500Y-70879000D02*
X58086050Y-71216450D01*
X59390386Y-70879000D02*
X60312386Y-71801000D01*
X62274000Y-71801000D02*
X62875000Y-71200000D01*
X57802500Y-71500000D02*
X57802500Y-72197500D01*
X57802500Y-72197500D02*
X57000000Y-73000000D01*
X59390386Y-70879000D02*
X58423500Y-70879000D01*
X60312386Y-71801000D02*
X62274000Y-71801000D01*
X54750000Y-76750000D02*
X56750000Y-76750000D01*
%TO.N,/I2C0_SCL*%
X73681322Y-81118678D02*
X73800000Y-81118678D01*
X73200000Y-77900000D02*
X73800000Y-78500000D01*
X73800000Y-78500000D02*
X73800000Y-81118678D01*
X73883822Y-81202500D02*
X73800000Y-81118678D01*
X70750000Y-84050000D02*
X73681322Y-81118678D01*
X72100000Y-77900000D02*
X73200000Y-77900000D01*
X75000000Y-81202500D02*
X73883822Y-81202500D01*
X70750000Y-85000000D02*
X70750000Y-84050000D01*
D41*
%TO.N,/XIN*%
X58800000Y-82300000D02*
X57400000Y-82300000D01*
D40*
X64537500Y-87837500D02*
X65112500Y-87837500D01*
D41*
X58800000Y-82300000D02*
X58800000Y-80900000D01*
D40*
X63500000Y-86800000D02*
X64537500Y-87837500D01*
D41*
X58800000Y-80900000D02*
X59200000Y-80500000D01*
D40*
%TO.N,Net-(Q3-G)*%
X55950000Y-69450000D02*
X56000000Y-69500000D01*
X64750000Y-72150000D02*
X66552500Y-72150000D01*
X64150000Y-72750000D02*
X64750000Y-72150000D01*
X54625000Y-69450000D02*
X55950000Y-69450000D01*
X61250000Y-72750000D02*
X64150000Y-72750000D01*
X66552500Y-72150000D02*
X67250000Y-72847500D01*
%TO.N,/QSPI_SD1*%
X79270000Y-87770000D02*
X78500000Y-87000000D01*
X73162500Y-86237500D02*
X71987500Y-86237500D01*
X83975000Y-87770000D02*
X79270000Y-87770000D01*
X73500000Y-85900000D02*
X73162500Y-86237500D01*
%TO.N,GND*%
X64750000Y-70250000D02*
X60845000Y-70250000D01*
X61225000Y-67000000D02*
X60300000Y-67000000D01*
X89500000Y-93500000D02*
X89500000Y-100000000D01*
X71250000Y-95350000D02*
X71100000Y-95200000D01*
D41*
X70900000Y-109300000D02*
X70700000Y-109300000D01*
D40*
X52697500Y-70097500D02*
X53000000Y-70400000D01*
X52850000Y-70400000D02*
X53000000Y-70400000D01*
D41*
X72430000Y-110430000D02*
X72400000Y-110400000D01*
D40*
X74600000Y-91900000D02*
X75100000Y-92400000D01*
X78930000Y-110430000D02*
X78900000Y-110400000D01*
X65400000Y-67100000D02*
X65900000Y-67600000D01*
D41*
X71100000Y-95200000D02*
X71100000Y-94935000D01*
D40*
X62200000Y-94900000D02*
X67565000Y-94900000D01*
D41*
X70700000Y-109300000D02*
X70650000Y-109250000D01*
D40*
X69150000Y-59175000D02*
X69150000Y-59850000D01*
D41*
X74772500Y-89712500D02*
X74912500Y-89712500D01*
X68550000Y-88437500D02*
X68550000Y-88450000D01*
D40*
X74737500Y-88512500D02*
X75112500Y-88512500D01*
D41*
X60300000Y-67000000D02*
X60200000Y-67100000D01*
X70650000Y-109250000D02*
X70000000Y-109250000D01*
D40*
X82400000Y-113505000D02*
X82895000Y-113505000D01*
D41*
X70800000Y-77000000D02*
X70800000Y-76400000D01*
X60500000Y-82300000D02*
X61135000Y-82300000D01*
X73435000Y-83600000D02*
X73500000Y-83600000D01*
D40*
X60600000Y-70800000D02*
X61000000Y-71200000D01*
D41*
X53400000Y-73065000D02*
X53400000Y-72400000D01*
X72200000Y-93967500D02*
X72200000Y-94100000D01*
D40*
X69150000Y-59850000D02*
X69500000Y-60200000D01*
D41*
X72430000Y-111905000D02*
X72430000Y-110430000D01*
X65400000Y-66995000D02*
X65400000Y-67100000D01*
D40*
X60845000Y-70250000D02*
X60600000Y-70495000D01*
X75112500Y-88512500D02*
X75400000Y-88800000D01*
X67600000Y-95200000D02*
X68000000Y-95600000D01*
X78930000Y-111905000D02*
X78930000Y-110430000D01*
D41*
X60600000Y-70495000D02*
X60600000Y-70800000D01*
D40*
X66312500Y-63987500D02*
X66312500Y-64812500D01*
D41*
X68550000Y-88450000D02*
X68600000Y-88500000D01*
D40*
X62200000Y-90200000D02*
X61900000Y-90500000D01*
D41*
X74887500Y-89662500D02*
X74772500Y-89662500D01*
X83975000Y-85230000D02*
X84470000Y-85230000D01*
D40*
X67600000Y-82300000D02*
X67100000Y-81800000D01*
D41*
X67600000Y-82300000D02*
X67600000Y-82365000D01*
D40*
X71800000Y-95350000D02*
X71250000Y-95350000D01*
D41*
X62365000Y-90200000D02*
X62200000Y-90200000D01*
X84470000Y-85230000D02*
X85000000Y-84700000D01*
X62200000Y-82700000D02*
X62100000Y-82600000D01*
D40*
X66312500Y-64812500D02*
X66500000Y-65000000D01*
X74600000Y-91800000D02*
X74600000Y-91900000D01*
D41*
X73600000Y-83600000D02*
X73435000Y-83600000D01*
X70000000Y-109250000D02*
X70000000Y-109475000D01*
D40*
X61900000Y-90500000D02*
X61250000Y-90500000D01*
X82895000Y-113505000D02*
X83100000Y-113300000D01*
D41*
X58800000Y-84500000D02*
X57300000Y-84500000D01*
D40*
X52750000Y-70500000D02*
X52850000Y-70400000D01*
X67565000Y-94900000D02*
X67600000Y-94935000D01*
X73500000Y-83600000D02*
X74000000Y-83100000D01*
D41*
X62200000Y-88900000D02*
X62332500Y-88900000D01*
D40*
X72200000Y-94100000D02*
X72700000Y-94600000D01*
X69500000Y-116197500D02*
X69500000Y-116600000D01*
D41*
X72365000Y-111840000D02*
X72430000Y-111905000D01*
D40*
X69500000Y-116600000D02*
X69100000Y-117000000D01*
D41*
X62200000Y-83365000D02*
X62200000Y-82700000D01*
D40*
X62200000Y-88900000D02*
X61700000Y-89400000D01*
X74900000Y-89500000D02*
X75387500Y-89987500D01*
X51250000Y-70097500D02*
X52697500Y-70097500D01*
D41*
X70800000Y-76400000D02*
X70900000Y-76300000D01*
X60335000Y-80500000D02*
X61100000Y-80500000D01*
X61135000Y-82300000D02*
X62200000Y-83365000D01*
X67600000Y-94935000D02*
X67600000Y-95200000D01*
D40*
X52750000Y-71250000D02*
X52750000Y-70500000D01*
D41*
X53400000Y-72400000D02*
X53500000Y-72300000D01*
X62365000Y-90235000D02*
X62365000Y-90200000D01*
D40*
%TO.N,/XOUT*%
X65112500Y-88237500D02*
X63937500Y-88237500D01*
X63937500Y-88237500D02*
X62000000Y-86300000D01*
%TO.N,Net-(U2-DELAY{slash}M_DRV)*%
X60600000Y-68575000D02*
X60600000Y-69300000D01*
X61225000Y-67950000D02*
X60600000Y-68575000D01*
%TO.N,Net-(U2-DRV)*%
X63500000Y-67000000D02*
X63854468Y-67000000D01*
D41*
X64412500Y-63987500D02*
X64438500Y-64013500D01*
D40*
X64712500Y-66141968D02*
X64712500Y-64287500D01*
X63854468Y-67000000D02*
X64712500Y-66141968D01*
X64712500Y-64287500D02*
X64412500Y-63987500D01*
%TO.N,/V_BLINKER*%
X60400057Y-66050000D02*
X61225000Y-66050000D01*
X67250000Y-70900057D02*
X64900943Y-68551000D01*
X62551000Y-68551000D02*
X62250000Y-68250000D01*
X55100000Y-74900000D02*
X54400000Y-74200000D01*
X54400000Y-72050057D02*
X60400057Y-66050000D01*
X61225000Y-66050000D02*
X62250000Y-66050000D01*
X54400000Y-74200000D02*
X53400000Y-74200000D01*
X67250000Y-71652500D02*
X67250000Y-70900057D01*
X62250000Y-66050000D02*
X63500000Y-66050000D01*
X57000000Y-74900000D02*
X55100000Y-74900000D01*
X64900943Y-68551000D02*
X62551000Y-68551000D01*
X54400000Y-74200000D02*
X54400000Y-72050057D01*
X62250000Y-68250000D02*
X62250000Y-66050000D01*
%TO.N,/BAT+*%
X58997500Y-73827500D02*
X58875000Y-73950000D01*
X69600000Y-67900000D02*
X69600000Y-72500000D01*
X59900000Y-74975000D02*
X58875000Y-73950000D01*
X69600000Y-72500000D02*
X69600000Y-77900000D01*
X59900000Y-74975000D02*
X67125000Y-74975000D01*
X69600000Y-72500000D02*
X67200000Y-74900000D01*
X67125000Y-74975000D02*
X67200000Y-74900000D01*
X70800000Y-77900000D02*
X69600000Y-77900000D01*
X58997500Y-71500000D02*
X58997500Y-73827500D01*
X69600000Y-77900000D02*
X68800000Y-77900000D01*
D41*
X70500000Y-67000000D02*
X69600000Y-67900000D01*
D40*
%TO.N,/INT*%
X54750000Y-82750000D02*
X58000000Y-79500000D01*
X73000000Y-79225001D02*
X73000000Y-80500000D01*
X54750000Y-84370000D02*
X54750000Y-82750000D01*
X58000000Y-79500000D02*
X61750000Y-79500000D01*
X61750000Y-79500000D02*
X62750000Y-80500000D01*
X72574999Y-78800000D02*
X73000000Y-79225001D01*
X73000000Y-80500000D02*
X62750000Y-80500000D01*
X72100000Y-78800000D02*
X72574999Y-78800000D01*
D41*
%TO.N,Net-(C15-Pad2)*%
X60500000Y-84500000D02*
X62200000Y-84500000D01*
D40*
X60805000Y-84805000D02*
X60500000Y-84500000D01*
X60805000Y-86300000D02*
X60805000Y-84805000D01*
%TO.N,Net-(J1-CC2)*%
X77430000Y-114230000D02*
X77900000Y-114700000D01*
X77900000Y-114700000D02*
X82400000Y-114700000D01*
X77430000Y-111905000D02*
X77430000Y-114230000D01*
%TO.N,Net-(J1-CC1)*%
X74430000Y-112878824D02*
X72306324Y-115002500D01*
X74430000Y-111905000D02*
X74479000Y-111954000D01*
X74430000Y-112270000D02*
X74430000Y-112878824D01*
X72306324Y-115002500D02*
X69500000Y-115002500D01*
%TO.N,Net-(Q2-G)*%
X66312500Y-61712500D02*
X66312500Y-60112500D01*
X66312500Y-60112500D02*
X67250000Y-59175000D01*
%TO.N,Net-(R6-Pad1)*%
X85000000Y-100000000D02*
X85000000Y-93500000D01*
X85000000Y-93500000D02*
X87095000Y-91405000D01*
X87095000Y-91405000D02*
X87095000Y-89300000D01*
D41*
%TO.N,/RP2040_LED_CTRL*%
X65362500Y-65762500D02*
X65400000Y-65800000D01*
D40*
X65362500Y-63987500D02*
X65362500Y-65762500D01*
%TO.N,/D+*%
X76498750Y-108501250D02*
X76498750Y-109561250D01*
X76430000Y-112844999D02*
X76178999Y-113096000D01*
X75681001Y-113096000D02*
X75430000Y-112844999D01*
X76178999Y-113096000D02*
X75681001Y-113096000D01*
X75430000Y-112844999D02*
X75430000Y-112270000D01*
X76430000Y-111905000D02*
X76430000Y-109630000D01*
X76430000Y-112270000D02*
X76430000Y-112844999D01*
X76100000Y-108102500D02*
X76498750Y-108501250D01*
X76498750Y-109561250D02*
X76430000Y-109630000D01*
%TO.N,/D-*%
X75930000Y-110980000D02*
X75930000Y-111905000D01*
X76898750Y-108501250D02*
X76898750Y-109298750D01*
X77300000Y-108100000D02*
X76898750Y-108501250D01*
X75500000Y-110929000D02*
X75500000Y-110500000D01*
X75500000Y-110929000D02*
X75879000Y-110929000D01*
X75879000Y-110929000D02*
X75930000Y-110980000D01*
X76898750Y-109298750D02*
X77200000Y-109600000D01*
X75029000Y-110929000D02*
X75500000Y-110929000D01*
X74930000Y-111028000D02*
X75029000Y-110929000D01*
X77200000Y-110200000D02*
X77200000Y-109600000D01*
X75500000Y-110500000D02*
X75800000Y-110200000D01*
X74930000Y-111905000D02*
X74930000Y-111028000D01*
D42*
%TO.N,+5V*%
X64989000Y-109689000D02*
X64989000Y-108171000D01*
X66720000Y-106750000D02*
X65750000Y-107720000D01*
X71613075Y-109649000D02*
X71162075Y-110100000D01*
X72711075Y-109649000D02*
X71613075Y-109649000D01*
X73230000Y-110167925D02*
X72711075Y-109649000D01*
X65440000Y-107720000D02*
X65750000Y-107720000D01*
X66720000Y-106750000D02*
X68284556Y-106750000D01*
X68865000Y-109560000D02*
X68865000Y-109250000D01*
D41*
X68250000Y-106750000D02*
X68284556Y-106750000D01*
D42*
X69405000Y-110100000D02*
X68865000Y-109560000D01*
X73230000Y-111905000D02*
X73230000Y-110167925D01*
X71162075Y-110100000D02*
X69405000Y-110100000D01*
X68284556Y-104850000D02*
X67622057Y-104850000D01*
D41*
X78130000Y-109230000D02*
X78100000Y-109200000D01*
D42*
X64989000Y-108171000D02*
X65440000Y-107720000D01*
X68315000Y-109800000D02*
X65100000Y-109800000D01*
X67622057Y-104850000D02*
X66720000Y-105752057D01*
X73230000Y-110870000D02*
X73230000Y-111905000D01*
X74900000Y-109200000D02*
X73230000Y-110870000D01*
X65100000Y-109800000D02*
X64989000Y-109689000D01*
X68865000Y-109250000D02*
X68315000Y-109800000D01*
X78130000Y-111905000D02*
X78130000Y-109230000D01*
X66720000Y-105752057D02*
X66720000Y-106750000D01*
D40*
%TO.N,Net-(U3-GND)*%
X66445000Y-108855000D02*
X67300000Y-108000000D01*
X68284556Y-105800000D02*
X68639024Y-105800000D01*
X69248056Y-107616944D02*
X68865000Y-108000000D01*
X65750000Y-108855000D02*
X66445000Y-108855000D01*
X69248056Y-106409032D02*
X69248056Y-107616944D01*
X67300000Y-108000000D02*
X68865000Y-108000000D01*
X68639024Y-105800000D02*
X69248056Y-106409032D01*
%TO.N,unconnected-(J1-SHIELD-PadS1)*%
X71360000Y-112890000D02*
X71250000Y-113000000D01*
%TO.N,Net-(U1-USB_DP)*%
X69174999Y-99416396D02*
X76100000Y-106341397D01*
X71213030Y-89437500D02*
X71987500Y-89437500D01*
X69932607Y-90537500D02*
X70177708Y-90537500D01*
X69174999Y-94674999D02*
X69174999Y-99416396D01*
X76100000Y-106341397D02*
X76100000Y-106907500D01*
X70373389Y-90277141D02*
X71213030Y-89437500D01*
X70177708Y-90537500D02*
X70373389Y-90341819D01*
X70373389Y-90341819D02*
X70373389Y-90277141D01*
X69000000Y-94500000D02*
X69174999Y-94674999D01*
%TO.N,Net-(U1-USB_DM)*%
X69800000Y-94500000D02*
X69625001Y-94674999D01*
X69625001Y-99230001D02*
X77300000Y-106905000D01*
X71249000Y-90229031D02*
X71249000Y-90040726D01*
X71249000Y-90040726D02*
X71398080Y-89891646D01*
X71452226Y-89837500D02*
X71987500Y-89837500D01*
X70622332Y-90942819D02*
X70622332Y-90855699D01*
X69625001Y-94674999D02*
X69625001Y-99230001D01*
X71398080Y-89891646D02*
X71452226Y-89837500D01*
X70622332Y-90855699D02*
X71249000Y-90229031D01*
%TO.N,/BLINKER_RESET*%
X54000000Y-67250000D02*
X54000000Y-67500000D01*
X69550000Y-83300000D02*
X69500000Y-83250000D01*
X51250000Y-68902500D02*
X52597500Y-68902500D01*
X69550000Y-85000000D02*
X69550000Y-83300000D01*
X54000000Y-67500000D02*
X53000000Y-68500000D01*
X52597500Y-68902500D02*
X53000000Y-68500000D01*
%TO.N,Net-(U1-RUN)*%
X62805000Y-92195000D02*
X63750000Y-91250000D01*
X63750000Y-91064726D02*
X64577226Y-90237500D01*
X64577226Y-90237500D02*
X65112500Y-90237500D01*
X63750000Y-91250000D02*
X63750000Y-91064726D01*
X53000000Y-93750000D02*
X59500000Y-93750000D01*
X62805000Y-92500000D02*
X62805000Y-92195000D01*
%TD*%
M02*
