%TF.GenerationSoftware,KiCad,Pcbnew,9.0.2*%
%TF.CreationDate,2025-07-31T20:28:33-07:00*%
%TF.ProjectId,TimeCapsule,54696d65-4361-4707-9375-6c652e6b6963,rev?*%
%TF.SameCoordinates,Original*%
%TF.FileFunction,Copper,L2,Bot*%
%TF.FilePolarity,Positive*%
%FSLAX46Y46*%
G04 Gerber Fmt 4.6, Leading zero omitted, Abs format (unit mm)*
G04 Created by KiCad (PCBNEW 9.0.2) date 2025-07-31 20:28:33*
%MOMM*%
%LPD*%
G01*
G04 APERTURE LIST*
G04 Aperture macros list*
%AMRoundRect*
0 Rectangle with rounded corners*
0 $1 Rounding radius*
0 $2 $3 $4 $5 $6 $7 $8 $9 X,Y pos of 4 corners*
0 Add a 4 corners polygon primitive as box body*
4,1,4,$2,$3,$4,$5,$6,$7,$8,$9,$2,$3,0*
0 Add four circle primitives for the rounded corners*
1,1,$1+$1,$2,$3*
1,1,$1+$1,$4,$5*
1,1,$1+$1,$6,$7*
1,1,$1+$1,$8,$9*
0 Add four rect primitives between the rounded corners*
20,1,$1+$1,$2,$3,$4,$5,0*
20,1,$1+$1,$4,$5,$6,$7,0*
20,1,$1+$1,$6,$7,$8,$9,0*
20,1,$1+$1,$8,$9,$2,$3,0*%
G04 Aperture macros list end*
%TA.AperFunction,ComponentPad*%
%ADD10C,2.000000*%
%TD*%
%TA.AperFunction,ComponentPad*%
%ADD11RoundRect,0.250000X-0.550000X0.550000X-0.550000X-0.550000X0.550000X-0.550000X0.550000X0.550000X0*%
%TD*%
%TA.AperFunction,ComponentPad*%
%ADD12C,1.600000*%
%TD*%
%TA.AperFunction,ComponentPad*%
%ADD13R,3.000000X3.000000*%
%TD*%
%TA.AperFunction,ComponentPad*%
%ADD14C,3.000000*%
%TD*%
%TA.AperFunction,HeatsinkPad*%
%ADD15O,1.000000X2.100000*%
%TD*%
%TA.AperFunction,HeatsinkPad*%
%ADD16O,1.000000X1.800000*%
%TD*%
%TA.AperFunction,ViaPad*%
%ADD17C,0.600000*%
%TD*%
%TA.AperFunction,Conductor*%
%ADD18C,0.200000*%
%TD*%
%TA.AperFunction,Conductor*%
%ADD19C,0.500000*%
%TD*%
%TA.AperFunction,Conductor*%
%ADD20C,0.150000*%
%TD*%
G04 APERTURE END LIST*
D10*
%TO.P,SW2,1,1*%
%TO.N,GND*%
X53000000Y-89250000D03*
X59500000Y-89250000D03*
%TO.P,SW2,2,2*%
%TO.N,Net-(U1-RUN)*%
X53000000Y-93750000D03*
X59500000Y-93750000D03*
%TD*%
D11*
%TO.P,D2,1,K*%
%TO.N,Net-(D2-K)*%
X54750000Y-76750000D03*
D12*
%TO.P,D2,2,A*%
%TO.N,/INT*%
X54750000Y-84370000D03*
%TD*%
D10*
%TO.P,SW1,1,1*%
%TO.N,GND*%
X89500000Y-93500000D03*
X89500000Y-100000000D03*
%TO.P,SW1,2,2*%
%TO.N,Net-(R6-Pad1)*%
X85000000Y-93500000D03*
X85000000Y-100000000D03*
%TD*%
D13*
%TO.P,BT1,1,+*%
%TO.N,/BAT+*%
X70500000Y-67000000D03*
D14*
%TO.P,BT1,2,-*%
%TO.N,GND*%
X90990000Y-67000000D03*
%TD*%
D15*
%TO.P,J1,S1,SHIELD*%
%TO.N,unconnected-(J1-SHIELD-PadS1)*%
X71360000Y-112845000D03*
D16*
X71360000Y-117025000D03*
D15*
X80000000Y-112845000D03*
D16*
X80000000Y-117025000D03*
%TD*%
D17*
%TO.N,/BLINKER_RESET*%
X54000000Y-67250000D03*
X69500000Y-83250000D03*
%TO.N,GND*%
X52750000Y-71250000D03*
%TO.N,Net-(Q3-G)*%
X61250000Y-72750000D03*
X56000000Y-69500000D03*
%TO.N,Net-(D2-K)*%
X55750000Y-73000000D03*
X56750000Y-76750000D03*
%TO.N,Net-(U1-RUN)*%
X63750000Y-91250000D03*
%TO.N,Net-(D1-A)*%
X64700000Y-77900000D03*
X58000000Y-66900000D03*
%TO.N,/QSPI_SS*%
X74200000Y-85100000D03*
X81300000Y-88900000D03*
%TO.N,/I2C0_SDA*%
X72000000Y-81900000D03*
X74300000Y-77000000D03*
%TO.N,+3V3*%
X67900000Y-81100000D03*
X69300000Y-79000000D03*
X70500000Y-103200000D03*
X71050001Y-85878304D03*
X67538436Y-91053254D03*
X70500000Y-93200000D03*
X66049000Y-88101000D03*
X67549820Y-85812840D03*
X71035627Y-88864326D03*
X76800000Y-90900000D03*
X71700000Y-91570000D03*
%TO.N,/XIN*%
X63500000Y-86800000D03*
X57400000Y-82300000D03*
%TO.N,/QSPI_SD1*%
X73500000Y-85900000D03*
X78500000Y-87000000D03*
%TO.N,GND*%
X75400000Y-88800000D03*
X70900000Y-109300000D03*
X65900000Y-67600000D03*
X75387500Y-89987500D03*
X74000000Y-83100000D03*
X69100000Y-117000000D03*
X83100000Y-113300000D03*
X62100000Y-82600000D03*
X75100000Y-92400000D03*
X72700000Y-94600000D03*
X68600000Y-88500000D03*
X66500000Y-65000000D03*
X67100000Y-81800000D03*
X85000000Y-84700000D03*
X61700000Y-89400000D03*
X53500000Y-72300000D03*
X61250000Y-90500000D03*
X60200000Y-67100000D03*
X57300000Y-84500000D03*
X78900000Y-110400000D03*
X61000000Y-71200000D03*
X72400000Y-110400000D03*
X61100000Y-80500000D03*
X68000000Y-95600000D03*
X70900000Y-76300000D03*
X71800000Y-95350000D03*
X69500000Y-60200000D03*
%TO.N,/D-*%
X75800000Y-110200000D03*
X77200000Y-110200000D03*
%TO.N,+5V*%
X78100000Y-109200000D03*
X74900000Y-109200000D03*
%TO.N,Net-(U1-USB_DP)*%
X69932607Y-90537500D03*
X69000000Y-94500000D03*
%TO.N,Net-(U1-USB_DM)*%
X70622332Y-90942819D03*
X69800000Y-94500000D03*
%TD*%
D18*
%TO.N,/BLINKER_RESET*%
X54000000Y-70400057D02*
X54000000Y-67250000D01*
X62250000Y-78650057D02*
X54000000Y-70400057D01*
X62250000Y-78750000D02*
X62250000Y-78650057D01*
X66351000Y-78399000D02*
X66000000Y-78750000D01*
X66000000Y-78750000D02*
X62250000Y-78750000D01*
X69548943Y-78399000D02*
X66351000Y-78399000D01*
X69901000Y-78751057D02*
X69548943Y-78399000D01*
X69901000Y-82849000D02*
X69901000Y-78751057D01*
X69500000Y-83250000D02*
X69901000Y-82849000D01*
%TO.N,Net-(Q3-G)*%
X61000000Y-72750000D02*
X61250000Y-72750000D01*
X60500000Y-72250000D02*
X61000000Y-72750000D01*
X56000000Y-68050057D02*
X57751057Y-66299000D01*
X59000000Y-67050057D02*
X59000000Y-70750000D01*
X59000000Y-70750000D02*
X60500000Y-72250000D01*
X56000000Y-69500000D02*
X56000000Y-68050057D01*
X57751057Y-66299000D02*
X58248943Y-66299000D01*
X58248943Y-66299000D02*
X59000000Y-67050057D01*
%TO.N,Net-(D2-K)*%
X56750000Y-74000000D02*
X55750000Y-73000000D01*
X56750000Y-76750000D02*
X56750000Y-74000000D01*
%TO.N,Net-(U1-RUN)*%
X62000000Y-91250000D02*
X63750000Y-91250000D01*
X59500000Y-93750000D02*
X62000000Y-91250000D01*
%TO.N,Net-(D1-A)*%
X58000000Y-71200000D02*
X64700000Y-77900000D01*
X58000000Y-66900000D02*
X58000000Y-71200000D01*
%TO.N,/QSPI_SS*%
X74200000Y-85100000D02*
X77500000Y-85100000D01*
X77500000Y-85100000D02*
X81300000Y-88900000D01*
%TO.N,/I2C0_SDA*%
X74300000Y-79900000D02*
X72300000Y-81900000D01*
X72300000Y-81900000D02*
X72000000Y-81900000D01*
X74300000Y-77000000D02*
X74300000Y-79900000D01*
%TO.N,+3V3*%
X76800000Y-90900000D02*
X72370000Y-90900000D01*
D19*
X70500000Y-103200000D02*
X70551000Y-103149000D01*
X70551000Y-93251000D02*
X70500000Y-93200000D01*
X70551000Y-103149000D02*
X70551000Y-93251000D01*
D18*
X72370000Y-90900000D02*
X71700000Y-91570000D01*
X69300000Y-79000000D02*
X69300000Y-79700000D01*
X69300000Y-79700000D02*
X67900000Y-81100000D01*
%TO.N,/XIN*%
X59000000Y-82300000D02*
X63500000Y-86800000D01*
D20*
X57400000Y-82300000D02*
X59000000Y-82300000D01*
D18*
%TO.N,/QSPI_SD1*%
X73500000Y-85900000D02*
X74600000Y-87000000D01*
X74600000Y-87000000D02*
X78500000Y-87000000D01*
%TO.N,GND*%
X66700000Y-82200000D02*
X67100000Y-81800000D01*
X66000000Y-82200000D02*
X66700000Y-82200000D01*
X66000000Y-85900000D02*
X66000000Y-82200000D01*
X68600000Y-88500000D02*
X66000000Y-85900000D01*
%TO.N,/D-*%
X75800000Y-110200000D02*
X77200000Y-110200000D01*
D19*
%TO.N,+5V*%
X78100000Y-109200000D02*
X74900000Y-109200000D01*
D20*
%TO.N,unconnected-(J1-SHIELD-PadS1)*%
X71360000Y-112820000D02*
X71481000Y-112699000D01*
D18*
X71935000Y-112270000D02*
X79425000Y-112270000D01*
D20*
X79879000Y-112699000D02*
X80000000Y-112820000D01*
X71360000Y-112820000D02*
X71360000Y-117000000D01*
D18*
X79425000Y-112270000D02*
X80000000Y-112845000D01*
X71360000Y-112845000D02*
X71935000Y-112270000D01*
D20*
X80000000Y-112820000D02*
X80000000Y-117000000D01*
D18*
%TO.N,Net-(U1-USB_DP)*%
X69932607Y-90537500D02*
X69174999Y-91295108D01*
X69174999Y-94325001D02*
X69000000Y-94500000D01*
X69174999Y-91295108D02*
X69174999Y-94325001D01*
%TO.N,Net-(U1-USB_DM)*%
X70622332Y-90942819D02*
X69625001Y-91940150D01*
X69625001Y-94325001D02*
X69800000Y-94500000D01*
X69625001Y-91940150D02*
X69625001Y-94325001D01*
%TD*%
%TA.AperFunction,Conductor*%
%TO.N,GND*%
G36*
X68381803Y-88114826D02*
G01*
X68381933Y-88114894D01*
X68381936Y-88114896D01*
X68443847Y-88147281D01*
X68579529Y-88195148D01*
X68674083Y-88213955D01*
X68697324Y-88221006D01*
X68728453Y-88233900D01*
X68749888Y-88245358D01*
X68777897Y-88264073D01*
X68796685Y-88279492D01*
X68820502Y-88303308D01*
X68835925Y-88322100D01*
X68854638Y-88350106D01*
X68866098Y-88371546D01*
X68878990Y-88402671D01*
X68886045Y-88425927D01*
X68892617Y-88458961D01*
X68895000Y-88483156D01*
X68895000Y-88516839D01*
X68892616Y-88541035D01*
X68886043Y-88574073D01*
X68878988Y-88597329D01*
X68866098Y-88628449D01*
X68854639Y-88649888D01*
X68835920Y-88677903D01*
X68820502Y-88696689D01*
X68820499Y-88696693D01*
X68796693Y-88720499D01*
X68777903Y-88735920D01*
X68749885Y-88754641D01*
X68728446Y-88766100D01*
X68697328Y-88778989D01*
X68674071Y-88786045D01*
X68657340Y-88789373D01*
X68641031Y-88792617D01*
X68616841Y-88795000D01*
X68583159Y-88795000D01*
X68558970Y-88792617D01*
X68525924Y-88786044D01*
X68502667Y-88778988D01*
X68471547Y-88766098D01*
X68450107Y-88754638D01*
X68422099Y-88735923D01*
X68403312Y-88720505D01*
X68379495Y-88696689D01*
X68364076Y-88677903D01*
X68345353Y-88649882D01*
X68333898Y-88628449D01*
X68321008Y-88597328D01*
X68313953Y-88574069D01*
X68295201Y-88479792D01*
X68295170Y-88479643D01*
X68295148Y-88479529D01*
X68294247Y-88475105D01*
X68294212Y-88474933D01*
X68293792Y-88472918D01*
X68292859Y-88468537D01*
X68292859Y-88468535D01*
X68291104Y-88463830D01*
X68242576Y-88333722D01*
X68215496Y-88284128D01*
X68200644Y-88215855D01*
X68225061Y-88150391D01*
X68280995Y-88108520D01*
X68350687Y-88103536D01*
X68381803Y-88114826D01*
G37*
%TD.AperFunction*%
%TA.AperFunction,Conductor*%
G36*
X99442539Y-50520185D02*
G01*
X99488294Y-50572989D01*
X99499500Y-50624500D01*
X99499500Y-119375500D01*
X99479815Y-119442539D01*
X99427011Y-119488294D01*
X99375500Y-119499500D01*
X50624500Y-119499500D01*
X50557461Y-119479815D01*
X50511706Y-119427011D01*
X50500500Y-119375500D01*
X50500500Y-113493543D01*
X70359499Y-113493543D01*
X70397947Y-113686829D01*
X70397950Y-113686839D01*
X70473364Y-113868907D01*
X70473371Y-113868920D01*
X70582860Y-114032781D01*
X70582863Y-114032785D01*
X70722212Y-114172134D01*
X70722214Y-114172135D01*
X70722218Y-114172139D01*
X70729389Y-114176930D01*
X70774194Y-114230540D01*
X70784500Y-114280033D01*
X70784500Y-115739965D01*
X70764815Y-115807004D01*
X70729396Y-115843064D01*
X70722218Y-115847860D01*
X70722214Y-115847863D01*
X70582863Y-115987214D01*
X70582860Y-115987218D01*
X70473371Y-116151079D01*
X70473364Y-116151092D01*
X70397950Y-116333160D01*
X70397947Y-116333170D01*
X70359500Y-116526456D01*
X70359500Y-116526459D01*
X70359500Y-117523541D01*
X70359500Y-117523543D01*
X70359499Y-117523543D01*
X70397947Y-117716829D01*
X70397950Y-117716839D01*
X70473364Y-117898907D01*
X70473371Y-117898920D01*
X70582860Y-118062781D01*
X70582863Y-118062785D01*
X70722214Y-118202136D01*
X70722218Y-118202139D01*
X70886079Y-118311628D01*
X70886092Y-118311635D01*
X71068160Y-118387049D01*
X71068165Y-118387051D01*
X71068169Y-118387051D01*
X71068170Y-118387052D01*
X71261456Y-118425500D01*
X71261459Y-118425500D01*
X71458543Y-118425500D01*
X71588582Y-118399632D01*
X71651835Y-118387051D01*
X71833914Y-118311632D01*
X71997782Y-118202139D01*
X72137139Y-118062782D01*
X72246632Y-117898914D01*
X72322051Y-117716835D01*
X72360500Y-117523541D01*
X72360500Y-116526459D01*
X72360500Y-116526456D01*
X72322052Y-116333170D01*
X72322051Y-116333169D01*
X72322051Y-116333165D01*
X72322049Y-116333160D01*
X72246635Y-116151092D01*
X72246628Y-116151079D01*
X72137139Y-115987218D01*
X72137136Y-115987214D01*
X71997785Y-115847863D01*
X71997781Y-115847860D01*
X71990604Y-115843064D01*
X71945802Y-115789450D01*
X71935500Y-115739965D01*
X71935500Y-114280033D01*
X71955185Y-114212994D01*
X71990609Y-114176931D01*
X71997782Y-114172139D01*
X72137139Y-114032782D01*
X72246632Y-113868914D01*
X72250540Y-113859478D01*
X72294376Y-113805074D01*
X72360669Y-113783004D01*
X72428369Y-113800279D01*
X72433028Y-113803432D01*
X72436633Y-113805513D01*
X72436635Y-113805515D01*
X72567865Y-113881281D01*
X72714234Y-113920500D01*
X72714236Y-113920500D01*
X72865764Y-113920500D01*
X72865766Y-113920500D01*
X73012135Y-113881281D01*
X73143365Y-113805515D01*
X73250515Y-113698365D01*
X73326281Y-113567135D01*
X73365500Y-113420766D01*
X73365500Y-113269234D01*
X73326281Y-113122865D01*
X73287964Y-113056499D01*
X73271492Y-112988601D01*
X73294344Y-112922574D01*
X73349265Y-112879383D01*
X73395352Y-112870500D01*
X77964648Y-112870500D01*
X78031687Y-112890185D01*
X78077442Y-112942989D01*
X78087386Y-113012147D01*
X78072035Y-113056498D01*
X78059479Y-113078246D01*
X78033719Y-113122863D01*
X77994500Y-113269234D01*
X77994500Y-113420765D01*
X78033719Y-113567136D01*
X78067251Y-113625214D01*
X78109485Y-113698365D01*
X78216635Y-113805515D01*
X78347865Y-113881281D01*
X78494234Y-113920500D01*
X78494236Y-113920500D01*
X78645764Y-113920500D01*
X78645766Y-113920500D01*
X78792135Y-113881281D01*
X78923365Y-113805515D01*
X78923366Y-113805513D01*
X78930403Y-113801451D01*
X78931749Y-113803783D01*
X78984553Y-113783357D01*
X79053001Y-113797381D01*
X79103001Y-113846185D01*
X79109458Y-113859474D01*
X79113367Y-113868913D01*
X79113371Y-113868920D01*
X79222860Y-114032781D01*
X79222863Y-114032785D01*
X79362212Y-114172134D01*
X79362214Y-114172135D01*
X79362218Y-114172139D01*
X79369389Y-114176930D01*
X79414194Y-114230540D01*
X79424500Y-114280033D01*
X79424500Y-115739965D01*
X79404815Y-115807004D01*
X79369396Y-115843064D01*
X79362218Y-115847860D01*
X79362214Y-115847863D01*
X79222863Y-115987214D01*
X79222860Y-115987218D01*
X79113371Y-116151079D01*
X79113364Y-116151092D01*
X79037950Y-116333160D01*
X79037947Y-116333170D01*
X78999500Y-116526456D01*
X78999500Y-116526459D01*
X78999500Y-117523541D01*
X78999500Y-117523543D01*
X78999499Y-117523543D01*
X79037947Y-117716829D01*
X79037950Y-117716839D01*
X79113364Y-117898907D01*
X79113371Y-117898920D01*
X79222860Y-118062781D01*
X79222863Y-118062785D01*
X79362214Y-118202136D01*
X79362218Y-118202139D01*
X79526079Y-118311628D01*
X79526092Y-118311635D01*
X79708160Y-118387049D01*
X79708165Y-118387051D01*
X79708169Y-118387051D01*
X79708170Y-118387052D01*
X79901456Y-118425500D01*
X79901459Y-118425500D01*
X80098543Y-118425500D01*
X80228582Y-118399632D01*
X80291835Y-118387051D01*
X80473914Y-118311632D01*
X80637782Y-118202139D01*
X80777139Y-118062782D01*
X80886632Y-117898914D01*
X80962051Y-117716835D01*
X81000500Y-117523541D01*
X81000500Y-116526459D01*
X81000500Y-116526456D01*
X80962052Y-116333170D01*
X80962051Y-116333169D01*
X80962051Y-116333165D01*
X80962049Y-116333160D01*
X80886635Y-116151092D01*
X80886628Y-116151079D01*
X80777139Y-115987218D01*
X80777136Y-115987214D01*
X80637785Y-115847863D01*
X80637781Y-115847860D01*
X80630604Y-115843064D01*
X80585802Y-115789450D01*
X80575500Y-115739965D01*
X80575500Y-114280033D01*
X80595185Y-114212994D01*
X80630609Y-114176931D01*
X80637782Y-114172139D01*
X80777139Y-114032782D01*
X80883208Y-113874038D01*
X92399500Y-113874038D01*
X92399500Y-114125962D01*
X92413285Y-114212994D01*
X92438910Y-114374785D01*
X92516760Y-114614383D01*
X92631132Y-114838848D01*
X92779201Y-115042649D01*
X92779205Y-115042654D01*
X92957345Y-115220794D01*
X92957350Y-115220798D01*
X93135117Y-115349952D01*
X93161155Y-115368870D01*
X93304184Y-115441747D01*
X93385616Y-115483239D01*
X93385618Y-115483239D01*
X93385621Y-115483241D01*
X93625215Y-115561090D01*
X93874038Y-115600500D01*
X93874039Y-115600500D01*
X94125961Y-115600500D01*
X94125962Y-115600500D01*
X94374785Y-115561090D01*
X94614379Y-115483241D01*
X94838845Y-115368870D01*
X95042656Y-115220793D01*
X95220793Y-115042656D01*
X95368870Y-114838845D01*
X95483241Y-114614379D01*
X95561090Y-114374785D01*
X95600500Y-114125962D01*
X95600500Y-113874038D01*
X95561090Y-113625215D01*
X95483241Y-113385621D01*
X95483239Y-113385618D01*
X95483239Y-113385616D01*
X95423939Y-113269234D01*
X95368870Y-113161155D01*
X95245707Y-112991635D01*
X95220798Y-112957350D01*
X95220794Y-112957345D01*
X95042654Y-112779205D01*
X95042649Y-112779201D01*
X94838848Y-112631132D01*
X94838847Y-112631131D01*
X94838845Y-112631130D01*
X94768747Y-112595413D01*
X94614383Y-112516760D01*
X94374785Y-112438910D01*
X94125962Y-112399500D01*
X93874038Y-112399500D01*
X93749626Y-112419205D01*
X93625214Y-112438910D01*
X93385616Y-112516760D01*
X93161151Y-112631132D01*
X92957350Y-112779201D01*
X92957345Y-112779205D01*
X92779205Y-112957345D01*
X92779201Y-112957350D01*
X92631132Y-113161151D01*
X92516760Y-113385616D01*
X92438910Y-113625214D01*
X92401807Y-113859474D01*
X92399500Y-113874038D01*
X80883208Y-113874038D01*
X80886632Y-113868914D01*
X80886633Y-113868911D01*
X80886635Y-113868908D01*
X80906183Y-113821714D01*
X80957275Y-113698365D01*
X80962051Y-113686835D01*
X81000500Y-113493541D01*
X81000500Y-112196459D01*
X81000500Y-112196456D01*
X80962052Y-112003170D01*
X80962051Y-112003169D01*
X80962051Y-112003165D01*
X80962049Y-112003160D01*
X80886635Y-111821092D01*
X80886628Y-111821079D01*
X80777139Y-111657218D01*
X80777136Y-111657214D01*
X80637785Y-111517863D01*
X80637781Y-111517860D01*
X80473920Y-111408371D01*
X80473907Y-111408364D01*
X80291839Y-111332950D01*
X80291829Y-111332947D01*
X80098543Y-111294500D01*
X80098541Y-111294500D01*
X79901459Y-111294500D01*
X79901457Y-111294500D01*
X79708170Y-111332947D01*
X79708160Y-111332950D01*
X79526092Y-111408364D01*
X79526079Y-111408371D01*
X79362219Y-111517859D01*
X79304559Y-111575520D01*
X79246896Y-111633182D01*
X79185576Y-111666666D01*
X79159217Y-111669500D01*
X72200783Y-111669500D01*
X72133744Y-111649815D01*
X72113106Y-111633185D01*
X71997782Y-111517861D01*
X71997781Y-111517860D01*
X71997780Y-111517859D01*
X71833920Y-111408371D01*
X71833907Y-111408364D01*
X71651839Y-111332950D01*
X71651829Y-111332947D01*
X71458543Y-111294500D01*
X71458541Y-111294500D01*
X71261459Y-111294500D01*
X71261457Y-111294500D01*
X71068170Y-111332947D01*
X71068160Y-111332950D01*
X70886092Y-111408364D01*
X70886079Y-111408371D01*
X70722218Y-111517860D01*
X70722214Y-111517863D01*
X70582863Y-111657214D01*
X70582860Y-111657218D01*
X70473371Y-111821079D01*
X70473364Y-111821092D01*
X70397950Y-112003160D01*
X70397947Y-112003170D01*
X70359500Y-112196456D01*
X70359500Y-112196459D01*
X70359500Y-113493541D01*
X70359500Y-113493543D01*
X70359499Y-113493543D01*
X50500500Y-113493543D01*
X50500500Y-109121153D01*
X74099500Y-109121153D01*
X74099500Y-109278846D01*
X74130261Y-109433489D01*
X74130264Y-109433501D01*
X74190602Y-109579172D01*
X74190609Y-109579185D01*
X74278210Y-109710288D01*
X74278213Y-109710292D01*
X74389707Y-109821786D01*
X74389711Y-109821789D01*
X74520814Y-109909390D01*
X74520827Y-109909397D01*
X74666498Y-109969735D01*
X74666503Y-109969737D01*
X74821153Y-110000499D01*
X74821156Y-110000500D01*
X74875500Y-110000500D01*
X74942539Y-110020185D01*
X74988294Y-110072989D01*
X74999500Y-110124500D01*
X74999500Y-110278846D01*
X75030261Y-110433489D01*
X75030264Y-110433501D01*
X75090602Y-110579172D01*
X75090609Y-110579185D01*
X75178210Y-110710288D01*
X75178213Y-110710292D01*
X75289707Y-110821786D01*
X75289711Y-110821789D01*
X75420814Y-110909390D01*
X75420827Y-110909397D01*
X75566498Y-110969735D01*
X75566503Y-110969737D01*
X75721153Y-111000499D01*
X75721156Y-111000500D01*
X75721158Y-111000500D01*
X75878844Y-111000500D01*
X75878845Y-111000499D01*
X76033497Y-110969737D01*
X76179179Y-110909394D01*
X76179185Y-110909390D01*
X76310875Y-110821398D01*
X76328921Y-110815747D01*
X76344831Y-110805523D01*
X76375792Y-110801071D01*
X76377553Y-110800520D01*
X76379766Y-110800500D01*
X76620234Y-110800500D01*
X76687273Y-110820185D01*
X76689125Y-110821398D01*
X76820814Y-110909390D01*
X76820827Y-110909397D01*
X76966498Y-110969735D01*
X76966503Y-110969737D01*
X77121153Y-111000499D01*
X77121156Y-111000500D01*
X77121158Y-111000500D01*
X77278844Y-111000500D01*
X77278845Y-111000499D01*
X77433497Y-110969737D01*
X77579179Y-110909394D01*
X77710289Y-110821789D01*
X77821789Y-110710289D01*
X77909394Y-110579179D01*
X77969737Y-110433497D01*
X78000500Y-110278842D01*
X78000500Y-110124500D01*
X78020185Y-110057461D01*
X78072989Y-110011706D01*
X78124500Y-110000500D01*
X78178844Y-110000500D01*
X78178845Y-110000499D01*
X78333497Y-109969737D01*
X78479179Y-109909394D01*
X78610289Y-109821789D01*
X78721789Y-109710289D01*
X78809394Y-109579179D01*
X78869737Y-109433497D01*
X78900500Y-109278842D01*
X78900500Y-109121158D01*
X78900500Y-109121155D01*
X78900499Y-109121153D01*
X78869738Y-108966510D01*
X78869737Y-108966503D01*
X78869735Y-108966498D01*
X78809397Y-108820827D01*
X78809390Y-108820814D01*
X78721789Y-108689711D01*
X78721786Y-108689707D01*
X78610292Y-108578213D01*
X78610288Y-108578210D01*
X78479185Y-108490609D01*
X78479172Y-108490602D01*
X78333501Y-108430264D01*
X78333489Y-108430261D01*
X78178845Y-108399500D01*
X78178842Y-108399500D01*
X78021158Y-108399500D01*
X78021155Y-108399500D01*
X77866511Y-108430260D01*
X77866506Y-108430262D01*
X77866504Y-108430262D01*
X77866503Y-108430263D01*
X77842844Y-108440062D01*
X77795396Y-108449500D01*
X75204604Y-108449500D01*
X75157155Y-108440062D01*
X75133497Y-108430263D01*
X75133493Y-108430262D01*
X75133488Y-108430260D01*
X74978845Y-108399500D01*
X74978842Y-108399500D01*
X74821158Y-108399500D01*
X74821155Y-108399500D01*
X74666510Y-108430261D01*
X74666498Y-108430264D01*
X74520827Y-108490602D01*
X74520814Y-108490609D01*
X74389711Y-108578210D01*
X74389707Y-108578213D01*
X74278213Y-108689707D01*
X74278210Y-108689711D01*
X74190609Y-108820814D01*
X74190602Y-108820827D01*
X74130264Y-108966498D01*
X74130261Y-108966510D01*
X74099500Y-109121153D01*
X50500500Y-109121153D01*
X50500500Y-93631902D01*
X51499500Y-93631902D01*
X51499500Y-93868097D01*
X51536446Y-94101368D01*
X51609433Y-94325996D01*
X51686635Y-94477512D01*
X51716657Y-94536433D01*
X51855483Y-94727510D01*
X52022490Y-94894517D01*
X52213567Y-95033343D01*
X52312991Y-95084002D01*
X52424003Y-95140566D01*
X52424005Y-95140566D01*
X52424008Y-95140568D01*
X52544412Y-95179689D01*
X52648631Y-95213553D01*
X52881903Y-95250500D01*
X52881908Y-95250500D01*
X53118097Y-95250500D01*
X53351368Y-95213553D01*
X53364180Y-95209390D01*
X53575992Y-95140568D01*
X53786433Y-95033343D01*
X53977510Y-94894517D01*
X54144517Y-94727510D01*
X54283343Y-94536433D01*
X54390568Y-94325992D01*
X54463553Y-94101368D01*
X54500500Y-93868097D01*
X54500500Y-93631902D01*
X57999500Y-93631902D01*
X57999500Y-93868097D01*
X58036446Y-94101368D01*
X58109433Y-94325996D01*
X58186635Y-94477512D01*
X58216657Y-94536433D01*
X58355483Y-94727510D01*
X58522490Y-94894517D01*
X58713567Y-95033343D01*
X58812991Y-95084002D01*
X58924003Y-95140566D01*
X58924005Y-95140566D01*
X58924008Y-95140568D01*
X59044412Y-95179689D01*
X59148631Y-95213553D01*
X59381903Y-95250500D01*
X59381908Y-95250500D01*
X59618097Y-95250500D01*
X59851368Y-95213553D01*
X59864180Y-95209390D01*
X60075992Y-95140568D01*
X60286433Y-95033343D01*
X60477510Y-94894517D01*
X60644517Y-94727510D01*
X60783343Y-94536433D01*
X60890568Y-94325992D01*
X60963553Y-94101368D01*
X61000500Y-93868097D01*
X61000500Y-93631902D01*
X60975868Y-93476390D01*
X60963553Y-93398632D01*
X60922547Y-93272433D01*
X60920553Y-93202593D01*
X60952796Y-93146437D01*
X62212416Y-91886819D01*
X62273739Y-91853334D01*
X62300097Y-91850500D01*
X63170234Y-91850500D01*
X63237273Y-91870185D01*
X63239125Y-91871398D01*
X63370814Y-91959390D01*
X63370827Y-91959397D01*
X63433762Y-91985465D01*
X63516503Y-92019737D01*
X63671153Y-92050499D01*
X63671156Y-92050500D01*
X63671158Y-92050500D01*
X63828844Y-92050500D01*
X63828845Y-92050499D01*
X63983497Y-92019737D01*
X64129179Y-91959394D01*
X64260289Y-91871789D01*
X64371789Y-91760289D01*
X64372307Y-91759512D01*
X64372686Y-91759196D01*
X64375653Y-91755581D01*
X64376338Y-91756143D01*
X64425912Y-91714701D01*
X64495236Y-91705984D01*
X64558268Y-91736130D01*
X64594995Y-91795568D01*
X64598707Y-91815134D01*
X64606052Y-91883451D01*
X64606054Y-91883462D01*
X64617260Y-91934972D01*
X64651383Y-92037497D01*
X64651386Y-92037503D01*
X64729171Y-92158537D01*
X64729179Y-92158548D01*
X64774923Y-92211340D01*
X64774926Y-92211343D01*
X64774930Y-92211347D01*
X64883664Y-92305567D01*
X64883667Y-92305568D01*
X64883668Y-92305569D01*
X64977925Y-92348616D01*
X65014541Y-92365338D01*
X65081580Y-92385023D01*
X65081584Y-92385024D01*
X65224000Y-92405500D01*
X65224003Y-92405500D01*
X68450499Y-92405500D01*
X68517538Y-92425185D01*
X68563293Y-92477989D01*
X68574499Y-92529500D01*
X68574499Y-93755277D01*
X68554814Y-93822316D01*
X68519391Y-93858378D01*
X68489713Y-93878208D01*
X68489707Y-93878213D01*
X68378213Y-93989707D01*
X68378210Y-93989711D01*
X68290609Y-94120814D01*
X68290602Y-94120827D01*
X68230264Y-94266498D01*
X68230261Y-94266510D01*
X68199500Y-94421153D01*
X68199500Y-94578846D01*
X68230261Y-94733489D01*
X68230264Y-94733501D01*
X68290602Y-94879172D01*
X68290609Y-94879185D01*
X68378210Y-95010288D01*
X68378213Y-95010292D01*
X68489707Y-95121786D01*
X68489711Y-95121789D01*
X68620814Y-95209390D01*
X68620827Y-95209397D01*
X68720060Y-95250500D01*
X68766503Y-95269737D01*
X68900692Y-95296429D01*
X68921153Y-95300499D01*
X68921156Y-95300500D01*
X68921158Y-95300500D01*
X69078844Y-95300500D01*
X69078845Y-95300499D01*
X69233497Y-95269737D01*
X69352548Y-95220425D01*
X69422017Y-95212956D01*
X69447453Y-95220425D01*
X69566503Y-95269737D01*
X69660645Y-95288463D01*
X69700691Y-95296429D01*
X69762602Y-95328814D01*
X69797176Y-95389529D01*
X69800500Y-95418046D01*
X69800500Y-102772270D01*
X69791061Y-102819722D01*
X69730264Y-102966498D01*
X69730261Y-102966510D01*
X69699500Y-103121153D01*
X69699500Y-103278846D01*
X69730261Y-103433489D01*
X69730264Y-103433501D01*
X69790602Y-103579172D01*
X69790609Y-103579185D01*
X69878210Y-103710288D01*
X69878213Y-103710292D01*
X69989707Y-103821786D01*
X69989711Y-103821789D01*
X70120814Y-103909390D01*
X70120827Y-103909397D01*
X70266498Y-103969735D01*
X70266503Y-103969737D01*
X70421153Y-104000499D01*
X70421156Y-104000500D01*
X70421158Y-104000500D01*
X70578844Y-104000500D01*
X70578845Y-104000499D01*
X70733497Y-103969737D01*
X70879179Y-103909394D01*
X71010289Y-103821789D01*
X71121789Y-103710289D01*
X71209394Y-103579179D01*
X71269737Y-103433497D01*
X71300500Y-103278842D01*
X71300500Y-103239165D01*
X71301097Y-103227013D01*
X71301500Y-103222920D01*
X71301500Y-99881902D01*
X83499500Y-99881902D01*
X83499500Y-100118097D01*
X83536446Y-100351368D01*
X83609433Y-100575996D01*
X83716519Y-100786163D01*
X83716657Y-100786433D01*
X83855483Y-100977510D01*
X84022490Y-101144517D01*
X84213567Y-101283343D01*
X84312991Y-101334002D01*
X84424003Y-101390566D01*
X84424005Y-101390566D01*
X84424008Y-101390568D01*
X84544412Y-101429689D01*
X84648631Y-101463553D01*
X84881903Y-101500500D01*
X84881908Y-101500500D01*
X85118097Y-101500500D01*
X85351368Y-101463553D01*
X85352870Y-101463065D01*
X85575992Y-101390568D01*
X85786433Y-101283343D01*
X85977510Y-101144517D01*
X86144517Y-100977510D01*
X86283343Y-100786433D01*
X86390568Y-100575992D01*
X86463553Y-100351368D01*
X86465717Y-100337708D01*
X86500500Y-100118097D01*
X86500500Y-99881947D01*
X88000000Y-99881947D01*
X88000000Y-100118052D01*
X88036934Y-100351247D01*
X88109897Y-100575802D01*
X88217087Y-100786174D01*
X88277338Y-100869104D01*
X88277340Y-100869105D01*
X88976212Y-100170233D01*
X88987482Y-100212292D01*
X89059890Y-100337708D01*
X89162292Y-100440110D01*
X89287708Y-100512518D01*
X89329765Y-100523787D01*
X88630893Y-101222658D01*
X88713828Y-101282914D01*
X88924197Y-101390102D01*
X89148752Y-101463065D01*
X89148751Y-101463065D01*
X89381948Y-101500000D01*
X89618052Y-101500000D01*
X89851247Y-101463065D01*
X90075802Y-101390102D01*
X90286163Y-101282918D01*
X90286169Y-101282914D01*
X90369104Y-101222658D01*
X90369105Y-101222658D01*
X89670233Y-100523787D01*
X89712292Y-100512518D01*
X89837708Y-100440110D01*
X89940110Y-100337708D01*
X90012518Y-100212292D01*
X90023787Y-100170233D01*
X90722658Y-100869105D01*
X90722658Y-100869104D01*
X90782914Y-100786169D01*
X90782918Y-100786163D01*
X90890102Y-100575802D01*
X90963065Y-100351247D01*
X91000000Y-100118052D01*
X91000000Y-99881947D01*
X90963065Y-99648752D01*
X90890102Y-99424197D01*
X90782914Y-99213828D01*
X90722658Y-99130894D01*
X90722658Y-99130893D01*
X90023787Y-99829765D01*
X90012518Y-99787708D01*
X89940110Y-99662292D01*
X89837708Y-99559890D01*
X89712292Y-99487482D01*
X89670234Y-99476212D01*
X90369105Y-98777340D01*
X90369104Y-98777338D01*
X90286174Y-98717087D01*
X90075802Y-98609897D01*
X89851247Y-98536934D01*
X89851248Y-98536934D01*
X89618052Y-98500000D01*
X89381948Y-98500000D01*
X89148752Y-98536934D01*
X88924197Y-98609897D01*
X88713830Y-98717084D01*
X88630894Y-98777340D01*
X89329766Y-99476212D01*
X89287708Y-99487482D01*
X89162292Y-99559890D01*
X89059890Y-99662292D01*
X88987482Y-99787708D01*
X88976212Y-99829766D01*
X88277340Y-99130894D01*
X88217084Y-99213830D01*
X88109897Y-99424197D01*
X88036934Y-99648752D01*
X88000000Y-99881947D01*
X86500500Y-99881947D01*
X86500500Y-99881902D01*
X86463553Y-99648631D01*
X86390566Y-99424003D01*
X86283477Y-99213830D01*
X86283343Y-99213567D01*
X86144517Y-99022490D01*
X85977510Y-98855483D01*
X85786433Y-98716657D01*
X85575996Y-98609433D01*
X85351368Y-98536446D01*
X85118097Y-98499500D01*
X85118092Y-98499500D01*
X84881908Y-98499500D01*
X84881903Y-98499500D01*
X84648631Y-98536446D01*
X84424003Y-98609433D01*
X84213566Y-98716657D01*
X84130047Y-98777338D01*
X84022490Y-98855483D01*
X84022488Y-98855485D01*
X84022487Y-98855485D01*
X83855485Y-99022487D01*
X83855485Y-99022488D01*
X83855483Y-99022490D01*
X83795862Y-99104550D01*
X83716657Y-99213566D01*
X83609433Y-99424003D01*
X83536446Y-99648631D01*
X83499500Y-99881902D01*
X71301500Y-99881902D01*
X71301500Y-93381902D01*
X83499500Y-93381902D01*
X83499500Y-93618097D01*
X83536446Y-93851368D01*
X83609433Y-94075996D01*
X83706500Y-94266498D01*
X83716657Y-94286433D01*
X83855483Y-94477510D01*
X84022490Y-94644517D01*
X84213567Y-94783343D01*
X84312991Y-94834002D01*
X84424003Y-94890566D01*
X84424005Y-94890566D01*
X84424008Y-94890568D01*
X84544412Y-94929689D01*
X84648631Y-94963553D01*
X84881903Y-95000500D01*
X84881908Y-95000500D01*
X85118097Y-95000500D01*
X85351368Y-94963553D01*
X85352870Y-94963065D01*
X85575992Y-94890568D01*
X85786433Y-94783343D01*
X85977510Y-94644517D01*
X86144517Y-94477510D01*
X86283343Y-94286433D01*
X86390568Y-94075992D01*
X86463553Y-93851368D01*
X86468275Y-93821557D01*
X86500500Y-93618097D01*
X86500500Y-93381947D01*
X88000000Y-93381947D01*
X88000000Y-93618052D01*
X88036934Y-93851247D01*
X88109897Y-94075802D01*
X88217087Y-94286174D01*
X88277338Y-94369104D01*
X88277340Y-94369105D01*
X88976212Y-93670233D01*
X88987482Y-93712292D01*
X89059890Y-93837708D01*
X89162292Y-93940110D01*
X89287708Y-94012518D01*
X89329765Y-94023787D01*
X88630893Y-94722658D01*
X88713828Y-94782914D01*
X88924197Y-94890102D01*
X89148752Y-94963065D01*
X89148751Y-94963065D01*
X89381948Y-95000000D01*
X89618052Y-95000000D01*
X89851247Y-94963065D01*
X90075802Y-94890102D01*
X90286163Y-94782918D01*
X90286169Y-94782914D01*
X90369104Y-94722658D01*
X90369105Y-94722658D01*
X89670233Y-94023787D01*
X89712292Y-94012518D01*
X89837708Y-93940110D01*
X89940110Y-93837708D01*
X90012518Y-93712292D01*
X90023787Y-93670233D01*
X90722658Y-94369105D01*
X90722658Y-94369104D01*
X90782914Y-94286169D01*
X90782918Y-94286163D01*
X90890102Y-94075802D01*
X90963065Y-93851247D01*
X91000000Y-93618052D01*
X91000000Y-93381947D01*
X90963065Y-93148752D01*
X90890102Y-92924197D01*
X90782914Y-92713828D01*
X90722658Y-92630894D01*
X90722658Y-92630893D01*
X90023787Y-93329765D01*
X90012518Y-93287708D01*
X89940110Y-93162292D01*
X89837708Y-93059890D01*
X89712292Y-92987482D01*
X89670234Y-92976212D01*
X90369105Y-92277340D01*
X90369104Y-92277338D01*
X90286174Y-92217087D01*
X90075802Y-92109897D01*
X89851247Y-92036934D01*
X89851248Y-92036934D01*
X89618052Y-92000000D01*
X89381948Y-92000000D01*
X89148752Y-92036934D01*
X88924197Y-92109897D01*
X88713830Y-92217084D01*
X88630894Y-92277340D01*
X89329766Y-92976212D01*
X89287708Y-92987482D01*
X89162292Y-93059890D01*
X89059890Y-93162292D01*
X88987482Y-93287708D01*
X88976212Y-93329766D01*
X88277340Y-92630894D01*
X88217084Y-92713830D01*
X88109897Y-92924197D01*
X88036934Y-93148752D01*
X88000000Y-93381947D01*
X86500500Y-93381947D01*
X86500500Y-93381902D01*
X86463553Y-93148631D01*
X86404378Y-92966510D01*
X86390568Y-92924008D01*
X86390566Y-92924005D01*
X86390566Y-92924003D01*
X86283477Y-92713830D01*
X86283343Y-92713567D01*
X86144517Y-92522490D01*
X85977510Y-92355483D01*
X85786433Y-92216657D01*
X85775998Y-92211340D01*
X85575996Y-92109433D01*
X85351368Y-92036446D01*
X85118097Y-91999500D01*
X85118092Y-91999500D01*
X84881908Y-91999500D01*
X84881903Y-91999500D01*
X84648631Y-92036446D01*
X84424003Y-92109433D01*
X84213566Y-92216657D01*
X84104550Y-92295862D01*
X84022490Y-92355483D01*
X84022488Y-92355485D01*
X84022487Y-92355485D01*
X83855485Y-92522487D01*
X83855485Y-92522488D01*
X83855483Y-92522490D01*
X83850390Y-92529500D01*
X83716657Y-92713566D01*
X83609433Y-92924003D01*
X83536446Y-93148631D01*
X83499500Y-93381902D01*
X71301500Y-93381902D01*
X71301500Y-93377393D01*
X71301500Y-93177082D01*
X71300551Y-93172312D01*
X71300501Y-93161411D01*
X71300524Y-93161330D01*
X71300500Y-93160837D01*
X71300500Y-93121155D01*
X71300499Y-93121153D01*
X71269738Y-92966510D01*
X71269737Y-92966503D01*
X71268521Y-92963567D01*
X71209397Y-92820827D01*
X71209390Y-92820814D01*
X71121789Y-92689711D01*
X71121786Y-92689707D01*
X71049260Y-92617181D01*
X71015775Y-92555858D01*
X71020759Y-92486166D01*
X71062631Y-92430233D01*
X71128095Y-92405816D01*
X71136941Y-92405500D01*
X72975990Y-92405500D01*
X72976000Y-92405500D01*
X73083456Y-92393947D01*
X73134967Y-92382741D01*
X73169197Y-92371347D01*
X73237497Y-92348616D01*
X73237501Y-92348613D01*
X73237504Y-92348613D01*
X73358543Y-92270825D01*
X73411347Y-92225070D01*
X73505567Y-92116336D01*
X73565338Y-91985459D01*
X73585023Y-91918420D01*
X73585024Y-91918416D01*
X73605500Y-91776000D01*
X73605500Y-91624500D01*
X73625185Y-91557461D01*
X73677989Y-91511706D01*
X73729500Y-91500500D01*
X76220234Y-91500500D01*
X76287273Y-91520185D01*
X76289125Y-91521398D01*
X76420814Y-91609390D01*
X76420827Y-91609397D01*
X76566498Y-91669735D01*
X76566503Y-91669737D01*
X76721153Y-91700499D01*
X76721156Y-91700500D01*
X76721158Y-91700500D01*
X76878844Y-91700500D01*
X76878845Y-91700499D01*
X77033497Y-91669737D01*
X77179179Y-91609394D01*
X77310289Y-91521789D01*
X77421789Y-91410289D01*
X77509394Y-91279179D01*
X77569737Y-91133497D01*
X77600500Y-90978842D01*
X77600500Y-90821158D01*
X77600500Y-90821155D01*
X77600499Y-90821153D01*
X77590221Y-90769481D01*
X77569737Y-90666503D01*
X77562686Y-90649480D01*
X77509397Y-90520827D01*
X77509390Y-90520814D01*
X77421789Y-90389711D01*
X77421786Y-90389707D01*
X77310292Y-90278213D01*
X77310288Y-90278210D01*
X77179185Y-90190609D01*
X77179172Y-90190602D01*
X77033501Y-90130264D01*
X77033489Y-90130261D01*
X76878845Y-90099500D01*
X76878842Y-90099500D01*
X76721158Y-90099500D01*
X76721155Y-90099500D01*
X76566510Y-90130261D01*
X76566498Y-90130264D01*
X76420827Y-90190602D01*
X76420814Y-90190609D01*
X76289125Y-90278602D01*
X76222447Y-90299480D01*
X76220234Y-90299500D01*
X73729500Y-90299500D01*
X73662461Y-90279815D01*
X73616706Y-90227011D01*
X73605500Y-90175500D01*
X73605500Y-87184638D01*
X73604455Y-87157779D01*
X73621518Y-87090025D01*
X73672503Y-87042251D01*
X73741223Y-87029627D01*
X73805859Y-87056159D01*
X73816042Y-87065277D01*
X74115139Y-87364374D01*
X74115149Y-87364385D01*
X74119479Y-87368715D01*
X74119480Y-87368716D01*
X74231284Y-87480520D01*
X74307521Y-87524535D01*
X74368215Y-87559577D01*
X74520943Y-87600501D01*
X74520946Y-87600501D01*
X74686653Y-87600501D01*
X74686669Y-87600500D01*
X77920234Y-87600500D01*
X77987273Y-87620185D01*
X77989125Y-87621398D01*
X78120814Y-87709390D01*
X78120827Y-87709397D01*
X78218853Y-87750000D01*
X78266503Y-87769737D01*
X78352958Y-87786934D01*
X78421153Y-87800499D01*
X78421156Y-87800500D01*
X78421158Y-87800500D01*
X78578844Y-87800500D01*
X78578845Y-87800499D01*
X78733497Y-87769737D01*
X78879179Y-87709394D01*
X79010289Y-87621789D01*
X79010307Y-87621770D01*
X79012517Y-87619958D01*
X79013925Y-87619359D01*
X79015354Y-87618405D01*
X79015534Y-87618675D01*
X79076822Y-87592633D01*
X79145692Y-87604412D01*
X79178881Y-87628116D01*
X80465425Y-88914660D01*
X80498910Y-88975983D01*
X80499361Y-88978149D01*
X80530261Y-89133491D01*
X80530264Y-89133501D01*
X80590602Y-89279172D01*
X80590609Y-89279185D01*
X80678210Y-89410288D01*
X80678213Y-89410292D01*
X80789707Y-89521786D01*
X80789711Y-89521789D01*
X80920814Y-89609390D01*
X80920827Y-89609397D01*
X81066498Y-89669735D01*
X81066503Y-89669737D01*
X81221153Y-89700499D01*
X81221156Y-89700500D01*
X81221158Y-89700500D01*
X81378844Y-89700500D01*
X81378845Y-89700499D01*
X81533497Y-89669737D01*
X81679179Y-89609394D01*
X81810289Y-89521789D01*
X81921789Y-89410289D01*
X82009394Y-89279179D01*
X82069737Y-89133497D01*
X82100500Y-88978842D01*
X82100500Y-88821158D01*
X82100500Y-88821155D01*
X82100499Y-88821153D01*
X82094823Y-88792617D01*
X82069737Y-88666503D01*
X82062855Y-88649888D01*
X82009397Y-88520827D01*
X82009390Y-88520814D01*
X81921789Y-88389711D01*
X81921786Y-88389707D01*
X81810292Y-88278213D01*
X81810288Y-88278210D01*
X81679185Y-88190609D01*
X81679172Y-88190602D01*
X81533501Y-88130264D01*
X81533491Y-88130261D01*
X81378151Y-88099362D01*
X81316241Y-88066977D01*
X81314662Y-88065426D01*
X77987590Y-84738355D01*
X77987588Y-84738352D01*
X77868717Y-84619481D01*
X77868716Y-84619480D01*
X77781904Y-84569360D01*
X77781904Y-84569359D01*
X77781900Y-84569358D01*
X77731785Y-84540423D01*
X77579057Y-84499499D01*
X77420943Y-84499499D01*
X77413347Y-84499499D01*
X77413331Y-84499500D01*
X74779766Y-84499500D01*
X74712727Y-84479815D01*
X74710875Y-84478602D01*
X74579185Y-84390609D01*
X74579172Y-84390602D01*
X74433501Y-84330264D01*
X74433489Y-84330261D01*
X74278845Y-84299500D01*
X74278842Y-84299500D01*
X74121158Y-84299500D01*
X74121155Y-84299500D01*
X73966510Y-84330261D01*
X73966498Y-84330264D01*
X73820827Y-84390602D01*
X73820814Y-84390609D01*
X73689711Y-84478210D01*
X73689707Y-84478213D01*
X73578213Y-84589707D01*
X73578210Y-84589711D01*
X73490609Y-84720814D01*
X73490602Y-84720827D01*
X73430264Y-84866498D01*
X73430261Y-84866508D01*
X73398545Y-85025951D01*
X73366160Y-85087862D01*
X73305444Y-85122436D01*
X73301122Y-85123376D01*
X73266505Y-85130262D01*
X73266498Y-85130264D01*
X73120827Y-85190602D01*
X73120814Y-85190609D01*
X72989711Y-85278210D01*
X72989707Y-85278213D01*
X72878213Y-85389707D01*
X72878210Y-85389711D01*
X72790609Y-85520814D01*
X72790602Y-85520827D01*
X72730264Y-85666498D01*
X72728494Y-85672335D01*
X72726230Y-85671648D01*
X72698663Y-85724285D01*
X72637930Y-85758828D01*
X72568162Y-85755053D01*
X72516798Y-85720519D01*
X71614808Y-84705781D01*
X71614803Y-84705776D01*
X71614793Y-84705765D01*
X71565590Y-84657488D01*
X71565589Y-84657487D01*
X71539974Y-84635574D01*
X71539962Y-84635565D01*
X71539955Y-84635559D01*
X71484652Y-84594433D01*
X71366390Y-84540423D01*
X71353778Y-84534663D01*
X71286733Y-84514976D01*
X71215037Y-84504668D01*
X71144316Y-84494500D01*
X66724500Y-84494500D01*
X66724491Y-84494500D01*
X66724490Y-84494501D01*
X66617049Y-84506052D01*
X66617037Y-84506054D01*
X66565527Y-84517260D01*
X66463002Y-84551383D01*
X66462996Y-84551386D01*
X66341962Y-84629171D01*
X66341951Y-84629179D01*
X66289159Y-84674923D01*
X66194933Y-84783664D01*
X66194930Y-84783668D01*
X66135162Y-84914539D01*
X66120272Y-84965246D01*
X66082496Y-85024023D01*
X66018940Y-85053046D01*
X65949781Y-85043101D01*
X65896979Y-84997345D01*
X65883888Y-84967983D01*
X65883290Y-84968183D01*
X65848116Y-84862502D01*
X65848113Y-84862496D01*
X65823745Y-84824579D01*
X65770325Y-84741457D01*
X65767637Y-84738355D01*
X65724576Y-84688659D01*
X65724572Y-84688656D01*
X65724570Y-84688653D01*
X65615836Y-84594433D01*
X65615833Y-84594431D01*
X65615831Y-84594430D01*
X65484965Y-84534664D01*
X65484960Y-84534662D01*
X65484959Y-84534662D01*
X65417920Y-84514977D01*
X65417922Y-84514977D01*
X65417917Y-84514976D01*
X65346221Y-84504668D01*
X65275500Y-84494500D01*
X65224000Y-84494500D01*
X65223999Y-84494500D01*
X65188029Y-84497072D01*
X65152058Y-84499645D01*
X65134590Y-84502156D01*
X65117122Y-84504668D01*
X65046695Y-84519986D01*
X65025471Y-84529674D01*
X65019428Y-84532434D01*
X64962515Y-84551379D01*
X64924670Y-84575697D01*
X64921763Y-84577024D01*
X64916591Y-84579386D01*
X64916587Y-84579386D01*
X64915825Y-84579734D01*
X64915793Y-84579752D01*
X64908322Y-84584554D01*
X64908313Y-84584560D01*
X64869052Y-84609786D01*
X64868939Y-84609865D01*
X64856979Y-84617553D01*
X64851816Y-84622025D01*
X64846929Y-84625496D01*
X64846080Y-84625788D01*
X64842201Y-84628692D01*
X64841488Y-84629150D01*
X64841472Y-84629162D01*
X64834277Y-84635396D01*
X64834262Y-84635402D01*
X64802791Y-84662676D01*
X64795521Y-84669104D01*
X64795458Y-84669032D01*
X64788618Y-84674960D01*
X64787691Y-84676029D01*
X64787176Y-84676485D01*
X64775579Y-84688080D01*
X64748284Y-84711732D01*
X64748276Y-84711741D01*
X64728724Y-84742158D01*
X64718134Y-84756304D01*
X64694443Y-84783647D01*
X64694442Y-84783649D01*
X64679432Y-84816512D01*
X64673255Y-84828313D01*
X64672112Y-84830236D01*
X64670484Y-84832770D01*
X64670075Y-84833665D01*
X64670055Y-84833699D01*
X64659209Y-84857453D01*
X64659204Y-84857466D01*
X64646675Y-84884893D01*
X64646641Y-84884977D01*
X64641435Y-84896379D01*
X64639566Y-84902739D01*
X64637416Y-84908140D01*
X64636839Y-84908876D01*
X64635028Y-84913733D01*
X64634669Y-84914518D01*
X64634666Y-84914527D01*
X64631988Y-84923642D01*
X64631989Y-84923643D01*
X64626262Y-84943145D01*
X64625101Y-84947101D01*
X64625098Y-84947111D01*
X64614976Y-84981577D01*
X64614967Y-84981619D01*
X64614847Y-84982454D01*
X64611091Y-84999714D01*
X64600910Y-85034388D01*
X64600909Y-85034396D01*
X64600908Y-85070561D01*
X64599647Y-85088193D01*
X64594500Y-85124000D01*
X64594500Y-85124004D01*
X64594500Y-90664527D01*
X64574815Y-90731566D01*
X64522011Y-90777321D01*
X64452853Y-90787265D01*
X64389297Y-90758240D01*
X64374650Y-90743196D01*
X64371788Y-90739709D01*
X64260292Y-90628213D01*
X64260288Y-90628210D01*
X64129185Y-90540609D01*
X64129172Y-90540602D01*
X63983501Y-90480264D01*
X63983489Y-90480261D01*
X63828845Y-90449500D01*
X63828842Y-90449500D01*
X63671158Y-90449500D01*
X63671155Y-90449500D01*
X63516510Y-90480261D01*
X63516498Y-90480264D01*
X63370827Y-90540602D01*
X63370814Y-90540609D01*
X63239125Y-90628602D01*
X63172447Y-90649480D01*
X63170234Y-90649500D01*
X62086669Y-90649500D01*
X62086653Y-90649499D01*
X62079057Y-90649499D01*
X61920943Y-90649499D01*
X61841010Y-90670917D01*
X61768216Y-90690422D01*
X61733862Y-90710257D01*
X61733861Y-90710256D01*
X61631287Y-90769477D01*
X61631282Y-90769481D01*
X61519478Y-90881286D01*
X60103563Y-92297200D01*
X60042240Y-92330685D01*
X59977564Y-92327450D01*
X59851370Y-92286447D01*
X59618097Y-92249500D01*
X59618092Y-92249500D01*
X59381908Y-92249500D01*
X59381903Y-92249500D01*
X59148631Y-92286446D01*
X58924003Y-92359433D01*
X58713566Y-92466657D01*
X58627071Y-92529500D01*
X58522490Y-92605483D01*
X58522488Y-92605485D01*
X58522487Y-92605485D01*
X58355485Y-92772487D01*
X58355485Y-92772488D01*
X58355483Y-92772490D01*
X58320364Y-92820827D01*
X58216657Y-92963566D01*
X58109433Y-93174003D01*
X58036446Y-93398631D01*
X57999500Y-93631902D01*
X54500500Y-93631902D01*
X54463553Y-93398631D01*
X54399856Y-93202593D01*
X54390568Y-93174008D01*
X54390566Y-93174005D01*
X54390566Y-93174003D01*
X54295528Y-92987482D01*
X54283343Y-92963567D01*
X54144517Y-92772490D01*
X53977510Y-92605483D01*
X53786433Y-92466657D01*
X53715006Y-92430263D01*
X53575996Y-92359433D01*
X53351368Y-92286446D01*
X53118097Y-92249500D01*
X53118092Y-92249500D01*
X52881908Y-92249500D01*
X52881903Y-92249500D01*
X52648631Y-92286446D01*
X52424003Y-92359433D01*
X52213566Y-92466657D01*
X52127071Y-92529500D01*
X52022490Y-92605483D01*
X52022488Y-92605485D01*
X52022487Y-92605485D01*
X51855485Y-92772487D01*
X51855485Y-92772488D01*
X51855483Y-92772490D01*
X51820364Y-92820827D01*
X51716657Y-92963566D01*
X51609433Y-93174003D01*
X51536446Y-93398631D01*
X51499500Y-93631902D01*
X50500500Y-93631902D01*
X50500500Y-89131947D01*
X51500000Y-89131947D01*
X51500000Y-89368052D01*
X51536934Y-89601247D01*
X51609897Y-89825802D01*
X51717087Y-90036174D01*
X51777338Y-90119104D01*
X51777340Y-90119105D01*
X52476212Y-89420233D01*
X52487482Y-89462292D01*
X52559890Y-89587708D01*
X52662292Y-89690110D01*
X52787708Y-89762518D01*
X52829765Y-89773787D01*
X52130893Y-90472658D01*
X52213828Y-90532914D01*
X52424197Y-90640102D01*
X52648752Y-90713065D01*
X52648751Y-90713065D01*
X52881948Y-90750000D01*
X53118052Y-90750000D01*
X53351247Y-90713065D01*
X53575802Y-90640102D01*
X53786163Y-90532918D01*
X53786169Y-90532914D01*
X53869104Y-90472658D01*
X53869105Y-90472658D01*
X53170233Y-89773787D01*
X53212292Y-89762518D01*
X53337708Y-89690110D01*
X53440110Y-89587708D01*
X53512518Y-89462292D01*
X53523787Y-89420233D01*
X54222658Y-90119105D01*
X54222658Y-90119104D01*
X54282914Y-90036169D01*
X54282918Y-90036163D01*
X54390102Y-89825802D01*
X54463065Y-89601247D01*
X54500000Y-89368052D01*
X54500000Y-89131947D01*
X58000000Y-89131947D01*
X58000000Y-89368052D01*
X58036934Y-89601247D01*
X58109897Y-89825802D01*
X58217087Y-90036174D01*
X58277338Y-90119104D01*
X58277340Y-90119105D01*
X58976212Y-89420233D01*
X58987482Y-89462292D01*
X59059890Y-89587708D01*
X59162292Y-89690110D01*
X59287708Y-89762518D01*
X59329765Y-89773787D01*
X58630893Y-90472658D01*
X58713828Y-90532914D01*
X58924197Y-90640102D01*
X59148752Y-90713065D01*
X59148751Y-90713065D01*
X59381948Y-90750000D01*
X59618052Y-90750000D01*
X59851247Y-90713065D01*
X60075802Y-90640102D01*
X60286163Y-90532918D01*
X60286169Y-90532914D01*
X60369104Y-90472658D01*
X60369105Y-90472658D01*
X59670233Y-89773787D01*
X59712292Y-89762518D01*
X59837708Y-89690110D01*
X59940110Y-89587708D01*
X60012518Y-89462292D01*
X60023787Y-89420233D01*
X60722658Y-90119105D01*
X60722658Y-90119104D01*
X60782914Y-90036169D01*
X60782918Y-90036163D01*
X60890102Y-89825802D01*
X60963065Y-89601247D01*
X61000000Y-89368052D01*
X61000000Y-89131947D01*
X60963065Y-88898752D01*
X60890102Y-88674197D01*
X60782914Y-88463828D01*
X60722658Y-88380894D01*
X60722658Y-88380893D01*
X60023787Y-89079765D01*
X60012518Y-89037708D01*
X59940110Y-88912292D01*
X59837708Y-88809890D01*
X59712292Y-88737482D01*
X59670234Y-88726212D01*
X60369105Y-88027340D01*
X60369104Y-88027338D01*
X60286174Y-87967087D01*
X60075802Y-87859897D01*
X59851247Y-87786934D01*
X59851248Y-87786934D01*
X59618052Y-87750000D01*
X59381948Y-87750000D01*
X59148752Y-87786934D01*
X58924197Y-87859897D01*
X58713830Y-87967084D01*
X58630894Y-88027340D01*
X59329766Y-88726212D01*
X59287708Y-88737482D01*
X59162292Y-88809890D01*
X59059890Y-88912292D01*
X58987482Y-89037708D01*
X58976212Y-89079766D01*
X58277340Y-88380894D01*
X58217084Y-88463830D01*
X58109897Y-88674197D01*
X58036934Y-88898752D01*
X58000000Y-89131947D01*
X54500000Y-89131947D01*
X54463065Y-88898752D01*
X54390102Y-88674197D01*
X54282914Y-88463828D01*
X54222658Y-88380894D01*
X54222658Y-88380893D01*
X53523787Y-89079765D01*
X53512518Y-89037708D01*
X53440110Y-88912292D01*
X53337708Y-88809890D01*
X53212292Y-88737482D01*
X53170234Y-88726212D01*
X53869105Y-88027340D01*
X53869104Y-88027339D01*
X53786174Y-87967087D01*
X53575802Y-87859897D01*
X53351247Y-87786934D01*
X53351248Y-87786934D01*
X53118052Y-87750000D01*
X52881948Y-87750000D01*
X52648752Y-87786934D01*
X52424197Y-87859897D01*
X52213830Y-87967084D01*
X52130894Y-88027340D01*
X52829766Y-88726212D01*
X52787708Y-88737482D01*
X52662292Y-88809890D01*
X52559890Y-88912292D01*
X52487482Y-89037708D01*
X52476212Y-89079766D01*
X51777340Y-88380894D01*
X51717084Y-88463830D01*
X51609897Y-88674197D01*
X51536934Y-88898752D01*
X51500000Y-89131947D01*
X50500500Y-89131947D01*
X50500500Y-84267648D01*
X53449500Y-84267648D01*
X53449500Y-84472351D01*
X53481522Y-84674534D01*
X53544781Y-84869223D01*
X53582447Y-84943145D01*
X53633377Y-85043101D01*
X53637715Y-85051613D01*
X53758028Y-85217213D01*
X53902786Y-85361971D01*
X54057749Y-85474556D01*
X54068390Y-85482287D01*
X54184607Y-85541503D01*
X54250776Y-85575218D01*
X54250778Y-85575218D01*
X54250781Y-85575220D01*
X54355137Y-85609127D01*
X54445465Y-85638477D01*
X54543113Y-85653943D01*
X54647648Y-85670500D01*
X54647649Y-85670500D01*
X54852351Y-85670500D01*
X54852352Y-85670500D01*
X55054534Y-85638477D01*
X55249219Y-85575220D01*
X55431610Y-85482287D01*
X55559031Y-85389711D01*
X55597213Y-85361971D01*
X55597215Y-85361968D01*
X55597219Y-85361966D01*
X55741966Y-85217219D01*
X55741968Y-85217215D01*
X55741971Y-85217213D01*
X55835705Y-85088197D01*
X55862287Y-85051610D01*
X55955220Y-84869219D01*
X56018477Y-84674534D01*
X56050500Y-84472352D01*
X56050500Y-84267648D01*
X56018477Y-84065466D01*
X56013614Y-84050500D01*
X55984011Y-83959390D01*
X55955220Y-83870781D01*
X55955218Y-83870778D01*
X55955218Y-83870776D01*
X55898921Y-83760288D01*
X55862287Y-83688390D01*
X55854556Y-83677749D01*
X55741971Y-83522786D01*
X55597213Y-83378028D01*
X55431613Y-83257715D01*
X55431612Y-83257714D01*
X55431610Y-83257713D01*
X55353102Y-83217711D01*
X55249223Y-83164781D01*
X55054534Y-83101522D01*
X54879995Y-83073878D01*
X54852352Y-83069500D01*
X54647648Y-83069500D01*
X54623329Y-83073351D01*
X54445465Y-83101522D01*
X54250776Y-83164781D01*
X54068386Y-83257715D01*
X53902786Y-83378028D01*
X53758028Y-83522786D01*
X53637715Y-83688386D01*
X53544781Y-83870776D01*
X53481522Y-84065465D01*
X53449500Y-84267648D01*
X50500500Y-84267648D01*
X50500500Y-82221153D01*
X56599500Y-82221153D01*
X56599500Y-82378846D01*
X56630261Y-82533489D01*
X56630264Y-82533501D01*
X56690602Y-82679172D01*
X56690609Y-82679185D01*
X56778210Y-82810288D01*
X56778213Y-82810292D01*
X56889707Y-82921786D01*
X56889711Y-82921789D01*
X57020814Y-83009390D01*
X57020827Y-83009397D01*
X57165931Y-83069500D01*
X57166503Y-83069737D01*
X57321153Y-83100499D01*
X57321156Y-83100500D01*
X57321158Y-83100500D01*
X57478844Y-83100500D01*
X57478845Y-83100499D01*
X57633497Y-83069737D01*
X57779179Y-83009394D01*
X57910289Y-82921789D01*
X57910292Y-82921786D01*
X57920260Y-82911819D01*
X57981583Y-82878334D01*
X58007941Y-82875500D01*
X58674903Y-82875500D01*
X58741942Y-82895185D01*
X58762584Y-82911819D01*
X62665425Y-86814660D01*
X62698910Y-86875983D01*
X62699361Y-86878149D01*
X62730261Y-87033491D01*
X62730264Y-87033501D01*
X62790602Y-87179172D01*
X62790609Y-87179185D01*
X62878210Y-87310288D01*
X62878213Y-87310292D01*
X62989707Y-87421786D01*
X62989711Y-87421789D01*
X63120814Y-87509390D01*
X63120827Y-87509397D01*
X63241974Y-87559577D01*
X63266503Y-87569737D01*
X63421153Y-87600499D01*
X63421156Y-87600500D01*
X63421158Y-87600500D01*
X63578844Y-87600500D01*
X63578845Y-87600499D01*
X63733497Y-87569737D01*
X63879179Y-87509394D01*
X64010289Y-87421789D01*
X64121789Y-87310289D01*
X64209394Y-87179179D01*
X64269737Y-87033497D01*
X64300500Y-86878842D01*
X64300500Y-86721158D01*
X64300500Y-86721155D01*
X64300499Y-86721153D01*
X64269738Y-86566510D01*
X64269737Y-86566503D01*
X64269735Y-86566498D01*
X64209397Y-86420827D01*
X64209390Y-86420814D01*
X64121789Y-86289711D01*
X64121786Y-86289707D01*
X64010292Y-86178213D01*
X64010288Y-86178210D01*
X63879185Y-86090609D01*
X63879172Y-86090602D01*
X63733501Y-86030264D01*
X63733491Y-86030261D01*
X63578149Y-85999361D01*
X63516238Y-85966976D01*
X63514660Y-85965425D01*
X59368718Y-81819483D01*
X59368716Y-81819481D01*
X59231785Y-81740423D01*
X59079057Y-81699499D01*
X58920943Y-81699499D01*
X58843406Y-81720275D01*
X58811313Y-81724500D01*
X58007941Y-81724500D01*
X57940902Y-81704815D01*
X57920260Y-81688181D01*
X57910292Y-81678213D01*
X57910288Y-81678210D01*
X57779185Y-81590609D01*
X57779172Y-81590602D01*
X57633501Y-81530264D01*
X57633489Y-81530261D01*
X57478845Y-81499500D01*
X57478842Y-81499500D01*
X57321158Y-81499500D01*
X57321155Y-81499500D01*
X57166510Y-81530261D01*
X57166498Y-81530264D01*
X57020827Y-81590602D01*
X57020814Y-81590609D01*
X56889711Y-81678210D01*
X56889707Y-81678213D01*
X56778213Y-81789707D01*
X56778210Y-81789711D01*
X56690609Y-81920814D01*
X56690602Y-81920827D01*
X56630264Y-82066498D01*
X56630261Y-82066510D01*
X56599500Y-82221153D01*
X50500500Y-82221153D01*
X50500500Y-67171153D01*
X53199500Y-67171153D01*
X53199500Y-67328846D01*
X53230261Y-67483489D01*
X53230264Y-67483501D01*
X53290602Y-67629172D01*
X53290609Y-67629185D01*
X53378602Y-67760874D01*
X53399480Y-67827551D01*
X53399500Y-67829765D01*
X53399500Y-70313387D01*
X53399499Y-70313405D01*
X53399499Y-70479111D01*
X53399498Y-70479111D01*
X53399499Y-70479114D01*
X53440423Y-70631842D01*
X53462998Y-70670943D01*
X53519477Y-70768769D01*
X53519481Y-70768774D01*
X53638349Y-70887642D01*
X53638355Y-70887647D01*
X55101196Y-72350488D01*
X55134681Y-72411811D01*
X55129697Y-72481503D01*
X55116618Y-72507059D01*
X55040608Y-72620816D01*
X55040602Y-72620827D01*
X54980264Y-72766498D01*
X54980261Y-72766510D01*
X54949500Y-72921153D01*
X54949500Y-73078846D01*
X54980261Y-73233489D01*
X54980264Y-73233501D01*
X55040602Y-73379172D01*
X55040609Y-73379185D01*
X55128210Y-73510288D01*
X55128213Y-73510292D01*
X55239707Y-73621786D01*
X55239711Y-73621789D01*
X55370814Y-73709390D01*
X55370827Y-73709397D01*
X55434957Y-73735960D01*
X55516503Y-73769737D01*
X55581147Y-73782595D01*
X55671849Y-73800638D01*
X55733760Y-73833023D01*
X55735339Y-73834574D01*
X56113181Y-74212416D01*
X56146666Y-74273739D01*
X56149500Y-74300097D01*
X56149500Y-75710425D01*
X56129815Y-75777464D01*
X56077011Y-75823219D01*
X56007853Y-75833163D01*
X55944297Y-75804138D01*
X55919962Y-75775522D01*
X55892714Y-75731347D01*
X55892711Y-75731343D01*
X55768657Y-75607289D01*
X55768656Y-75607288D01*
X55619334Y-75515186D01*
X55452797Y-75460001D01*
X55452795Y-75460000D01*
X55350010Y-75449500D01*
X54149998Y-75449500D01*
X54149981Y-75449501D01*
X54047203Y-75460000D01*
X54047200Y-75460001D01*
X53880668Y-75515185D01*
X53880663Y-75515187D01*
X53731342Y-75607289D01*
X53607289Y-75731342D01*
X53515187Y-75880663D01*
X53515186Y-75880666D01*
X53460001Y-76047203D01*
X53460001Y-76047204D01*
X53460000Y-76047204D01*
X53449500Y-76149983D01*
X53449500Y-77350001D01*
X53449501Y-77350018D01*
X53460000Y-77452796D01*
X53460001Y-77452799D01*
X53501340Y-77577551D01*
X53515186Y-77619334D01*
X53607288Y-77768656D01*
X53731344Y-77892712D01*
X53880666Y-77984814D01*
X54047203Y-78039999D01*
X54149991Y-78050500D01*
X55350008Y-78050499D01*
X55452797Y-78039999D01*
X55619334Y-77984814D01*
X55768656Y-77892712D01*
X55892712Y-77768656D01*
X55984814Y-77619334D01*
X56039999Y-77452797D01*
X56040000Y-77452784D01*
X56041417Y-77446173D01*
X56043678Y-77446657D01*
X56065980Y-77391954D01*
X56123149Y-77351785D01*
X56192959Y-77348900D01*
X56233920Y-77369490D01*
X56234646Y-77368405D01*
X56370814Y-77459390D01*
X56370827Y-77459397D01*
X56499577Y-77512726D01*
X56516503Y-77519737D01*
X56671153Y-77550499D01*
X56671156Y-77550500D01*
X56671158Y-77550500D01*
X56828844Y-77550500D01*
X56828845Y-77550499D01*
X56983497Y-77519737D01*
X57129179Y-77459394D01*
X57260289Y-77371789D01*
X57371789Y-77260289D01*
X57459394Y-77129179D01*
X57519737Y-76983497D01*
X57550500Y-76828842D01*
X57550500Y-76671158D01*
X57550500Y-76671155D01*
X57550499Y-76671153D01*
X57519738Y-76516510D01*
X57519737Y-76516503D01*
X57519735Y-76516498D01*
X57459397Y-76370827D01*
X57459390Y-76370814D01*
X57371398Y-76239125D01*
X57350520Y-76172447D01*
X57350500Y-76170234D01*
X57350500Y-74899154D01*
X57370185Y-74832115D01*
X57422989Y-74786360D01*
X57492147Y-74776416D01*
X57555703Y-74805441D01*
X57562181Y-74811473D01*
X61651529Y-78900821D01*
X61683622Y-78956406D01*
X61690421Y-78981778D01*
X61690423Y-78981784D01*
X61690424Y-78981787D01*
X61690426Y-78981790D01*
X61769475Y-79118709D01*
X61769478Y-79118713D01*
X61769480Y-79118716D01*
X61881284Y-79230520D01*
X61881286Y-79230521D01*
X61881290Y-79230524D01*
X62018209Y-79309573D01*
X62018216Y-79309577D01*
X62170943Y-79350500D01*
X65913331Y-79350500D01*
X65913347Y-79350501D01*
X65920943Y-79350501D01*
X66079054Y-79350501D01*
X66079057Y-79350501D01*
X66231785Y-79309577D01*
X66281904Y-79280639D01*
X66368716Y-79230520D01*
X66480520Y-79118716D01*
X66480520Y-79118714D01*
X66490728Y-79108507D01*
X66490731Y-79108503D01*
X66563418Y-79035818D01*
X66624742Y-79002333D01*
X66651098Y-78999500D01*
X68381954Y-78999500D01*
X68448993Y-79019185D01*
X68494748Y-79071989D01*
X68503571Y-79099309D01*
X68530261Y-79233489D01*
X68530264Y-79233501D01*
X68590602Y-79379172D01*
X68590612Y-79379190D01*
X68606558Y-79403055D01*
X68627436Y-79469732D01*
X68608951Y-79537112D01*
X68591137Y-79559626D01*
X67885339Y-80265425D01*
X67824016Y-80298910D01*
X67821850Y-80299361D01*
X67666508Y-80330261D01*
X67666498Y-80330264D01*
X67520827Y-80390602D01*
X67520814Y-80390609D01*
X67389711Y-80478210D01*
X67389707Y-80478213D01*
X67278213Y-80589707D01*
X67278210Y-80589711D01*
X67190609Y-80720814D01*
X67190602Y-80720827D01*
X67130264Y-80866498D01*
X67130261Y-80866510D01*
X67099500Y-81021153D01*
X67099500Y-81178846D01*
X67130261Y-81333489D01*
X67130264Y-81333501D01*
X67190602Y-81479172D01*
X67190609Y-81479185D01*
X67278210Y-81610288D01*
X67278213Y-81610292D01*
X67389707Y-81721786D01*
X67389711Y-81721789D01*
X67520814Y-81809390D01*
X67520827Y-81809397D01*
X67666498Y-81869735D01*
X67666503Y-81869737D01*
X67821153Y-81900499D01*
X67821156Y-81900500D01*
X67821158Y-81900500D01*
X67978844Y-81900500D01*
X67978845Y-81900499D01*
X68133497Y-81869737D01*
X68279179Y-81809394D01*
X68410289Y-81721789D01*
X68521789Y-81610289D01*
X68609394Y-81479179D01*
X68669737Y-81333497D01*
X68689113Y-81236085D01*
X68700638Y-81178150D01*
X68733023Y-81116239D01*
X68734518Y-81114716D01*
X69088819Y-80760416D01*
X69150142Y-80726931D01*
X69219834Y-80731915D01*
X69275767Y-80773787D01*
X69300184Y-80839251D01*
X69300500Y-80848097D01*
X69300500Y-82383326D01*
X69280815Y-82450365D01*
X69228011Y-82496120D01*
X69223953Y-82497887D01*
X69120824Y-82540604D01*
X69120814Y-82540609D01*
X68989711Y-82628210D01*
X68989707Y-82628213D01*
X68878213Y-82739707D01*
X68878210Y-82739711D01*
X68790609Y-82870814D01*
X68790602Y-82870827D01*
X68730264Y-83016498D01*
X68730261Y-83016510D01*
X68699500Y-83171153D01*
X68699500Y-83328846D01*
X68730261Y-83483489D01*
X68730264Y-83483501D01*
X68790602Y-83629172D01*
X68790609Y-83629185D01*
X68878210Y-83760288D01*
X68878213Y-83760292D01*
X68989707Y-83871786D01*
X68989711Y-83871789D01*
X69120814Y-83959390D01*
X69120827Y-83959397D01*
X69266498Y-84019735D01*
X69266503Y-84019737D01*
X69421153Y-84050499D01*
X69421156Y-84050500D01*
X69421158Y-84050500D01*
X69578844Y-84050500D01*
X69578845Y-84050499D01*
X69733497Y-84019737D01*
X69879179Y-83959394D01*
X70010289Y-83871789D01*
X70121789Y-83760289D01*
X70209394Y-83629179D01*
X70269737Y-83483497D01*
X70300500Y-83328842D01*
X70300500Y-83328840D01*
X70300637Y-83328152D01*
X70333021Y-83266241D01*
X70334495Y-83264740D01*
X70381520Y-83217716D01*
X70460577Y-83080784D01*
X70501501Y-82928057D01*
X70501501Y-82769942D01*
X70501501Y-82762347D01*
X70501500Y-82762329D01*
X70501500Y-81821153D01*
X71199500Y-81821153D01*
X71199500Y-81978846D01*
X71230261Y-82133489D01*
X71230264Y-82133501D01*
X71290602Y-82279172D01*
X71290609Y-82279185D01*
X71378210Y-82410288D01*
X71378213Y-82410292D01*
X71489707Y-82521786D01*
X71489711Y-82521789D01*
X71620814Y-82609390D01*
X71620827Y-82609397D01*
X71666254Y-82628213D01*
X71766503Y-82669737D01*
X71921153Y-82700499D01*
X71921156Y-82700500D01*
X71921158Y-82700500D01*
X72078844Y-82700500D01*
X72078845Y-82700499D01*
X72233497Y-82669737D01*
X72379179Y-82609394D01*
X72510289Y-82521789D01*
X72616595Y-82415482D01*
X72621231Y-82411081D01*
X72630938Y-82402329D01*
X72668716Y-82380520D01*
X72780520Y-82268716D01*
X72780521Y-82268713D01*
X74658506Y-80390728D01*
X74658511Y-80390724D01*
X74668714Y-80380520D01*
X74668716Y-80380520D01*
X74780520Y-80268716D01*
X74831440Y-80180520D01*
X74859577Y-80131785D01*
X74900500Y-79979057D01*
X74900500Y-79820943D01*
X74900500Y-77579765D01*
X74920185Y-77512726D01*
X74921398Y-77510874D01*
X75009390Y-77379185D01*
X75009390Y-77379184D01*
X75009394Y-77379179D01*
X75069737Y-77233497D01*
X75100500Y-77078842D01*
X75100500Y-76921158D01*
X75100500Y-76921155D01*
X75100499Y-76921153D01*
X75069738Y-76766510D01*
X75069737Y-76766503D01*
X75030242Y-76671153D01*
X75009397Y-76620827D01*
X75009390Y-76620814D01*
X74921789Y-76489711D01*
X74921786Y-76489707D01*
X74810292Y-76378213D01*
X74810288Y-76378210D01*
X74679185Y-76290609D01*
X74679172Y-76290602D01*
X74533501Y-76230264D01*
X74533489Y-76230261D01*
X74378845Y-76199500D01*
X74378842Y-76199500D01*
X74221158Y-76199500D01*
X74221155Y-76199500D01*
X74066510Y-76230261D01*
X74066498Y-76230264D01*
X73920827Y-76290602D01*
X73920814Y-76290609D01*
X73789711Y-76378210D01*
X73789707Y-76378213D01*
X73678213Y-76489707D01*
X73678210Y-76489711D01*
X73590609Y-76620814D01*
X73590602Y-76620827D01*
X73530264Y-76766498D01*
X73530261Y-76766510D01*
X73499500Y-76921153D01*
X73499500Y-77078846D01*
X73530261Y-77233489D01*
X73530264Y-77233501D01*
X73590602Y-77379172D01*
X73590609Y-77379185D01*
X73678602Y-77510874D01*
X73699480Y-77577551D01*
X73699500Y-77579765D01*
X73699500Y-79599902D01*
X73679815Y-79666941D01*
X73663181Y-79687583D01*
X72269524Y-81081239D01*
X72208201Y-81114724D01*
X72157653Y-81115176D01*
X72155380Y-81114724D01*
X72140682Y-81111800D01*
X72078842Y-81099500D01*
X71921158Y-81099500D01*
X71921155Y-81099500D01*
X71766510Y-81130261D01*
X71766498Y-81130264D01*
X71620827Y-81190602D01*
X71620814Y-81190609D01*
X71489711Y-81278210D01*
X71489707Y-81278213D01*
X71378213Y-81389707D01*
X71378210Y-81389711D01*
X71290609Y-81520814D01*
X71290602Y-81520827D01*
X71230264Y-81666498D01*
X71230261Y-81666510D01*
X71199500Y-81821153D01*
X70501500Y-81821153D01*
X70501500Y-78840117D01*
X70501501Y-78840104D01*
X70501501Y-78672002D01*
X70501501Y-78672000D01*
X70460577Y-78519272D01*
X70381520Y-78382341D01*
X70029464Y-78030285D01*
X70029463Y-78030284D01*
X69917659Y-77918480D01*
X69830847Y-77868360D01*
X69830847Y-77868359D01*
X69830843Y-77868358D01*
X69780728Y-77839423D01*
X69628000Y-77798499D01*
X69469886Y-77798499D01*
X69462290Y-77798499D01*
X69462274Y-77798500D01*
X66437669Y-77798500D01*
X66437653Y-77798499D01*
X66430057Y-77798499D01*
X66271943Y-77798499D01*
X66187380Y-77821158D01*
X66119210Y-77839424D01*
X66119209Y-77839425D01*
X66069096Y-77868359D01*
X66069095Y-77868360D01*
X66026919Y-77892710D01*
X65982285Y-77918479D01*
X65982282Y-77918481D01*
X65787583Y-78113181D01*
X65760655Y-78127884D01*
X65734837Y-78144477D01*
X65728636Y-78145368D01*
X65726260Y-78146666D01*
X65699902Y-78149500D01*
X65617649Y-78149500D01*
X65550610Y-78129815D01*
X65504855Y-78077011D01*
X65494911Y-78007853D01*
X65496031Y-78001310D01*
X65500500Y-77978841D01*
X65500500Y-77821155D01*
X65500499Y-77821153D01*
X65490057Y-77768657D01*
X65469737Y-77666503D01*
X65450198Y-77619331D01*
X65409397Y-77520827D01*
X65409390Y-77520814D01*
X65321789Y-77389711D01*
X65321786Y-77389707D01*
X65210292Y-77278213D01*
X65210288Y-77278210D01*
X65079185Y-77190609D01*
X65079172Y-77190602D01*
X64933501Y-77130264D01*
X64933491Y-77130261D01*
X64778149Y-77099361D01*
X64716238Y-77066976D01*
X64714660Y-77065425D01*
X61385195Y-73735960D01*
X61351710Y-73674637D01*
X61356694Y-73604945D01*
X61398566Y-73549012D01*
X61448685Y-73526662D01*
X61463056Y-73523802D01*
X61483497Y-73519737D01*
X61629179Y-73459394D01*
X61760289Y-73371789D01*
X61871789Y-73260289D01*
X61959394Y-73129179D01*
X62019737Y-72983497D01*
X62050500Y-72828842D01*
X62050500Y-72671158D01*
X62050500Y-72671155D01*
X62050499Y-72671153D01*
X62019738Y-72516510D01*
X62019737Y-72516503D01*
X62015825Y-72507059D01*
X61959397Y-72370827D01*
X61959390Y-72370814D01*
X61871789Y-72239711D01*
X61871786Y-72239707D01*
X61760292Y-72128213D01*
X61760288Y-72128210D01*
X61629185Y-72040609D01*
X61629172Y-72040602D01*
X61483501Y-71980264D01*
X61483489Y-71980261D01*
X61328845Y-71949500D01*
X61328842Y-71949500D01*
X61171158Y-71949500D01*
X61147771Y-71954151D01*
X61134050Y-71956881D01*
X61064458Y-71950652D01*
X61022179Y-71922944D01*
X59636819Y-70537584D01*
X59603334Y-70476261D01*
X59600500Y-70449903D01*
X59600500Y-67139116D01*
X59600501Y-67139103D01*
X59600501Y-66971002D01*
X59600501Y-66971000D01*
X59559577Y-66818272D01*
X59517114Y-66744724D01*
X59480520Y-66681341D01*
X59368716Y-66569537D01*
X59368715Y-66569536D01*
X59364385Y-66565206D01*
X59364374Y-66565196D01*
X58736533Y-65937355D01*
X58736531Y-65937352D01*
X58617660Y-65818481D01*
X58617659Y-65818480D01*
X58530847Y-65768360D01*
X58530847Y-65768359D01*
X58530843Y-65768358D01*
X58480728Y-65739423D01*
X58328000Y-65698499D01*
X58169886Y-65698499D01*
X58162290Y-65698499D01*
X58162274Y-65698500D01*
X57837727Y-65698500D01*
X57837711Y-65698499D01*
X57830115Y-65698499D01*
X57672000Y-65698499D01*
X57595636Y-65718961D01*
X57519271Y-65739423D01*
X57519266Y-65739426D01*
X57382347Y-65818475D01*
X57382339Y-65818481D01*
X55633351Y-67567469D01*
X55633340Y-67567480D01*
X55631286Y-67569535D01*
X55631284Y-67569537D01*
X55519480Y-67681341D01*
X55508419Y-67700500D01*
X55440423Y-67818272D01*
X55399499Y-67971000D01*
X55399499Y-67971002D01*
X55399499Y-68139103D01*
X55399500Y-68139116D01*
X55399500Y-68920234D01*
X55379815Y-68987273D01*
X55378602Y-68989125D01*
X55290609Y-69120814D01*
X55290602Y-69120827D01*
X55230264Y-69266498D01*
X55230261Y-69266510D01*
X55199500Y-69421153D01*
X55199500Y-69578846D01*
X55230261Y-69733489D01*
X55230264Y-69733501D01*
X55290602Y-69879172D01*
X55290609Y-69879185D01*
X55378210Y-70010288D01*
X55378213Y-70010292D01*
X55489707Y-70121786D01*
X55489711Y-70121789D01*
X55620814Y-70209390D01*
X55620827Y-70209397D01*
X55766498Y-70269735D01*
X55766503Y-70269737D01*
X55921153Y-70300499D01*
X55921156Y-70300500D01*
X55921158Y-70300500D01*
X56078844Y-70300500D01*
X56078845Y-70300499D01*
X56233497Y-70269737D01*
X56379179Y-70209394D01*
X56510289Y-70121789D01*
X56621789Y-70010289D01*
X56709394Y-69879179D01*
X56769737Y-69733497D01*
X56800500Y-69578842D01*
X56800500Y-69421158D01*
X56800500Y-69421155D01*
X56800499Y-69421153D01*
X56769738Y-69266510D01*
X56769737Y-69266503D01*
X56769735Y-69266498D01*
X56709397Y-69120827D01*
X56709390Y-69120814D01*
X56621398Y-68989125D01*
X56600520Y-68922447D01*
X56600500Y-68920234D01*
X56600500Y-68350154D01*
X56620185Y-68283115D01*
X56636819Y-68262473D01*
X57187819Y-67711473D01*
X57249142Y-67677988D01*
X57318834Y-67682972D01*
X57374767Y-67724844D01*
X57399184Y-67790308D01*
X57399500Y-67799154D01*
X57399500Y-71113330D01*
X57399499Y-71113348D01*
X57399499Y-71279054D01*
X57399498Y-71279054D01*
X57440423Y-71431785D01*
X57469358Y-71481900D01*
X57469359Y-71481904D01*
X57469360Y-71481904D01*
X57519479Y-71568714D01*
X57519481Y-71568717D01*
X57638349Y-71687585D01*
X57638355Y-71687590D01*
X63865425Y-77914660D01*
X63874486Y-77931254D01*
X63887619Y-77944864D01*
X63898026Y-77974364D01*
X63898910Y-77975983D01*
X63899361Y-77978148D01*
X63903968Y-78001307D01*
X63897742Y-78070899D01*
X63854879Y-78126076D01*
X63788990Y-78149322D01*
X63782351Y-78149500D01*
X62650040Y-78149500D01*
X62583001Y-78129815D01*
X62562359Y-78113181D01*
X54636819Y-70187641D01*
X54603334Y-70126318D01*
X54600500Y-70099960D01*
X54600500Y-67829765D01*
X54620185Y-67762726D01*
X54621398Y-67760874D01*
X54709390Y-67629185D01*
X54709390Y-67629184D01*
X54709394Y-67629179D01*
X54769737Y-67483497D01*
X54800500Y-67328842D01*
X54800500Y-67171158D01*
X54800500Y-67171155D01*
X54800499Y-67171153D01*
X54769738Y-67016510D01*
X54769737Y-67016503D01*
X54732304Y-66926131D01*
X54709397Y-66870827D01*
X54709390Y-66870814D01*
X54621789Y-66739711D01*
X54621786Y-66739707D01*
X54510292Y-66628213D01*
X54510288Y-66628210D01*
X54379185Y-66540609D01*
X54379172Y-66540602D01*
X54233501Y-66480264D01*
X54233489Y-66480261D01*
X54078845Y-66449500D01*
X54078842Y-66449500D01*
X53921158Y-66449500D01*
X53921155Y-66449500D01*
X53766510Y-66480261D01*
X53766498Y-66480264D01*
X53620827Y-66540602D01*
X53620814Y-66540609D01*
X53489711Y-66628210D01*
X53489707Y-66628213D01*
X53378213Y-66739707D01*
X53378210Y-66739711D01*
X53290609Y-66870814D01*
X53290602Y-66870827D01*
X53230264Y-67016498D01*
X53230261Y-67016510D01*
X53199500Y-67171153D01*
X50500500Y-67171153D01*
X50500500Y-65452135D01*
X68499500Y-65452135D01*
X68499500Y-68547870D01*
X68499501Y-68547876D01*
X68505908Y-68607483D01*
X68556202Y-68742328D01*
X68556206Y-68742335D01*
X68642452Y-68857544D01*
X68642455Y-68857547D01*
X68757664Y-68943793D01*
X68757671Y-68943797D01*
X68892517Y-68994091D01*
X68892516Y-68994091D01*
X68899444Y-68994835D01*
X68952127Y-69000500D01*
X72047872Y-69000499D01*
X72107483Y-68994091D01*
X72242331Y-68943796D01*
X72357546Y-68857546D01*
X72443796Y-68742331D01*
X72494091Y-68607483D01*
X72500500Y-68547873D01*
X72500499Y-66868905D01*
X88990000Y-66868905D01*
X88990000Y-67131094D01*
X89024220Y-67391009D01*
X89024222Y-67391020D01*
X89092075Y-67644255D01*
X89192404Y-67886471D01*
X89192409Y-67886482D01*
X89323488Y-68113516D01*
X89323494Y-68113524D01*
X89410080Y-68226365D01*
X90312421Y-67324024D01*
X90325359Y-67355258D01*
X90407437Y-67478097D01*
X90511903Y-67582563D01*
X90634742Y-67664641D01*
X90665974Y-67677577D01*
X89763633Y-68579917D01*
X89763633Y-68579918D01*
X89876475Y-68666505D01*
X89876483Y-68666511D01*
X90103517Y-68797590D01*
X90103528Y-68797595D01*
X90345744Y-68897924D01*
X90598979Y-68965777D01*
X90598990Y-68965779D01*
X90858905Y-68999999D01*
X90858920Y-69000000D01*
X91121080Y-69000000D01*
X91121094Y-68999999D01*
X91381009Y-68965779D01*
X91381020Y-68965777D01*
X91634255Y-68897924D01*
X91876471Y-68797595D01*
X91876482Y-68797590D01*
X92103516Y-68666511D01*
X92103534Y-68666499D01*
X92216365Y-68579919D01*
X92216365Y-68579917D01*
X91314025Y-67677578D01*
X91345258Y-67664641D01*
X91468097Y-67582563D01*
X91572563Y-67478097D01*
X91654641Y-67355258D01*
X91667577Y-67324025D01*
X92569917Y-68226365D01*
X92569919Y-68226365D01*
X92656499Y-68113534D01*
X92656511Y-68113516D01*
X92787590Y-67886482D01*
X92787595Y-67886471D01*
X92887924Y-67644255D01*
X92955777Y-67391020D01*
X92955779Y-67391009D01*
X92989999Y-67131094D01*
X92990000Y-67131080D01*
X92990000Y-66868919D01*
X92989999Y-66868905D01*
X92955779Y-66608990D01*
X92955777Y-66608979D01*
X92887924Y-66355744D01*
X92787595Y-66113528D01*
X92787590Y-66113517D01*
X92656511Y-65886483D01*
X92656505Y-65886475D01*
X92569918Y-65773633D01*
X92569917Y-65773633D01*
X91667577Y-66675973D01*
X91654641Y-66644742D01*
X91572563Y-66521903D01*
X91468097Y-66417437D01*
X91345258Y-66335359D01*
X91314023Y-66322421D01*
X92216365Y-65420080D01*
X92103524Y-65333494D01*
X92103516Y-65333488D01*
X91876482Y-65202409D01*
X91876471Y-65202404D01*
X91634255Y-65102075D01*
X91381020Y-65034222D01*
X91381009Y-65034220D01*
X91121094Y-65000000D01*
X90858905Y-65000000D01*
X90598990Y-65034220D01*
X90598979Y-65034222D01*
X90345744Y-65102075D01*
X90103528Y-65202404D01*
X90103517Y-65202409D01*
X89876471Y-65333496D01*
X89763633Y-65420079D01*
X89763633Y-65420080D01*
X90665974Y-66322421D01*
X90634742Y-66335359D01*
X90511903Y-66417437D01*
X90407437Y-66521903D01*
X90325359Y-66644742D01*
X90312421Y-66675974D01*
X89410080Y-65773633D01*
X89410079Y-65773633D01*
X89323496Y-65886471D01*
X89192409Y-66113517D01*
X89192404Y-66113528D01*
X89092075Y-66355744D01*
X89024222Y-66608979D01*
X89024220Y-66608990D01*
X88990000Y-66868905D01*
X72500499Y-66868905D01*
X72500499Y-65452128D01*
X72494091Y-65392517D01*
X72443796Y-65257669D01*
X72443795Y-65257668D01*
X72443793Y-65257664D01*
X72357547Y-65142455D01*
X72357544Y-65142452D01*
X72242335Y-65056206D01*
X72242328Y-65056202D01*
X72107482Y-65005908D01*
X72107483Y-65005908D01*
X72047883Y-64999501D01*
X72047881Y-64999500D01*
X72047873Y-64999500D01*
X72047864Y-64999500D01*
X68952129Y-64999500D01*
X68952123Y-64999501D01*
X68892516Y-65005908D01*
X68757671Y-65056202D01*
X68757664Y-65056206D01*
X68642455Y-65142452D01*
X68642452Y-65142455D01*
X68556206Y-65257664D01*
X68556202Y-65257671D01*
X68505908Y-65392517D01*
X68499501Y-65452116D01*
X68499501Y-65452123D01*
X68499500Y-65452135D01*
X50500500Y-65452135D01*
X50500500Y-55874038D01*
X54399500Y-55874038D01*
X54399500Y-56125961D01*
X54438910Y-56374785D01*
X54516760Y-56614383D01*
X54631132Y-56838848D01*
X54779201Y-57042649D01*
X54779205Y-57042654D01*
X54957345Y-57220794D01*
X54957350Y-57220798D01*
X55135117Y-57349952D01*
X55161155Y-57368870D01*
X55304184Y-57441747D01*
X55385616Y-57483239D01*
X55385618Y-57483239D01*
X55385621Y-57483241D01*
X55625215Y-57561090D01*
X55874038Y-57600500D01*
X55874039Y-57600500D01*
X56125961Y-57600500D01*
X56125962Y-57600500D01*
X56374785Y-57561090D01*
X56614379Y-57483241D01*
X56838845Y-57368870D01*
X57042656Y-57220793D01*
X57220793Y-57042656D01*
X57368870Y-56838845D01*
X57483241Y-56614379D01*
X57561090Y-56374785D01*
X57600500Y-56125962D01*
X57600500Y-55874038D01*
X57561090Y-55625215D01*
X57483241Y-55385621D01*
X57483239Y-55385618D01*
X57483239Y-55385616D01*
X57441747Y-55304184D01*
X57368870Y-55161155D01*
X57349952Y-55135117D01*
X57220798Y-54957350D01*
X57220794Y-54957345D01*
X57042654Y-54779205D01*
X57042649Y-54779201D01*
X56838848Y-54631132D01*
X56838847Y-54631131D01*
X56838845Y-54631130D01*
X56768747Y-54595413D01*
X56614383Y-54516760D01*
X56374785Y-54438910D01*
X56125962Y-54399500D01*
X55874038Y-54399500D01*
X55749626Y-54419205D01*
X55625214Y-54438910D01*
X55385616Y-54516760D01*
X55161151Y-54631132D01*
X54957350Y-54779201D01*
X54957345Y-54779205D01*
X54779205Y-54957345D01*
X54779201Y-54957350D01*
X54631132Y-55161151D01*
X54516760Y-55385616D01*
X54438910Y-55625214D01*
X54399500Y-55874038D01*
X50500500Y-55874038D01*
X50500500Y-50624500D01*
X50520185Y-50557461D01*
X50572989Y-50511706D01*
X50624500Y-50500500D01*
X99375500Y-50500500D01*
X99442539Y-50520185D01*
G37*
%TD.AperFunction*%
%TD*%
%TA.AperFunction,Conductor*%
%TO.N,+3V3*%
G36*
X65342539Y-85019685D02*
G01*
X65388294Y-85072489D01*
X65399500Y-85124000D01*
X65399500Y-85813330D01*
X65399499Y-85813348D01*
X65399499Y-85979054D01*
X65399498Y-85979054D01*
X65440423Y-86131785D01*
X65469358Y-86181900D01*
X65469359Y-86181904D01*
X65469360Y-86181904D01*
X65519479Y-86268714D01*
X65519481Y-86268717D01*
X65638349Y-86387585D01*
X65638355Y-86387590D01*
X67765425Y-88514660D01*
X67798910Y-88575983D01*
X67799361Y-88578149D01*
X67830261Y-88733491D01*
X67830264Y-88733501D01*
X67890602Y-88879172D01*
X67890609Y-88879185D01*
X67978210Y-89010288D01*
X67978213Y-89010292D01*
X68089707Y-89121786D01*
X68089711Y-89121789D01*
X68220814Y-89209390D01*
X68220827Y-89209397D01*
X68366498Y-89269735D01*
X68366503Y-89269737D01*
X68521153Y-89300499D01*
X68521156Y-89300500D01*
X68521158Y-89300500D01*
X68678844Y-89300500D01*
X68678845Y-89300499D01*
X68833497Y-89269737D01*
X68979179Y-89209394D01*
X69110289Y-89121789D01*
X69221789Y-89010289D01*
X69309394Y-88879179D01*
X69369737Y-88733497D01*
X69400500Y-88578842D01*
X69400500Y-88421158D01*
X69400500Y-88421155D01*
X69400499Y-88421153D01*
X69369738Y-88266510D01*
X69369737Y-88266503D01*
X69369735Y-88266498D01*
X69309397Y-88120827D01*
X69309390Y-88120814D01*
X69221789Y-87989711D01*
X69221786Y-87989707D01*
X69110292Y-87878213D01*
X69110288Y-87878210D01*
X68979185Y-87790609D01*
X68979172Y-87790602D01*
X68833501Y-87730264D01*
X68833491Y-87730261D01*
X68678149Y-87699361D01*
X68616238Y-87666976D01*
X68614660Y-87665425D01*
X66636819Y-85687584D01*
X66603334Y-85626261D01*
X66600500Y-85599903D01*
X66600500Y-85124000D01*
X66620185Y-85056961D01*
X66672989Y-85011206D01*
X66724500Y-85000000D01*
X71144316Y-85000000D01*
X71211355Y-85019685D01*
X71236993Y-85041617D01*
X73068679Y-87102264D01*
X73098505Y-87165446D01*
X73100000Y-87184644D01*
X73100000Y-91776000D01*
X73080315Y-91843039D01*
X73027511Y-91888794D01*
X72976000Y-91900000D01*
X71026691Y-91900000D01*
X70959652Y-91880315D01*
X70913897Y-91827511D01*
X70903953Y-91758353D01*
X70932978Y-91694797D01*
X70979238Y-91661439D01*
X70986085Y-91658602D01*
X71001511Y-91652213D01*
X71132621Y-91564608D01*
X71244121Y-91453108D01*
X71331726Y-91321998D01*
X71392069Y-91176316D01*
X71422832Y-91021661D01*
X71422832Y-90863977D01*
X71422832Y-90863974D01*
X71422831Y-90863972D01*
X71392070Y-90709329D01*
X71392069Y-90709322D01*
X71392067Y-90709317D01*
X71331729Y-90563646D01*
X71331722Y-90563633D01*
X71244121Y-90432530D01*
X71244118Y-90432526D01*
X71132624Y-90321032D01*
X71132620Y-90321029D01*
X71001517Y-90233428D01*
X71001504Y-90233421D01*
X70855833Y-90173083D01*
X70855821Y-90173080D01*
X70701177Y-90142319D01*
X70701174Y-90142319D01*
X70697588Y-90142319D01*
X70695777Y-90141787D01*
X70695114Y-90141722D01*
X70695126Y-90141596D01*
X70630549Y-90122634D01*
X70594486Y-90087210D01*
X70554396Y-90027211D01*
X70554394Y-90027208D01*
X70442899Y-89915713D01*
X70442895Y-89915710D01*
X70311792Y-89828109D01*
X70311779Y-89828102D01*
X70166108Y-89767764D01*
X70166096Y-89767761D01*
X70011452Y-89737000D01*
X70011449Y-89737000D01*
X69853765Y-89737000D01*
X69853762Y-89737000D01*
X69699117Y-89767761D01*
X69699105Y-89767764D01*
X69553434Y-89828102D01*
X69553421Y-89828109D01*
X69422318Y-89915710D01*
X69422314Y-89915713D01*
X69310820Y-90027207D01*
X69310817Y-90027211D01*
X69223216Y-90158314D01*
X69223209Y-90158327D01*
X69162871Y-90303998D01*
X69162868Y-90304008D01*
X69131969Y-90459348D01*
X69099584Y-90521259D01*
X69098033Y-90522837D01*
X68808677Y-90812193D01*
X68808668Y-90812202D01*
X68806285Y-90814586D01*
X68806283Y-90814588D01*
X68694479Y-90926392D01*
X68679597Y-90952169D01*
X68615422Y-91063323D01*
X68574498Y-91216051D01*
X68574498Y-91216053D01*
X68574498Y-91384154D01*
X68574499Y-91384167D01*
X68574499Y-91776000D01*
X68554814Y-91843039D01*
X68502010Y-91888794D01*
X68450499Y-91900000D01*
X65224000Y-91900000D01*
X65156961Y-91880315D01*
X65111206Y-91827511D01*
X65100000Y-91776000D01*
X65100000Y-85124000D01*
X65102550Y-85115314D01*
X65101262Y-85106353D01*
X65112240Y-85082312D01*
X65119685Y-85056961D01*
X65126525Y-85051033D01*
X65130287Y-85042797D01*
X65152521Y-85028507D01*
X65172489Y-85011206D01*
X65183003Y-85008918D01*
X65189065Y-85005023D01*
X65224000Y-85000000D01*
X65275500Y-85000000D01*
X65342539Y-85019685D01*
G37*
%TD.AperFunction*%
%TD*%
M02*
