M48
; DRILL file {KiCad 9.0.2} date 2025-08-07T00:04:10-0700
; FORMAT={-:-/ absolute / metric / decimal}
; #@! TF.CreationDate,2025-08-07T00:04:10-07:00
; #@! TF.GenerationSoftware,Kicad,Pcbnew,9.0.2
; #@! TF.FileFunction,Plated,1,2,PTH
FMAT,2
METRIC
; #@! TA.AperFunction,Plated,PTH,ViaDrill
T1C0.300
; #@! TA.AperFunction,Plated,PTH,ComponentDrill
T2C0.600
; #@! TA.AperFunction,Plated,PTH,ComponentDrill
T3C0.800
; #@! TA.AperFunction,Plated,PTH,ComponentDrill
T4C1.100
; #@! TA.AperFunction,Plated,PTH,ComponentDrill
T5C1.500
%
G90
G05
T1
X52.75Y-71.25
X53.5Y-72.3
X54.0Y-67.25
X55.75Y-73.0
X56.0Y-69.5
X56.75Y-76.75
X57.3Y-84.5
X57.4Y-82.3
X58.0Y-66.9
X60.2Y-67.1
X61.0Y-71.2
X61.1Y-80.5
X61.25Y-72.75
X61.25Y-90.5
X61.7Y-89.4
X62.1Y-82.6
X63.5Y-86.8
X63.75Y-91.25
X64.7Y-77.9
X65.9Y-67.6
X66.049Y-88.101
X66.5Y-65.0
X67.1Y-81.8
X67.538Y-91.053
X67.55Y-85.813
X67.9Y-81.1
X68.0Y-95.6
X68.6Y-88.5
X69.0Y-94.5
X69.1Y-117.0
X69.3Y-79.0
X69.5Y-60.2
X69.5Y-83.25
X69.8Y-94.5
X69.933Y-90.537
X70.5Y-93.2
X70.5Y-103.2
X70.622Y-90.943
X70.9Y-76.3
X70.9Y-109.3
X71.036Y-88.864
X71.05Y-85.878
X71.7Y-91.57
X71.8Y-95.35
X72.0Y-81.9
X72.4Y-110.4
X72.7Y-94.6
X73.5Y-85.9
X74.0Y-83.1
X74.2Y-85.1
X74.3Y-77.0
X74.9Y-109.2
X75.1Y-92.4
X75.388Y-89.987
X75.4Y-88.8
X75.8Y-110.2
X76.8Y-90.9
X77.2Y-110.2
X78.1Y-109.2
X78.5Y-87.0
X78.9Y-110.4
X81.3Y-88.9
X83.1Y-113.3
X85.0Y-84.7
T3
X54.75Y-76.75
X54.75Y-84.37
T4
X53.0Y-89.25
X53.0Y-93.75
X59.5Y-89.25
X59.5Y-93.75
X85.0Y-93.5
X85.0Y-100.0
X89.5Y-93.5
X89.5Y-100.0
T5
X70.5Y-67.0
X90.99Y-67.0
T2
G00X71.36Y-112.295
M15
G01X71.36Y-113.395
M16
G05
G00X71.36Y-116.625
M15
G01X71.36Y-117.425
M16
G05
G00X80.0Y-112.295
M15
G01X80.0Y-113.395
M16
G05
G00X80.0Y-116.625
M15
G01X80.0Y-117.425
M16
G05
M30
