%TF.GenerationSoftware,KiCad,Pcbnew,9.0.2*%
%TF.CreationDate,2025-07-31T20:28:33-07:00*%
%TF.ProjectId,TimeCapsule,54696d65-4361-4707-9375-6c652e6b6963,rev?*%
%TF.SameCoordinates,Original*%
%TF.FileFunction,Legend,Bot*%
%TF.FilePolarity,Positive*%
%FSLAX46Y46*%
G04 Gerber Fmt 4.6, Leading zero omitted, Abs format (unit mm)*
G04 Created by KiCad (PCBNEW 9.0.2) date 2025-07-31 20:28:33*
%MOMM*%
%LPD*%
G01*
G04 APERTURE LIST*
G04 Aperture macros list*
%AMRoundRect*
0 Rectangle with rounded corners*
0 $1 Rounding radius*
0 $2 $3 $4 $5 $6 $7 $8 $9 X,Y pos of 4 corners*
0 Add a 4 corners polygon primitive as box body*
4,1,4,$2,$3,$4,$5,$6,$7,$8,$9,$2,$3,0*
0 Add four circle primitives for the rounded corners*
1,1,$1+$1,$2,$3*
1,1,$1+$1,$4,$5*
1,1,$1+$1,$6,$7*
1,1,$1+$1,$8,$9*
0 Add four rect primitives between the rounded corners*
20,1,$1+$1,$2,$3,$4,$5,0*
20,1,$1+$1,$4,$5,$6,$7,0*
20,1,$1+$1,$6,$7,$8,$9,0*
20,1,$1+$1,$8,$9,$2,$3,0*%
G04 Aperture macros list end*
%ADD10C,0.300000*%
%ADD11C,0.000000*%
%ADD12C,2.000000*%
%ADD13RoundRect,0.250000X-0.550000X0.550000X-0.550000X-0.550000X0.550000X-0.550000X0.550000X0.550000X0*%
%ADD14C,1.600000*%
%ADD15C,2.700000*%
%ADD16R,3.000000X3.000000*%
%ADD17C,3.000000*%
%ADD18C,0.650000*%
%ADD19O,1.000000X2.100000*%
%ADD20O,1.000000X1.800000*%
G04 APERTURE END LIST*
D10*
X75249757Y-83678572D02*
X75178328Y-83535715D01*
X75178328Y-83535715D02*
X75178328Y-83321429D01*
X75178328Y-83321429D02*
X75249757Y-83107143D01*
X75249757Y-83107143D02*
X75392614Y-82964286D01*
X75392614Y-82964286D02*
X75535471Y-82892857D01*
X75535471Y-82892857D02*
X75821185Y-82821429D01*
X75821185Y-82821429D02*
X76035471Y-82821429D01*
X76035471Y-82821429D02*
X76321185Y-82892857D01*
X76321185Y-82892857D02*
X76464042Y-82964286D01*
X76464042Y-82964286D02*
X76606900Y-83107143D01*
X76606900Y-83107143D02*
X76678328Y-83321429D01*
X76678328Y-83321429D02*
X76678328Y-83464286D01*
X76678328Y-83464286D02*
X76606900Y-83678572D01*
X76606900Y-83678572D02*
X76535471Y-83750000D01*
X76535471Y-83750000D02*
X76035471Y-83750000D01*
X76035471Y-83750000D02*
X76035471Y-83464286D01*
X75178328Y-84607143D02*
X75535471Y-84607143D01*
X75392614Y-84250000D02*
X75535471Y-84607143D01*
X75535471Y-84607143D02*
X75392614Y-84964286D01*
X75821185Y-84392857D02*
X75535471Y-84607143D01*
X75535471Y-84607143D02*
X75821185Y-84821429D01*
X75178328Y-85750000D02*
X75535471Y-85750000D01*
X75392614Y-85392857D02*
X75535471Y-85750000D01*
X75535471Y-85750000D02*
X75392614Y-86107143D01*
X75821185Y-85535714D02*
X75535471Y-85750000D01*
X75535471Y-85750000D02*
X75821185Y-85964286D01*
X75178328Y-86892857D02*
X75535471Y-86892857D01*
X75392614Y-86535714D02*
X75535471Y-86892857D01*
X75535471Y-86892857D02*
X75392614Y-87250000D01*
X75821185Y-86678571D02*
X75535471Y-86892857D01*
X75535471Y-86892857D02*
X75821185Y-87107143D01*
D11*
%TO.C,G\u002A\u002A\u002A*%
G36*
X51787691Y-57452311D02*
G01*
X51802475Y-57522253D01*
X51784380Y-57535723D01*
X51658260Y-57619981D01*
X51442333Y-57759442D01*
X51164239Y-57936720D01*
X50851619Y-58134428D01*
X50532113Y-58335178D01*
X50233362Y-58521583D01*
X49983007Y-58676256D01*
X49808689Y-58781811D01*
X49738047Y-58820860D01*
X49720540Y-58800320D01*
X49706739Y-58684510D01*
X49712336Y-58664360D01*
X49808621Y-58553871D01*
X50002860Y-58395491D01*
X50267049Y-58206658D01*
X50573187Y-58004805D01*
X50893269Y-57807367D01*
X51199294Y-57631781D01*
X51463258Y-57495480D01*
X51657158Y-57415900D01*
X51752992Y-57410477D01*
X51787691Y-57452311D01*
G37*
G36*
X102296012Y-50121457D02*
G01*
X102294937Y-50166526D01*
X102278377Y-50224855D01*
X102223085Y-50266064D01*
X102105671Y-50294899D01*
X101902743Y-50316105D01*
X101590909Y-50334427D01*
X101146779Y-50354612D01*
X100829616Y-50368060D01*
X100280549Y-50390075D01*
X99667836Y-50413511D01*
X99045679Y-50436310D01*
X98468281Y-50456410D01*
X96939016Y-50507859D01*
X96698019Y-50242733D01*
X96624353Y-50160879D01*
X96503489Y-50021835D01*
X96454738Y-49958130D01*
X96455716Y-49957608D01*
X96547202Y-49953260D01*
X96775531Y-49949269D01*
X97123685Y-49945750D01*
X97574649Y-49942814D01*
X98111405Y-49940577D01*
X98716939Y-49939152D01*
X99374233Y-49938651D01*
X102296012Y-49938651D01*
X102296012Y-50121457D01*
G37*
G36*
X98769428Y-80473998D02*
G01*
X98631021Y-80580659D01*
X98399319Y-80735615D01*
X98090669Y-80928730D01*
X97721416Y-81149865D01*
X97307906Y-81388884D01*
X96866484Y-81635650D01*
X96413497Y-81880024D01*
X96152050Y-82019292D01*
X95825461Y-82195889D01*
X95555589Y-82344725D01*
X95383108Y-82443555D01*
X95131860Y-82594934D01*
X94866199Y-82024921D01*
X94828762Y-81943051D01*
X94721405Y-81686131D01*
X94657554Y-81496412D01*
X94649962Y-81410149D01*
X94663511Y-81402308D01*
X94795017Y-81358658D01*
X95027951Y-81297220D01*
X95322700Y-81228680D01*
X95412448Y-81208823D01*
X95718014Y-81139923D01*
X96109199Y-81050495D01*
X96556315Y-80947451D01*
X97029671Y-80837704D01*
X97499578Y-80728169D01*
X97936346Y-80625759D01*
X98310286Y-80537386D01*
X98591707Y-80469964D01*
X98750920Y-80430408D01*
X98798195Y-80425769D01*
X98769428Y-80473998D01*
G37*
G36*
X70745261Y-66328052D02*
G01*
X70850092Y-66454539D01*
X70949165Y-66693639D01*
X71045802Y-67056109D01*
X71143324Y-67552708D01*
X71245053Y-68194194D01*
X71283397Y-68478419D01*
X71316371Y-68784560D01*
X71330416Y-69006605D01*
X71322581Y-69109685D01*
X71315201Y-69119065D01*
X71189897Y-69167682D01*
X70984021Y-69180882D01*
X70767208Y-69159899D01*
X70760098Y-69159211D01*
X70580654Y-69103213D01*
X70409892Y-68943894D01*
X70237926Y-68623468D01*
X70082454Y-68152621D01*
X70040049Y-67993750D01*
X69988386Y-67770177D01*
X69973791Y-67599371D01*
X69991283Y-67441169D01*
X70142138Y-67441169D01*
X70144422Y-67784835D01*
X70176448Y-68111372D01*
X70239040Y-68372792D01*
X70340277Y-68597351D01*
X70489334Y-68825555D01*
X70640786Y-68972796D01*
X70767208Y-69006188D01*
X70834097Y-68920348D01*
X70868865Y-68713392D01*
X70867604Y-68420680D01*
X70834764Y-68075461D01*
X70774794Y-67710985D01*
X70692143Y-67360501D01*
X70591261Y-67057257D01*
X70476597Y-66834503D01*
X70429999Y-66771639D01*
X70356404Y-66731075D01*
X70265755Y-66816164D01*
X70223505Y-66894411D01*
X70168774Y-67128365D01*
X70142138Y-67441169D01*
X69991283Y-67441169D01*
X69993942Y-67417124D01*
X70046515Y-67159230D01*
X70052109Y-67134228D01*
X70159003Y-66824173D01*
X70313374Y-66557597D01*
X70489175Y-66370932D01*
X70660357Y-66300614D01*
X70745261Y-66328052D01*
G37*
G36*
X81288495Y-71552807D02*
G01*
X81365312Y-71666945D01*
X81440742Y-71907412D01*
X81517653Y-72283985D01*
X81598913Y-72806443D01*
X81642042Y-73133495D01*
X81766465Y-74754138D01*
X81738789Y-76347362D01*
X81559041Y-77909817D01*
X81523182Y-78104562D01*
X81439373Y-78487030D01*
X81332489Y-78918687D01*
X81210910Y-79370833D01*
X81083017Y-79814768D01*
X80957189Y-80221792D01*
X80841806Y-80563205D01*
X80745250Y-80810308D01*
X80675898Y-80934400D01*
X80616931Y-80936994D01*
X80441730Y-80917703D01*
X80195458Y-80878617D01*
X80026770Y-80850429D01*
X79643057Y-80794027D01*
X79291871Y-80750728D01*
X79067120Y-80719194D01*
X78896193Y-80664598D01*
X78843865Y-80587690D01*
X78861434Y-80473497D01*
X78910566Y-80241056D01*
X78983640Y-79925471D01*
X79073023Y-79560934D01*
X79073710Y-79558200D01*
X79158123Y-79186768D01*
X79254821Y-78703802D01*
X79355991Y-78151895D01*
X79453824Y-77573644D01*
X79540507Y-77011643D01*
X79561685Y-76863963D01*
X79686694Y-75858351D01*
X79757926Y-74985192D01*
X79775719Y-74232461D01*
X79740412Y-73588133D01*
X79652343Y-73040185D01*
X79581720Y-72738415D01*
X79517621Y-72444481D01*
X79504436Y-72250133D01*
X79559119Y-72123958D01*
X79698623Y-72034543D01*
X79939904Y-71950475D01*
X80299914Y-71840341D01*
X80600848Y-71745450D01*
X80902554Y-71649690D01*
X81123050Y-71578985D01*
X81228589Y-71544100D01*
X81288495Y-71552807D01*
G37*
G36*
X58609834Y-49938658D02*
G01*
X58876858Y-50004934D01*
X59145027Y-50205576D01*
X59421049Y-50547253D01*
X59711632Y-51036632D01*
X59773688Y-51156995D01*
X60005558Y-51704688D01*
X60162108Y-52286364D01*
X60259871Y-52960026D01*
X60268589Y-53045224D01*
X60303502Y-53311343D01*
X60349516Y-53472629D01*
X60423464Y-53569850D01*
X60542178Y-53643775D01*
X60555363Y-53650688D01*
X60706206Y-53746090D01*
X60768985Y-53816879D01*
X60775974Y-53851490D01*
X60835624Y-53976540D01*
X60840127Y-53982768D01*
X60909154Y-54002542D01*
X61045201Y-53954480D01*
X61267202Y-53829659D01*
X61594093Y-53619159D01*
X61798565Y-53483505D01*
X62287585Y-53162433D01*
X62702816Y-52897135D01*
X63084126Y-52663566D01*
X63471384Y-52437676D01*
X63904461Y-52195419D01*
X64423225Y-51912747D01*
X64760407Y-51730791D01*
X65108147Y-51544063D01*
X65385900Y-51395955D01*
X65571340Y-51298365D01*
X65642140Y-51263191D01*
X65644316Y-51262528D01*
X65734597Y-51221716D01*
X65940642Y-51124910D01*
X66240875Y-50982349D01*
X66613724Y-50804274D01*
X67037613Y-50600921D01*
X68415309Y-49938651D01*
X81311053Y-49938651D01*
X94206797Y-49938651D01*
X94007931Y-50191872D01*
X93902638Y-50326266D01*
X93766720Y-50488270D01*
X93641893Y-50596212D01*
X93494853Y-50663134D01*
X93292296Y-50702080D01*
X93000919Y-50726094D01*
X92587416Y-50748219D01*
X92496803Y-50753050D01*
X91906490Y-50789014D01*
X91462282Y-50825518D01*
X91155605Y-50863593D01*
X90977887Y-50904269D01*
X90920552Y-50948578D01*
X90930508Y-50957903D01*
X91052211Y-50996808D01*
X91290605Y-51050546D01*
X91618212Y-51113285D01*
X92007554Y-51179196D01*
X92502585Y-51258219D01*
X92888900Y-51323481D01*
X93163478Y-51379841D01*
X93347710Y-51436052D01*
X93462989Y-51500866D01*
X93530706Y-51583035D01*
X93572253Y-51691314D01*
X93609022Y-51834454D01*
X93719264Y-52142380D01*
X93991906Y-52554635D01*
X94367899Y-52872330D01*
X94824134Y-53077828D01*
X95337502Y-53153494D01*
X95749736Y-53109181D01*
X96213582Y-52933676D01*
X96604995Y-52641037D01*
X96894040Y-52248664D01*
X96938527Y-52168235D01*
X97021906Y-52077445D01*
X97148783Y-52053815D01*
X97374047Y-52077806D01*
X97525651Y-52100096D01*
X98008773Y-52178799D01*
X98582110Y-52280499D01*
X99210809Y-52398293D01*
X99860018Y-52525276D01*
X100494882Y-52654548D01*
X101080548Y-52779204D01*
X101582165Y-52892342D01*
X101964878Y-52987058D01*
X102296012Y-53075467D01*
X102296012Y-54908048D01*
X102296012Y-56740629D01*
X100679295Y-56685378D01*
X100557686Y-56681195D01*
X100072165Y-56663929D01*
X99639403Y-56647675D01*
X99285147Y-56633456D01*
X99114082Y-56625819D01*
X99035142Y-56622295D01*
X98915134Y-56615218D01*
X98829083Y-56621035D01*
X98737629Y-56684819D01*
X98768583Y-56714979D01*
X98925140Y-56781701D01*
X99191609Y-56871349D01*
X99543687Y-56976998D01*
X99957074Y-57091725D01*
X100407471Y-57208607D01*
X100870575Y-57320722D01*
X101322086Y-57421144D01*
X101434599Y-57445423D01*
X101743516Y-57516156D01*
X102003835Y-57580719D01*
X102296012Y-57658154D01*
X102296012Y-58169929D01*
X102292132Y-58432907D01*
X102274046Y-58585522D01*
X102232854Y-58640827D01*
X102159663Y-58628753D01*
X102064068Y-58597982D01*
X101808998Y-58529178D01*
X101431817Y-58435288D01*
X100950484Y-58320422D01*
X100382958Y-58188690D01*
X99747197Y-58044201D01*
X99061160Y-57891064D01*
X98342806Y-57733389D01*
X97610094Y-57575285D01*
X96880982Y-57420862D01*
X96719914Y-57386789D01*
X96265017Y-57288627D01*
X95714656Y-57167910D01*
X95107881Y-57033283D01*
X94483742Y-56893388D01*
X93881289Y-56756869D01*
X93701217Y-56715815D01*
X93014993Y-56559729D01*
X92462593Y-56434970D01*
X92029401Y-56338518D01*
X91700799Y-56267350D01*
X91462172Y-56218446D01*
X91298902Y-56188783D01*
X91196373Y-56175341D01*
X91139969Y-56175097D01*
X91115073Y-56185030D01*
X91124702Y-56246256D01*
X91186945Y-56423876D01*
X91293137Y-56687060D01*
X91431651Y-57005666D01*
X91464567Y-57079807D01*
X91720366Y-57711570D01*
X91935764Y-58342916D01*
X92101316Y-58940250D01*
X92207574Y-59469979D01*
X92245092Y-59898507D01*
X92237600Y-60123709D01*
X92205127Y-60322290D01*
X92155597Y-60378398D01*
X92098517Y-60297802D01*
X92043391Y-60086274D01*
X91999727Y-59749581D01*
X91964392Y-59423908D01*
X91913628Y-59070402D01*
X91861023Y-58792347D01*
X91754702Y-58419063D01*
X91591950Y-57953978D01*
X91394632Y-57454846D01*
X91183216Y-56973394D01*
X90978171Y-56561350D01*
X90703874Y-56054909D01*
X90130464Y-55919718D01*
X89900493Y-55866766D01*
X89531851Y-55783943D01*
X89080506Y-55683936D01*
X88583204Y-55574881D01*
X88076687Y-55464917D01*
X88031210Y-55455077D01*
X87573694Y-55353630D01*
X87170763Y-55260012D01*
X86846906Y-55180233D01*
X86626608Y-55120306D01*
X86534357Y-55086243D01*
X86535846Y-55073355D01*
X86640721Y-55043448D01*
X86867022Y-55013838D01*
X87190889Y-54986094D01*
X87588462Y-54961786D01*
X88035881Y-54942481D01*
X88509287Y-54929747D01*
X88984820Y-54925154D01*
X89271152Y-54921022D01*
X89560375Y-54906425D01*
X89757132Y-54883771D01*
X89829755Y-54855666D01*
X89812732Y-54809749D01*
X89721056Y-54665024D01*
X89576534Y-54474794D01*
X89552438Y-54445435D01*
X89374435Y-54261241D01*
X89266536Y-54204449D01*
X89674137Y-54204449D01*
X89700613Y-54258503D01*
X89806750Y-54403122D01*
X89966315Y-54593125D01*
X90258282Y-54923365D01*
X92673620Y-55043720D01*
X92940154Y-55057163D01*
X94021701Y-55115164D01*
X95034184Y-55175026D01*
X95965217Y-55235812D01*
X96802417Y-55296580D01*
X97533398Y-55356394D01*
X98145776Y-55414313D01*
X98627166Y-55469399D01*
X98965184Y-55520713D01*
X99114082Y-55527717D01*
X99179448Y-55486938D01*
X99178682Y-55481054D01*
X99098388Y-55419346D01*
X98926227Y-55370814D01*
X98856847Y-55359093D01*
X98631123Y-55320540D01*
X98291670Y-55262308D01*
X97863598Y-55188710D01*
X97372013Y-55104061D01*
X96842025Y-55012676D01*
X96011351Y-54873385D01*
X95060445Y-54723275D01*
X94126411Y-54585182D01*
X93228705Y-54461559D01*
X92386785Y-54354856D01*
X91620107Y-54267525D01*
X90948130Y-54202018D01*
X90390310Y-54160786D01*
X89966105Y-54146282D01*
X89913522Y-54147189D01*
X89742862Y-54166936D01*
X89674137Y-54204449D01*
X89266536Y-54204449D01*
X89192801Y-54165639D01*
X88933743Y-54117627D01*
X88921378Y-54116193D01*
X88634459Y-54089083D01*
X88230565Y-54059266D01*
X87724841Y-54027324D01*
X87132431Y-53993840D01*
X86468482Y-53959396D01*
X85748137Y-53924575D01*
X84986542Y-53889959D01*
X84198842Y-53856131D01*
X83400181Y-53823672D01*
X82605705Y-53793167D01*
X81830558Y-53765196D01*
X81089885Y-53740343D01*
X80398832Y-53719190D01*
X79772544Y-53702320D01*
X79226164Y-53690315D01*
X78774839Y-53683757D01*
X78433713Y-53683229D01*
X78217931Y-53689314D01*
X78142638Y-53702594D01*
X78147638Y-53718505D01*
X78212280Y-53839271D01*
X78335900Y-54044885D01*
X78498545Y-54301759D01*
X78520543Y-54336058D01*
X78714620Y-54660748D01*
X78891284Y-54990414D01*
X79014707Y-55258637D01*
X79077038Y-55415687D01*
X79203274Y-55730884D01*
X79353548Y-56103863D01*
X79507275Y-56483436D01*
X79641125Y-56825146D01*
X79957002Y-57774297D01*
X80190461Y-58739181D01*
X80350759Y-59763198D01*
X80447154Y-60889748D01*
X80500345Y-61828882D01*
X79925326Y-61994495D01*
X79590096Y-62092658D01*
X79246421Y-62196003D01*
X78977213Y-62279686D01*
X78789205Y-62337711D01*
X78654078Y-62361322D01*
X78586301Y-62326150D01*
X78541235Y-62226779D01*
X78518559Y-62139679D01*
X78476456Y-61909637D01*
X78429543Y-61594623D01*
X78384401Y-61236197D01*
X78320725Y-60720654D01*
X78211646Y-60008588D01*
X78080551Y-59361923D01*
X77915712Y-58725537D01*
X77705406Y-58044309D01*
X77439644Y-57290449D01*
X77077697Y-56434453D01*
X76683675Y-55692050D01*
X76244671Y-55039565D01*
X75747777Y-54453320D01*
X75412349Y-54098358D01*
X75608782Y-53913819D01*
X75626284Y-53897076D01*
X75753220Y-53753566D01*
X75805215Y-53653483D01*
X75803811Y-53647859D01*
X75712255Y-53617611D01*
X75496902Y-53606013D01*
X75184755Y-53611298D01*
X74802815Y-53631702D01*
X74378085Y-53665460D01*
X73937568Y-53710806D01*
X73508265Y-53765976D01*
X73117178Y-53829203D01*
X72941404Y-53861926D01*
X72318073Y-53984107D01*
X71669696Y-54119539D01*
X71016039Y-54263369D01*
X70376863Y-54410743D01*
X69771934Y-54556808D01*
X69221015Y-54696708D01*
X68743869Y-54825591D01*
X68360259Y-54938601D01*
X68089950Y-55030887D01*
X67952705Y-55097592D01*
X67935643Y-55114281D01*
X67831723Y-55265347D01*
X67682053Y-55531102D01*
X67497641Y-55887914D01*
X67289492Y-56312146D01*
X67068615Y-56780167D01*
X66846016Y-57268341D01*
X66632703Y-57753035D01*
X66439683Y-58210614D01*
X66277963Y-58617445D01*
X66158551Y-58949895D01*
X66048541Y-59298486D01*
X65905143Y-59789331D01*
X65776616Y-60266748D01*
X65681531Y-60664005D01*
X65647774Y-60820313D01*
X65558275Y-61232192D01*
X65471794Y-61627135D01*
X65403137Y-61937424D01*
X65336399Y-62255854D01*
X65241025Y-62758158D01*
X65217728Y-62890947D01*
X65142008Y-63322539D01*
X65048350Y-63897283D01*
X64969056Y-64430676D01*
X64950207Y-64598270D01*
X64922586Y-64936158D01*
X64895102Y-65364285D01*
X64870120Y-65844730D01*
X64850005Y-66339571D01*
X64834407Y-66908831D01*
X64832410Y-67402286D01*
X64846918Y-67820867D01*
X64879425Y-68205993D01*
X64931421Y-68599081D01*
X65026946Y-69134741D01*
X65197165Y-69889482D01*
X65406662Y-70670642D01*
X65638912Y-71417585D01*
X65877386Y-72069677D01*
X65894327Y-72111450D01*
X66313524Y-73061555D01*
X66804034Y-74036374D01*
X67354310Y-75020428D01*
X67952804Y-75998242D01*
X68587972Y-76954337D01*
X69248266Y-77873237D01*
X69922139Y-78739466D01*
X70598045Y-79537546D01*
X71264438Y-80252000D01*
X71909771Y-80867352D01*
X72522497Y-81368124D01*
X73091069Y-81738840D01*
X73538057Y-81975806D01*
X74032966Y-82200628D01*
X74505729Y-82361267D01*
X75000605Y-82469512D01*
X75561856Y-82537154D01*
X76233743Y-82575983D01*
X76748208Y-82589532D01*
X77607223Y-82592440D01*
X78544735Y-82576156D01*
X79515526Y-82542004D01*
X80474378Y-82491308D01*
X81376074Y-82425392D01*
X81768928Y-82392052D01*
X82269322Y-82349852D01*
X82744380Y-82310039D01*
X83129141Y-82278072D01*
X83286751Y-82262413D01*
X83551542Y-82223209D01*
X83839588Y-82162617D01*
X84165865Y-82075587D01*
X84545349Y-81957074D01*
X84993015Y-81802029D01*
X85523841Y-81605405D01*
X86152801Y-81362153D01*
X86894873Y-81067228D01*
X87765031Y-80715581D01*
X87882682Y-80667779D01*
X88368885Y-80470467D01*
X88825617Y-80285465D01*
X89224163Y-80124382D01*
X89535808Y-79998828D01*
X89731837Y-79920411D01*
X89760391Y-79908958D01*
X89902920Y-79843720D01*
X90028036Y-79762517D01*
X90148040Y-79647648D01*
X90275231Y-79481412D01*
X90421909Y-79246108D01*
X90600375Y-78924034D01*
X90822929Y-78497490D01*
X91101870Y-77948774D01*
X91235826Y-77654717D01*
X91406221Y-77229348D01*
X91590892Y-76728739D01*
X91776392Y-76191894D01*
X91949273Y-75657816D01*
X92096087Y-75165507D01*
X92203387Y-74753971D01*
X92233330Y-74619731D01*
X92331392Y-74112744D01*
X92422388Y-73549070D01*
X92499082Y-72980783D01*
X92554241Y-72459958D01*
X92580629Y-72038671D01*
X92595706Y-71481903D01*
X91271166Y-71426660D01*
X89680817Y-71333081D01*
X87800107Y-71149125D01*
X86019248Y-70892153D01*
X85625511Y-70824753D01*
X85223087Y-70754861D01*
X84895631Y-70696887D01*
X84669375Y-70655480D01*
X84570552Y-70635294D01*
X84584830Y-70625325D01*
X84731618Y-70603072D01*
X85018339Y-70571934D01*
X85435893Y-70532718D01*
X85975186Y-70486228D01*
X86627118Y-70433270D01*
X87382594Y-70374649D01*
X88232516Y-70311170D01*
X89260775Y-70226277D01*
X90586318Y-70093670D01*
X91937087Y-69935586D01*
X93252749Y-69759177D01*
X94472969Y-69571592D01*
X94671502Y-69537988D01*
X95104571Y-69461259D01*
X95600179Y-69370029D01*
X96136751Y-69268599D01*
X96692714Y-69161272D01*
X97246495Y-69052347D01*
X97776520Y-68946127D01*
X98261215Y-68846913D01*
X98679007Y-68759007D01*
X99008323Y-68686708D01*
X99227588Y-68634320D01*
X99315229Y-68606142D01*
X99252106Y-68601352D01*
X99050068Y-68598737D01*
X98725941Y-68598474D01*
X98296942Y-68600480D01*
X97780287Y-68604674D01*
X97193192Y-68610974D01*
X96552873Y-68619298D01*
X96186160Y-68623836D01*
X95264418Y-68629523D01*
X94407675Y-68626589D01*
X93638591Y-68615311D01*
X92979830Y-68595969D01*
X92454053Y-68568842D01*
X91360702Y-68484630D01*
X89746197Y-68328304D01*
X88120598Y-68135142D01*
X86507711Y-67909080D01*
X84931342Y-67654049D01*
X83415298Y-67373984D01*
X81983385Y-67072819D01*
X80659409Y-66754486D01*
X79467178Y-66422921D01*
X79197147Y-66339509D01*
X78603582Y-66144093D01*
X77983800Y-65926113D01*
X77362785Y-65695465D01*
X76765519Y-65462044D01*
X76216985Y-65235746D01*
X75742167Y-65026465D01*
X75366047Y-64844098D01*
X75113609Y-64698540D01*
X75021405Y-64635325D01*
X74915456Y-64550315D01*
X74923233Y-64507990D01*
X75033940Y-64478533D01*
X75059758Y-64473725D01*
X75240436Y-64446741D01*
X75532171Y-64408029D01*
X75900675Y-64362027D01*
X76311657Y-64313172D01*
X77572054Y-64159940D01*
X79217142Y-63941268D01*
X80926717Y-63695130D01*
X82682465Y-63424927D01*
X84466077Y-63134057D01*
X86259239Y-62825920D01*
X88043639Y-62503917D01*
X89800966Y-62171446D01*
X91512908Y-61831908D01*
X93161153Y-61488702D01*
X94727388Y-61145228D01*
X96193303Y-60804886D01*
X97540584Y-60471075D01*
X98750920Y-60147195D01*
X98875148Y-60112476D01*
X99351769Y-59979752D01*
X99860069Y-59838776D01*
X100309203Y-59714759D01*
X100474868Y-59668613D01*
X100901431Y-59545989D01*
X101318543Y-59421632D01*
X101655628Y-59316420D01*
X101711528Y-59298359D01*
X101977746Y-59214139D01*
X102174210Y-59154900D01*
X102261791Y-59132516D01*
X102263862Y-59133954D01*
X102276188Y-59225931D01*
X102283135Y-59440381D01*
X102284195Y-59748015D01*
X102278862Y-60119548D01*
X102257055Y-61106580D01*
X101945399Y-61204336D01*
X101790840Y-61251998D01*
X101500715Y-61340318D01*
X101116518Y-61456637D01*
X100667577Y-61592125D01*
X100183221Y-61737954D01*
X99692779Y-61885294D01*
X99225580Y-62025316D01*
X98810951Y-62149191D01*
X98478221Y-62248091D01*
X98274656Y-62306681D01*
X97909428Y-62407961D01*
X97491069Y-62520912D01*
X97075767Y-62630225D01*
X96983402Y-62654197D01*
X96541086Y-62769541D01*
X96020125Y-62906048D01*
X95477973Y-63048641D01*
X94972086Y-63182245D01*
X94856401Y-63212631D01*
X94330997Y-63345839D01*
X93778692Y-63479475D01*
X93258504Y-63599500D01*
X92829448Y-63691878D01*
X92665334Y-63725294D01*
X92200949Y-63820448D01*
X91661864Y-63931524D01*
X91102395Y-64047319D01*
X90576855Y-64156626D01*
X90219736Y-64229673D01*
X89831659Y-64305309D01*
X89519938Y-64361803D01*
X89309901Y-64394606D01*
X89226874Y-64399165D01*
X89212382Y-64373254D01*
X89162007Y-64224912D01*
X89096068Y-63988377D01*
X89025538Y-63708296D01*
X88961388Y-63429318D01*
X88914592Y-63196092D01*
X88896121Y-63053265D01*
X88849625Y-62863743D01*
X88695659Y-62719849D01*
X88469505Y-62696875D01*
X88327189Y-62741848D01*
X88217304Y-62819092D01*
X88201626Y-62890990D01*
X88187416Y-63094987D01*
X88181292Y-63390704D01*
X88184535Y-63742010D01*
X88189336Y-63965657D01*
X88191700Y-64261270D01*
X88181548Y-64445804D01*
X88153609Y-64547953D01*
X88102612Y-64596411D01*
X88023288Y-64619871D01*
X87838721Y-64655318D01*
X87463263Y-64716289D01*
X86982042Y-64786128D01*
X86424055Y-64861098D01*
X85818298Y-64937465D01*
X85193768Y-65011494D01*
X84579461Y-65079448D01*
X84004372Y-65137593D01*
X83869502Y-65150560D01*
X83398890Y-65197772D01*
X82989234Y-65241862D01*
X82664094Y-65280097D01*
X82447029Y-65309745D01*
X82361598Y-65328076D01*
X82346750Y-65348565D01*
X82361984Y-65393191D01*
X82457223Y-65443083D01*
X82650679Y-65504506D01*
X82960563Y-65583722D01*
X83405085Y-65686997D01*
X84006510Y-65817562D01*
X84696635Y-65950737D01*
X85407587Y-66068098D01*
X86184325Y-66176974D01*
X87071810Y-66284693D01*
X88232516Y-66417485D01*
X88254822Y-67130940D01*
X88271130Y-67481572D01*
X88297529Y-67709263D01*
X88339255Y-67836813D01*
X88401707Y-67892200D01*
X88410085Y-67895213D01*
X88566164Y-67927881D01*
X88808541Y-67957054D01*
X89097010Y-67980547D01*
X89391363Y-67996176D01*
X89651395Y-68001755D01*
X89836899Y-67995101D01*
X89907669Y-67974028D01*
X89905778Y-67952747D01*
X89883253Y-67805540D01*
X89840661Y-67559448D01*
X89784778Y-67254168D01*
X89762410Y-67132051D01*
X89715955Y-66854833D01*
X89689198Y-66657480D01*
X89687385Y-66576498D01*
X89765765Y-66574172D01*
X89957589Y-66589441D01*
X90219325Y-66619344D01*
X90353811Y-66635510D01*
X90790039Y-66679637D01*
X91340168Y-66726424D01*
X91987361Y-66775047D01*
X92714782Y-66824681D01*
X93505597Y-66874502D01*
X94342969Y-66923685D01*
X95210062Y-66971408D01*
X96090041Y-67016844D01*
X96966070Y-67059170D01*
X97821313Y-67097562D01*
X98638934Y-67131196D01*
X99402097Y-67159246D01*
X100093968Y-67180889D01*
X100697709Y-67195301D01*
X101196485Y-67201657D01*
X101573461Y-67199134D01*
X101811801Y-67186906D01*
X102301514Y-67134896D01*
X102279285Y-67977383D01*
X102257055Y-68819871D01*
X100932516Y-69194237D01*
X100737658Y-69248365D01*
X100152198Y-69402743D01*
X99525094Y-69558382D01*
X98919935Y-69699781D01*
X98400307Y-69811442D01*
X98239236Y-69843983D01*
X97756456Y-69943088D01*
X97285969Y-70041709D01*
X96874638Y-70129954D01*
X96569325Y-70197931D01*
X96361361Y-70242421D01*
X95948285Y-70319959D01*
X95489017Y-70396521D01*
X95050000Y-70460619D01*
X94704961Y-70507469D01*
X94180671Y-70581012D01*
X93634598Y-70659689D01*
X93141105Y-70732892D01*
X92728480Y-70792427D01*
X92259969Y-70854409D01*
X91829996Y-70905990D01*
X91496204Y-70939915D01*
X90864187Y-70993703D01*
X90717063Y-70692404D01*
X90681887Y-70624205D01*
X90551162Y-70450259D01*
X90414111Y-70406089D01*
X90311103Y-70415468D01*
X90074738Y-70436301D01*
X89753638Y-70464227D01*
X89386658Y-70495849D01*
X89079402Y-70524720D01*
X88768629Y-70559860D01*
X88543755Y-70592203D01*
X88439525Y-70617293D01*
X88404080Y-70668025D01*
X88402296Y-70810342D01*
X88417632Y-70852111D01*
X88460722Y-70903410D01*
X88543372Y-70945830D01*
X88682168Y-70981670D01*
X88893695Y-71013230D01*
X89194539Y-71042809D01*
X89601287Y-71072709D01*
X90130524Y-71105228D01*
X90798835Y-71142668D01*
X91235039Y-71164680D01*
X91867991Y-71187823D01*
X92476695Y-71196979D01*
X93106009Y-71192116D01*
X93800794Y-71173208D01*
X94605908Y-71140225D01*
X94980978Y-71122689D01*
X95921076Y-71074127D01*
X96747830Y-71022727D01*
X97492409Y-70965286D01*
X98185983Y-70898597D01*
X98859724Y-70819457D01*
X99544800Y-70724661D01*
X100272382Y-70611005D01*
X101073641Y-70475284D01*
X101381267Y-70421513D01*
X101755748Y-70356199D01*
X102012353Y-70313510D01*
X102173045Y-70291711D01*
X102259792Y-70289067D01*
X102294558Y-70303842D01*
X102299309Y-70334300D01*
X102296012Y-70378707D01*
X102295996Y-70380136D01*
X102269030Y-70431649D01*
X102180323Y-70482548D01*
X102014434Y-70536463D01*
X101755922Y-70597024D01*
X101389347Y-70667861D01*
X100899268Y-70752601D01*
X100270246Y-70854876D01*
X99324192Y-70994659D01*
X98307019Y-71118762D01*
X97248457Y-71219924D01*
X96110519Y-71301745D01*
X94855215Y-71367823D01*
X94501678Y-71384152D01*
X94004131Y-71408925D01*
X93571212Y-71432614D01*
X93225686Y-71453878D01*
X92990321Y-71471375D01*
X92887884Y-71483763D01*
X92845570Y-71530366D01*
X92804149Y-71722347D01*
X92790491Y-72063778D01*
X92789994Y-72125409D01*
X92757462Y-72651782D01*
X92679205Y-73280292D01*
X92562422Y-73972147D01*
X92414306Y-74688557D01*
X92242056Y-75390731D01*
X92052868Y-76039878D01*
X91920514Y-76447958D01*
X91732698Y-77000442D01*
X91561480Y-77461462D01*
X91392273Y-77867359D01*
X91210493Y-78254473D01*
X91001551Y-78659144D01*
X90868039Y-78915928D01*
X90739584Y-79180665D01*
X90659580Y-79368125D01*
X90641501Y-79448761D01*
X90648321Y-79452930D01*
X90757409Y-79445199D01*
X90937533Y-79388891D01*
X91084391Y-79326741D01*
X91389752Y-79187028D01*
X91796515Y-78993807D01*
X92283422Y-78757745D01*
X92829212Y-78489510D01*
X93412625Y-78199769D01*
X94012400Y-77899189D01*
X94607279Y-77598436D01*
X95176000Y-77308178D01*
X95697304Y-77039083D01*
X96149930Y-76801817D01*
X96512619Y-76607047D01*
X96764111Y-76465440D01*
X97144203Y-76242182D01*
X97540723Y-76011309D01*
X97897151Y-75805687D01*
X98166565Y-75652512D01*
X98368761Y-75537476D01*
X98768561Y-75301100D01*
X99223150Y-75021080D01*
X99750717Y-74685946D01*
X100369452Y-74284228D01*
X101097545Y-73804459D01*
X102296012Y-73010451D01*
X102296012Y-73464873D01*
X102296012Y-73919295D01*
X101146779Y-74731985D01*
X100807551Y-74971842D01*
X100333967Y-75306481D01*
X99963011Y-75568143D01*
X99679336Y-75767517D01*
X99467600Y-75915289D01*
X99312457Y-76022147D01*
X99198563Y-76098778D01*
X99110573Y-76155869D01*
X99033143Y-76204108D01*
X99001447Y-76223776D01*
X98838110Y-76326398D01*
X98568461Y-76496623D01*
X98210475Y-76723075D01*
X97782128Y-76994378D01*
X97301392Y-77299159D01*
X96786244Y-77626041D01*
X96547004Y-77777747D01*
X96059814Y-78085606D01*
X95623169Y-78360087D01*
X95253241Y-78591115D01*
X94966202Y-78768611D01*
X94778221Y-78882498D01*
X94705471Y-78922700D01*
X94648152Y-78946607D01*
X94488850Y-79031425D01*
X94270859Y-79156443D01*
X94092501Y-79257827D01*
X93907196Y-79353312D01*
X93810072Y-79390185D01*
X93785061Y-79372646D01*
X93718230Y-79247322D01*
X93647961Y-79041052D01*
X93616776Y-78939979D01*
X93533228Y-78732568D01*
X93456944Y-78614515D01*
X93414142Y-78600148D01*
X93254524Y-78628167D01*
X92983297Y-78731413D01*
X92590121Y-78913453D01*
X92419277Y-78995853D01*
X91961484Y-79211957D01*
X91484511Y-79431951D01*
X91067656Y-79619082D01*
X90833224Y-79724209D01*
X90555944Y-79861538D01*
X90371166Y-79980255D01*
X90246128Y-80102910D01*
X90148067Y-80252055D01*
X90048332Y-80455655D01*
X90018219Y-80635152D01*
X90058965Y-80849496D01*
X90072065Y-80897880D01*
X90120965Y-81105445D01*
X90140977Y-81238286D01*
X90131459Y-81259555D01*
X90020612Y-81350422D01*
X89811625Y-81474106D01*
X89537577Y-81610220D01*
X89207932Y-81779944D01*
X88916755Y-81967577D01*
X88727646Y-82135340D01*
X88722041Y-82142079D01*
X88583928Y-82290480D01*
X88489285Y-82329676D01*
X88394721Y-82278299D01*
X88295656Y-82222151D01*
X88166685Y-82230662D01*
X87958026Y-82312771D01*
X87766856Y-82411206D01*
X87663266Y-82505003D01*
X87707830Y-82563944D01*
X87901381Y-82584035D01*
X87917448Y-82583779D01*
X88109889Y-82570409D01*
X88411702Y-82540205D01*
X88783574Y-82497974D01*
X89186194Y-82448520D01*
X89580249Y-82396648D01*
X89926426Y-82347162D01*
X90185415Y-82304869D01*
X90213210Y-82299850D01*
X90336544Y-82289285D01*
X90414634Y-82333674D01*
X90475710Y-82464951D01*
X90547998Y-82715049D01*
X90611182Y-82950660D01*
X90716744Y-83362837D01*
X90805771Y-83733605D01*
X90872107Y-84035740D01*
X90909598Y-84242024D01*
X90912088Y-84325233D01*
X90893822Y-84334189D01*
X90757111Y-84387435D01*
X90514049Y-84476417D01*
X90194109Y-84590832D01*
X89826761Y-84720381D01*
X89441479Y-84854762D01*
X89067733Y-84983674D01*
X88734995Y-85096815D01*
X88472736Y-85183885D01*
X88310430Y-85234582D01*
X88139467Y-85283252D01*
X87806965Y-85379328D01*
X87477528Y-85477000D01*
X87113279Y-85587721D01*
X86676340Y-85722941D01*
X86128835Y-85894110D01*
X86093328Y-85905231D01*
X85633497Y-86046356D01*
X85213464Y-86168078D01*
X84801043Y-86278270D01*
X84364048Y-86384805D01*
X83870290Y-86495556D01*
X83287584Y-86618395D01*
X82583743Y-86761194D01*
X82547497Y-86768471D01*
X82171794Y-86845203D01*
X81848930Y-86913367D01*
X81612257Y-86965790D01*
X81495129Y-86995301D01*
X81439789Y-87018221D01*
X81416767Y-87065918D01*
X81528850Y-87105835D01*
X81761686Y-87137602D01*
X82100922Y-87160848D01*
X82532205Y-87175200D01*
X83041182Y-87180289D01*
X83613499Y-87175743D01*
X84234805Y-87161190D01*
X84890746Y-87136261D01*
X85566969Y-87100583D01*
X85630290Y-87096688D01*
X86198826Y-87056759D01*
X86824708Y-87005351D01*
X87477534Y-86945616D01*
X88126902Y-86880708D01*
X88742411Y-86813778D01*
X89293658Y-86747980D01*
X89750241Y-86686467D01*
X90081758Y-86632391D01*
X90259772Y-86599147D01*
X90590297Y-86538816D01*
X90983553Y-86468070D01*
X91388037Y-86396221D01*
X91738028Y-86331360D01*
X92963490Y-86061601D01*
X94265864Y-85715454D01*
X95607217Y-85304318D01*
X96949617Y-84839592D01*
X98255130Y-84332674D01*
X98345120Y-84296154D01*
X98726753Y-84151993D01*
X99074893Y-84036315D01*
X99367208Y-83954761D01*
X99581367Y-83912973D01*
X99695038Y-83916591D01*
X99685890Y-83971256D01*
X99655808Y-83992409D01*
X99499715Y-84073826D01*
X99239740Y-84195511D01*
X98903142Y-84344910D01*
X98517178Y-84509470D01*
X98387799Y-84564269D01*
X97962724Y-84753037D01*
X97562752Y-84942625D01*
X97227817Y-85113655D01*
X96997853Y-85246749D01*
X96814789Y-85365297D01*
X96498870Y-85566722D01*
X96135151Y-85796191D01*
X95771233Y-86023558D01*
X95494519Y-86195506D01*
X95111121Y-86433892D01*
X94757775Y-86653740D01*
X94485650Y-86823225D01*
X94045293Y-87091264D01*
X93286607Y-87529494D01*
X92486307Y-87967207D01*
X91686649Y-88382103D01*
X90929889Y-88751882D01*
X90258282Y-89054242D01*
X90239377Y-89062477D01*
X90083913Y-89133288D01*
X89826260Y-89252879D01*
X89497453Y-89406793D01*
X89128528Y-89580571D01*
X89097614Y-89595140D01*
X88633056Y-89807978D01*
X88092785Y-90046770D01*
X87541395Y-90283353D01*
X87043483Y-90489568D01*
X85932364Y-90938429D01*
X85656855Y-90807691D01*
X85583057Y-90776604D01*
X85235718Y-90720113D01*
X84898213Y-90791442D01*
X84611087Y-90975868D01*
X84414887Y-91258668D01*
X84405858Y-91279650D01*
X84353305Y-91374256D01*
X84273169Y-91454922D01*
X84141323Y-91534055D01*
X83933640Y-91624061D01*
X83625990Y-91737346D01*
X83194247Y-91886318D01*
X82998910Y-91953491D01*
X82625555Y-92085642D01*
X82316897Y-92199888D01*
X82100663Y-92285820D01*
X82004581Y-92333025D01*
X81955997Y-92395566D01*
X81995134Y-92437478D01*
X82152856Y-92441423D01*
X82440021Y-92407434D01*
X82867485Y-92335542D01*
X83318758Y-92253674D01*
X83702842Y-92186668D01*
X83979896Y-92146625D01*
X84174579Y-92133967D01*
X84311554Y-92149118D01*
X84415482Y-92192502D01*
X84511022Y-92264540D01*
X84622838Y-92365656D01*
X84827915Y-92529490D01*
X85024966Y-92614247D01*
X85271779Y-92635584D01*
X85289143Y-92635527D01*
X85523883Y-92612989D01*
X85715267Y-92529092D01*
X85933825Y-92353818D01*
X86012859Y-92278006D01*
X86183142Y-92066044D01*
X86245706Y-91895534D01*
X86257291Y-91813447D01*
X86311059Y-91752371D01*
X86435000Y-91702250D01*
X86657107Y-91651822D01*
X87005368Y-91589820D01*
X87161757Y-91562516D01*
X87555097Y-91488722D01*
X87919934Y-91413997D01*
X88193559Y-91350948D01*
X88197709Y-91349889D01*
X88445256Y-91291387D01*
X88798299Y-91213852D01*
X89210363Y-91127257D01*
X89634970Y-91041580D01*
X89744402Y-91019959D01*
X90351057Y-90897647D01*
X90858836Y-90789624D01*
X91314839Y-90685170D01*
X91766168Y-90573561D01*
X92259927Y-90444077D01*
X92408349Y-90405476D01*
X92686383Y-90339945D01*
X92885806Y-90302381D01*
X92970953Y-90300009D01*
X93001909Y-90356619D01*
X93056569Y-90505517D01*
X93064841Y-90536508D01*
X93065603Y-90592916D01*
X93033008Y-90651267D01*
X92951596Y-90720582D01*
X92805907Y-90809883D01*
X92580480Y-90928193D01*
X92259854Y-91084534D01*
X91828570Y-91287926D01*
X91271166Y-91547394D01*
X91072762Y-91639878D01*
X90674077Y-91826921D01*
X90238346Y-92032452D01*
X89829755Y-92226241D01*
X89531357Y-92361752D01*
X89093060Y-92549070D01*
X88586070Y-92756951D01*
X88051707Y-92968487D01*
X87531289Y-93166772D01*
X87518146Y-93171665D01*
X87028188Y-93354790D01*
X86553000Y-93533628D01*
X86125424Y-93695728D01*
X85778302Y-93828641D01*
X85544479Y-93919917D01*
X85471737Y-93947484D01*
X85185924Y-94044759D01*
X84776160Y-94174361D01*
X84261678Y-94330644D01*
X83661714Y-94507963D01*
X82995502Y-94700675D01*
X82282275Y-94903133D01*
X81541269Y-95109694D01*
X80791718Y-95314713D01*
X80563556Y-95374589D01*
X80127335Y-95478195D01*
X79642557Y-95578592D01*
X79073816Y-95682893D01*
X78385711Y-95798214D01*
X78283298Y-95817176D01*
X78160571Y-95858228D01*
X78172255Y-95896895D01*
X78303560Y-95932459D01*
X78539697Y-95964202D01*
X78865874Y-95991406D01*
X79267303Y-96013353D01*
X79729193Y-96029324D01*
X80236754Y-96038603D01*
X80775197Y-96040471D01*
X81329731Y-96034211D01*
X81885567Y-96019103D01*
X82427914Y-95994431D01*
X82461238Y-95992559D01*
X83385467Y-95932640D01*
X84203589Y-95860631D01*
X84963627Y-95769992D01*
X85713603Y-95654187D01*
X86501540Y-95506679D01*
X87375460Y-95320930D01*
X88528865Y-95052127D01*
X89659946Y-94756950D01*
X90735791Y-94438430D01*
X91793482Y-94084105D01*
X92870101Y-93681512D01*
X94002730Y-93218188D01*
X95228452Y-92681671D01*
X95804935Y-92407731D01*
X96632268Y-91974859D01*
X97519484Y-91472547D01*
X98434720Y-90920159D01*
X99346112Y-90337058D01*
X100221796Y-89742606D01*
X101029908Y-89156168D01*
X102296012Y-88201288D01*
X102295007Y-89113374D01*
X102289498Y-89500791D01*
X102264657Y-89899533D01*
X102214879Y-90227416D01*
X102134805Y-90531903D01*
X102040651Y-90842307D01*
X101924019Y-91246022D01*
X101820345Y-91622700D01*
X101802246Y-91689454D01*
X101697926Y-92038366D01*
X101578301Y-92393809D01*
X101455419Y-92724635D01*
X101341332Y-92999696D01*
X101248088Y-93187846D01*
X101187737Y-93257936D01*
X101182321Y-93257122D01*
X101107156Y-93183013D01*
X101010430Y-93025154D01*
X101000286Y-93006028D01*
X100897430Y-92853832D01*
X100813644Y-92791412D01*
X100797948Y-92791834D01*
X100737730Y-92810919D01*
X100713638Y-92888398D01*
X100634211Y-93094395D01*
X100506781Y-93409071D01*
X100339030Y-93814452D01*
X100138638Y-94292565D01*
X99913288Y-94825440D01*
X99670661Y-95395102D01*
X99418440Y-95983579D01*
X99164306Y-96572900D01*
X98915941Y-97145090D01*
X98681027Y-97682178D01*
X98467246Y-98166191D01*
X98282280Y-98579157D01*
X98133810Y-98903103D01*
X97772189Y-99677677D01*
X97936185Y-99838072D01*
X98100180Y-99998467D01*
X98372934Y-99686811D01*
X98413942Y-99639190D01*
X98687520Y-99294597D01*
X99019682Y-98840234D01*
X99395839Y-98298562D01*
X99801403Y-97692038D01*
X100221787Y-97043123D01*
X100642400Y-96374274D01*
X101048656Y-95707952D01*
X101425966Y-95066615D01*
X101759742Y-94472723D01*
X102257055Y-93561656D01*
X102281230Y-93927175D01*
X102284954Y-94064329D01*
X102267586Y-94212811D01*
X102216014Y-94379336D01*
X102118667Y-94592751D01*
X101963973Y-94881904D01*
X101740362Y-95275642D01*
X101717170Y-95315938D01*
X101038038Y-96455293D01*
X100330651Y-97568722D01*
X99611707Y-98632269D01*
X98897903Y-99621978D01*
X98205937Y-100513890D01*
X97552508Y-101284048D01*
X97486126Y-101358102D01*
X97119788Y-101765874D01*
X96839822Y-102073713D01*
X96631126Y-102295662D01*
X96478598Y-102445765D01*
X96367136Y-102538066D01*
X96281637Y-102586608D01*
X96207000Y-102605435D01*
X96128122Y-102608590D01*
X95995644Y-102591561D01*
X95915376Y-102507320D01*
X95950005Y-102341296D01*
X96098838Y-102080999D01*
X96130789Y-102026695D01*
X96234954Y-101830330D01*
X96390186Y-101525312D01*
X96586396Y-101132366D01*
X96813499Y-100672218D01*
X97061405Y-100165592D01*
X97320028Y-99633215D01*
X97579280Y-99095810D01*
X97829072Y-98574104D01*
X98059318Y-98088822D01*
X98259930Y-97660689D01*
X98420821Y-97310430D01*
X98453229Y-97238280D01*
X98597287Y-96909077D01*
X98761021Y-96524402D01*
X98934363Y-96109120D01*
X99107246Y-95688095D01*
X99269604Y-95286194D01*
X99411369Y-94928283D01*
X99522474Y-94639226D01*
X99592852Y-94443890D01*
X99612436Y-94367140D01*
X99596375Y-94364975D01*
X99487685Y-94415602D01*
X99320915Y-94528950D01*
X99081709Y-94685038D01*
X98724854Y-94860686D01*
X98275252Y-95031380D01*
X97722471Y-95199973D01*
X97056076Y-95369321D01*
X96265632Y-95542276D01*
X95340704Y-95721695D01*
X94270859Y-95910431D01*
X92784073Y-96197048D01*
X90590019Y-96747123D01*
X88399772Y-97448836D01*
X86206749Y-98304143D01*
X85973164Y-98404533D01*
X85389121Y-98663859D01*
X84755453Y-98954943D01*
X84093486Y-99267202D01*
X83424545Y-99590053D01*
X82769955Y-99912911D01*
X82151043Y-100225193D01*
X81589134Y-100516315D01*
X81105553Y-100775693D01*
X80721626Y-100992743D01*
X80458678Y-101156882D01*
X80189859Y-101333216D01*
X79824085Y-101560826D01*
X79417057Y-101805154D01*
X79017267Y-102036604D01*
X79016960Y-102036778D01*
X78625408Y-102263324D01*
X78234571Y-102497830D01*
X77889737Y-102712636D01*
X77636197Y-102880082D01*
X77601912Y-102903773D01*
X77285537Y-103109452D01*
X76913557Y-103335028D01*
X76559410Y-103535782D01*
X76391820Y-103628999D01*
X76011435Y-103852035D01*
X75600442Y-104104338D01*
X75222622Y-104347194D01*
X74881384Y-104572701D01*
X74211741Y-105010881D01*
X73597190Y-105405811D01*
X72988161Y-105789171D01*
X72335087Y-106192639D01*
X72210403Y-106269103D01*
X71541157Y-106680026D01*
X70991373Y-107018626D01*
X70549290Y-107292237D01*
X70203149Y-107508188D01*
X69941187Y-107673812D01*
X69751644Y-107796439D01*
X69622759Y-107883400D01*
X69400721Y-108032028D01*
X69047107Y-108259580D01*
X68566521Y-108563047D01*
X67962304Y-108940302D01*
X67840947Y-109018631D01*
X67603941Y-109178384D01*
X67351534Y-109354176D01*
X67191566Y-109462870D01*
X66868235Y-109664718D01*
X66572393Y-109830760D01*
X66429795Y-109908727D01*
X66157440Y-110078346D01*
X65945882Y-110234984D01*
X65771815Y-110366466D01*
X65505852Y-110541668D01*
X65219227Y-110711657D01*
X64969066Y-110858230D01*
X64605416Y-111088432D01*
X64287455Y-111306802D01*
X64002811Y-111501478D01*
X63642060Y-111727948D01*
X63300000Y-111925380D01*
X63282451Y-111934951D01*
X62974150Y-112114758D01*
X62683415Y-112302840D01*
X62471039Y-112459990D01*
X62417902Y-112502191D01*
X62182033Y-112665357D01*
X61876198Y-112854432D01*
X61552763Y-113036538D01*
X61439841Y-113098020D01*
X61128647Y-113280072D01*
X60860589Y-113453777D01*
X60683826Y-113588539D01*
X60629029Y-113634617D01*
X60412784Y-113789987D01*
X60124130Y-113975236D01*
X59810078Y-114159639D01*
X59689106Y-114228583D01*
X59375967Y-114418658D01*
X59104440Y-114598703D01*
X58922639Y-114737393D01*
X58893923Y-114761798D01*
X58683117Y-114913562D01*
X58396392Y-115092819D01*
X58087150Y-115265796D01*
X58029613Y-115296388D01*
X57715744Y-115476959D01*
X57431227Y-115660660D01*
X57231555Y-115812061D01*
X57191159Y-115846122D01*
X56966677Y-116008051D01*
X56669574Y-116195990D01*
X56352933Y-116375876D01*
X56266002Y-116423045D01*
X55954862Y-116604258D01*
X55681266Y-116780847D01*
X55496194Y-116920408D01*
X55473347Y-116940026D01*
X55266577Y-117091252D01*
X54983408Y-117271333D01*
X54678096Y-117445448D01*
X54642777Y-117464515D01*
X54322444Y-117650927D01*
X54019225Y-117847720D01*
X53794479Y-118015322D01*
X53607659Y-118149519D01*
X53315493Y-118329123D01*
X52961738Y-118527653D01*
X52586810Y-118721476D01*
X52538298Y-118745446D01*
X52203741Y-118912470D01*
X51925985Y-119054034D01*
X51732770Y-119155835D01*
X51651841Y-119203567D01*
X51625431Y-119226127D01*
X51483057Y-119307816D01*
X51288369Y-119391910D01*
X51089594Y-119461011D01*
X50934961Y-119497720D01*
X50872700Y-119484639D01*
X50872718Y-119484246D01*
X50935396Y-119423705D01*
X51096148Y-119307122D01*
X51320706Y-119159378D01*
X51548770Y-119008952D01*
X51794055Y-118834079D01*
X51963497Y-118698336D01*
X51976957Y-118686476D01*
X52154375Y-118556683D01*
X52413661Y-118393201D01*
X52703681Y-118228486D01*
X53026693Y-118043970D01*
X53365345Y-117831632D01*
X53638651Y-117641683D01*
X53664658Y-117622252D01*
X53940521Y-117431582D01*
X54278910Y-117216554D01*
X54612577Y-117020087D01*
X54689517Y-116976462D01*
X54982352Y-116800872D01*
X55232181Y-116637319D01*
X55391718Y-116516372D01*
X55452227Y-116467347D01*
X55657624Y-116325434D01*
X55937277Y-116150258D01*
X56248773Y-115968910D01*
X56395020Y-115885334D01*
X56707961Y-115695992D01*
X56974909Y-115521171D01*
X57150101Y-115390253D01*
X57194857Y-115353764D01*
X57408538Y-115203620D01*
X57695707Y-115023270D01*
X58007157Y-114844074D01*
X58093099Y-114796326D01*
X58419839Y-114604032D01*
X58719669Y-114412906D01*
X58936810Y-114258105D01*
X59117330Y-114126060D01*
X59414852Y-113931665D01*
X59715951Y-113754733D01*
X59940594Y-113625031D01*
X60282713Y-113409495D01*
X60575751Y-113206242D01*
X60774724Y-113065495D01*
X61111671Y-112846645D01*
X61432806Y-112656414D01*
X61729074Y-112481113D01*
X62081504Y-112254888D01*
X62403988Y-112032330D01*
X62411147Y-112027151D01*
X62719018Y-111816513D01*
X63040395Y-111615251D01*
X63306840Y-111466272D01*
X63440626Y-111394902D01*
X63767208Y-111197792D01*
X64058035Y-110996427D01*
X64108881Y-110958494D01*
X64372093Y-110775817D01*
X64697069Y-110564753D01*
X65025122Y-110363699D01*
X65081795Y-110330045D01*
X65443969Y-110109547D01*
X65815295Y-109876109D01*
X66123614Y-109674973D01*
X66347327Y-109526681D01*
X66688177Y-109304484D01*
X67071179Y-109057651D01*
X67448154Y-108817374D01*
X67475446Y-108800091D01*
X67878566Y-108544097D01*
X68351528Y-108242757D01*
X68837652Y-107932227D01*
X69280260Y-107648663D01*
X69536400Y-107484299D01*
X70145492Y-107094158D01*
X70651488Y-106771421D01*
X71074557Y-106503414D01*
X71434870Y-106277459D01*
X71752596Y-106080881D01*
X72047905Y-105901005D01*
X72340968Y-105725154D01*
X72562123Y-105592531D01*
X72857523Y-105412326D01*
X73163750Y-105221246D01*
X73504539Y-105004131D01*
X73903624Y-104745822D01*
X74384741Y-104431159D01*
X74971623Y-104044983D01*
X75160428Y-103922224D01*
X75546848Y-103678835D01*
X75924651Y-103449429D01*
X76233743Y-103270865D01*
X76342846Y-103209287D01*
X76693582Y-103001335D01*
X77081712Y-102760445D01*
X77441411Y-102527155D01*
X77577419Y-102437547D01*
X77946051Y-102203423D01*
X78311017Y-101981875D01*
X78610123Y-101811012D01*
X78904069Y-101652053D01*
X79292915Y-101441968D01*
X79646439Y-101251145D01*
X79951777Y-101076026D01*
X80278608Y-100870453D01*
X80539062Y-100688436D01*
X80616002Y-100635578D01*
X80853637Y-100493081D01*
X81198228Y-100300705D01*
X81628012Y-100069599D01*
X82121227Y-99810911D01*
X82656110Y-99535791D01*
X83210900Y-99255386D01*
X83763832Y-98980845D01*
X84293146Y-98723316D01*
X84777078Y-98493948D01*
X85193865Y-98303889D01*
X85541072Y-98151823D01*
X87146527Y-97495505D01*
X88757981Y-96910905D01*
X90346188Y-96407440D01*
X91881906Y-95994530D01*
X93335890Y-95681593D01*
X93755664Y-95604350D01*
X94278606Y-95508889D01*
X94823323Y-95410067D01*
X95322700Y-95320096D01*
X95937489Y-95206801D01*
X96743625Y-95044098D01*
X97422349Y-94883914D01*
X97990288Y-94718718D01*
X98464072Y-94540980D01*
X98860328Y-94343167D01*
X99195685Y-94117749D01*
X99486772Y-93857196D01*
X99750218Y-93553975D01*
X100002650Y-93200557D01*
X100193133Y-92914072D01*
X100409430Y-92584699D01*
X100547630Y-92352427D01*
X100610197Y-92196161D01*
X100599593Y-92094804D01*
X100518279Y-92027261D01*
X100368719Y-91972434D01*
X100153374Y-91909228D01*
X100067173Y-91882637D01*
X99772613Y-91787175D01*
X99413960Y-91666577D01*
X99050277Y-91540581D01*
X98336750Y-91289124D01*
X97725737Y-91639898D01*
X96044362Y-92544058D01*
X94161302Y-93425615D01*
X92236662Y-94197751D01*
X90301704Y-94847999D01*
X88387690Y-95363892D01*
X87511064Y-95563277D01*
X86460418Y-95779780D01*
X85483339Y-95950540D01*
X84538939Y-96081021D01*
X83586331Y-96176688D01*
X82584629Y-96243006D01*
X81492945Y-96285441D01*
X81187533Y-96294102D01*
X80643798Y-96310717D01*
X80223722Y-96326887D01*
X79905474Y-96344977D01*
X79667225Y-96367349D01*
X79487144Y-96396367D01*
X79343401Y-96434395D01*
X79214165Y-96483795D01*
X79077608Y-96546931D01*
X78928780Y-96618010D01*
X78693664Y-96729006D01*
X78407089Y-96862798D01*
X78046482Y-97029870D01*
X77589271Y-97240704D01*
X77012884Y-97505783D01*
X76824328Y-97590776D01*
X76483277Y-97739927D01*
X76155828Y-97878767D01*
X75941548Y-97968616D01*
X75608962Y-98109606D01*
X75206937Y-98281031D01*
X74765877Y-98469832D01*
X74316189Y-98662948D01*
X73888278Y-98847321D01*
X73512550Y-99009890D01*
X73219410Y-99137596D01*
X73039264Y-99217379D01*
X72957227Y-99252996D01*
X72716716Y-99352294D01*
X72382826Y-99486687D01*
X71988872Y-99642989D01*
X71568166Y-99808019D01*
X71154022Y-99968593D01*
X70779755Y-100111528D01*
X70456678Y-100233899D01*
X69812134Y-100479704D01*
X69227312Y-100704973D01*
X68716586Y-100904038D01*
X68294332Y-101071232D01*
X67974924Y-101200888D01*
X67772737Y-101287337D01*
X67702147Y-101324913D01*
X67761278Y-101331320D01*
X67937214Y-101326149D01*
X68189111Y-101309474D01*
X68420125Y-101295166D01*
X68587622Y-101293539D01*
X68637117Y-101306261D01*
X68636969Y-101306395D01*
X68544270Y-101356414D01*
X68337384Y-101452069D01*
X68046372Y-101580554D01*
X67701292Y-101729063D01*
X67332204Y-101884790D01*
X66969168Y-102034929D01*
X66642243Y-102166673D01*
X66381490Y-102267217D01*
X66237682Y-102322463D01*
X65971974Y-102442727D01*
X65849869Y-102532628D01*
X65873868Y-102589597D01*
X66046473Y-102611068D01*
X66162376Y-102615645D01*
X66205521Y-102643549D01*
X66122298Y-102718577D01*
X66102754Y-102731808D01*
X65938594Y-102814300D01*
X65682925Y-102920704D01*
X65382114Y-103031422D01*
X65035211Y-103151866D01*
X64591670Y-103309124D01*
X64263722Y-103431055D01*
X64031341Y-103525528D01*
X63874500Y-103600411D01*
X63773173Y-103663573D01*
X63674537Y-103762711D01*
X63699877Y-103838646D01*
X63875549Y-103875975D01*
X63875656Y-103875983D01*
X64015338Y-103904861D01*
X64009691Y-103960947D01*
X63856417Y-104046286D01*
X63553221Y-104162922D01*
X63547298Y-104165002D01*
X63149562Y-104313430D01*
X62794548Y-104461889D01*
X62508487Y-104597918D01*
X62317614Y-104709058D01*
X62248160Y-104782845D01*
X62255139Y-104812198D01*
X62345552Y-104890824D01*
X62403638Y-104934345D01*
X62360492Y-105007728D01*
X62187342Y-105107770D01*
X61877176Y-105238364D01*
X61422984Y-105403407D01*
X61242655Y-105466489D01*
X60701577Y-105663428D01*
X60301430Y-105823624D01*
X60034903Y-105950446D01*
X59894683Y-106047262D01*
X59873459Y-106117443D01*
X59965854Y-106162847D01*
X60151896Y-106152053D01*
X60220658Y-106139094D01*
X60353984Y-106140398D01*
X60363256Y-106191826D01*
X60257836Y-106274097D01*
X60047086Y-106367929D01*
X59865319Y-106432984D01*
X59551239Y-106545356D01*
X59234826Y-106658530D01*
X59005571Y-106753837D01*
X58712041Y-106909498D01*
X58494642Y-107062822D01*
X58235583Y-107295059D01*
X58449847Y-107241844D01*
X58599238Y-107224896D01*
X58664111Y-107264405D01*
X58660682Y-107283265D01*
X58628266Y-107321207D01*
X58545597Y-107369567D01*
X58393305Y-107436541D01*
X58152020Y-107530329D01*
X57802371Y-107659127D01*
X57324987Y-107831133D01*
X57070247Y-107925987D01*
X56739346Y-108068965D01*
X56556666Y-108183890D01*
X56519621Y-108273967D01*
X56625624Y-108342404D01*
X56872086Y-108392405D01*
X56921024Y-108407652D01*
X56888918Y-108452074D01*
X56722517Y-108526239D01*
X56413477Y-108634552D01*
X56132333Y-108730606D01*
X55635176Y-108920094D01*
X55266518Y-109091081D01*
X55032342Y-109240099D01*
X54938631Y-109363684D01*
X54991367Y-109458369D01*
X55031910Y-109496378D01*
X55003345Y-109585474D01*
X54824703Y-109692064D01*
X54493795Y-109817726D01*
X54358951Y-109865579D01*
X54061233Y-109991534D01*
X53798899Y-110127496D01*
X53593346Y-110258791D01*
X53465968Y-110370743D01*
X53438161Y-110448676D01*
X53531320Y-110477915D01*
X53590055Y-110492059D01*
X53567026Y-110552366D01*
X53441214Y-110644983D01*
X53236533Y-110753384D01*
X52976896Y-110861043D01*
X52796340Y-110933712D01*
X52491556Y-111089799D01*
X52250688Y-111255654D01*
X52101401Y-111410706D01*
X52071362Y-111534382D01*
X52073155Y-111542066D01*
X52007699Y-111633913D01*
X51803573Y-111769621D01*
X51468774Y-111943754D01*
X51110634Y-112131359D01*
X50860066Y-112303371D01*
X50736253Y-112453300D01*
X50637946Y-112573307D01*
X50438487Y-112732043D01*
X50194674Y-112886213D01*
X49959134Y-113002873D01*
X49784492Y-113049081D01*
X49763529Y-112980599D01*
X49745209Y-112764655D01*
X49730288Y-112399790D01*
X49718736Y-111884630D01*
X49710522Y-111217799D01*
X49705616Y-110397924D01*
X49703988Y-109423629D01*
X49704290Y-108583281D01*
X49705533Y-107876861D01*
X49708210Y-107299861D01*
X49712813Y-106839012D01*
X49719834Y-106481049D01*
X49729767Y-106212705D01*
X49743104Y-106020711D01*
X49760336Y-105891802D01*
X49781958Y-105812711D01*
X49808461Y-105770169D01*
X49840338Y-105750911D01*
X49883566Y-105734266D01*
X50063220Y-105657833D01*
X50325565Y-105541399D01*
X50630264Y-105402743D01*
X50767647Y-105341323D01*
X51069787Y-105218656D01*
X51319241Y-105133639D01*
X51472439Y-105101841D01*
X51586171Y-105082527D01*
X51612884Y-105023927D01*
X51606121Y-104983179D01*
X51688645Y-104946013D01*
X51749837Y-104933629D01*
X51855580Y-104833903D01*
X51940883Y-104745999D01*
X52113013Y-104674700D01*
X52283204Y-104630428D01*
X52580688Y-104542698D01*
X52947715Y-104428335D01*
X53342888Y-104300733D01*
X53724813Y-104173287D01*
X54052093Y-104059391D01*
X54283333Y-103972440D01*
X54479496Y-103881425D01*
X54555328Y-103807099D01*
X54527014Y-103729128D01*
X54451445Y-103670156D01*
X54275797Y-103621473D01*
X54235949Y-103620333D01*
X54164495Y-103592949D01*
X54235178Y-103532188D01*
X54440897Y-103442238D01*
X54774550Y-103327289D01*
X55161257Y-103196670D01*
X55621142Y-103015161D01*
X55960838Y-102845437D01*
X56172258Y-102692513D01*
X56247313Y-102561404D01*
X56177917Y-102457124D01*
X56160792Y-102434641D01*
X56224756Y-102362626D01*
X56422390Y-102270202D01*
X56525122Y-102232006D01*
X56717309Y-102166865D01*
X56820898Y-102141105D01*
X56851387Y-102133084D01*
X57000514Y-102073368D01*
X57237698Y-101968083D01*
X57528116Y-101832427D01*
X57613905Y-101791854D01*
X57978170Y-101625926D01*
X58335938Y-101471305D01*
X58620656Y-101356955D01*
X58809132Y-101276331D01*
X59106327Y-101115943D01*
X59335614Y-100953835D01*
X59470643Y-100857757D01*
X59713391Y-100730028D01*
X60063114Y-100578217D01*
X60534124Y-100396170D01*
X61140731Y-100177737D01*
X61588543Y-100019656D01*
X62213949Y-99797145D01*
X62853999Y-99567801D01*
X63454753Y-99350966D01*
X63962270Y-99165982D01*
X64263504Y-99055642D01*
X64725989Y-98887129D01*
X65154996Y-98731804D01*
X65512953Y-98603255D01*
X65762289Y-98515067D01*
X65827870Y-98490924D01*
X66068270Y-98392277D01*
X66382418Y-98254328D01*
X66739405Y-98091669D01*
X67108326Y-97918889D01*
X67458276Y-97750581D01*
X67758346Y-97601334D01*
X67977631Y-97485742D01*
X68085225Y-97418393D01*
X68088337Y-97415042D01*
X68071953Y-97342608D01*
X68056577Y-97334148D01*
X67996266Y-97329679D01*
X67880610Y-97342012D01*
X67693551Y-97374291D01*
X67419030Y-97429659D01*
X67040991Y-97511258D01*
X66543374Y-97622232D01*
X65910123Y-97765724D01*
X65877124Y-97773183D01*
X65428357Y-97867900D01*
X64848600Y-97980789D01*
X64159223Y-98108321D01*
X63381592Y-98246967D01*
X62537074Y-98393199D01*
X61647038Y-98543488D01*
X60732850Y-98694304D01*
X59815878Y-98842121D01*
X58917489Y-98983408D01*
X58059051Y-99114638D01*
X57261932Y-99232281D01*
X56547498Y-99332809D01*
X55937117Y-99412693D01*
X55873516Y-99420002D01*
X55569735Y-99447903D01*
X55144890Y-99480155D01*
X54625620Y-99515294D01*
X54038565Y-99551852D01*
X53410363Y-99588367D01*
X52767654Y-99623371D01*
X52137077Y-99655401D01*
X51545270Y-99682990D01*
X51018873Y-99704674D01*
X50584525Y-99718987D01*
X50268865Y-99724464D01*
X49703988Y-99725768D01*
X49703988Y-97738958D01*
X49703988Y-95752148D01*
X50463651Y-95751070D01*
X50823478Y-95748645D01*
X51899552Y-95723092D01*
X53084254Y-95671809D01*
X54345035Y-95597309D01*
X55649347Y-95502105D01*
X56964640Y-95388711D01*
X58258366Y-95259639D01*
X59497976Y-95117402D01*
X60650920Y-94964514D01*
X61452235Y-94848464D01*
X62486254Y-94693362D01*
X63414118Y-94546015D01*
X64264494Y-94400798D01*
X65066051Y-94252091D01*
X65847454Y-94094271D01*
X66637371Y-93921714D01*
X67464468Y-93728800D01*
X68357414Y-93509906D01*
X69344874Y-93259409D01*
X69416850Y-93240914D01*
X70290982Y-93014051D01*
X71093237Y-92800652D01*
X71843376Y-92594425D01*
X72561163Y-92389078D01*
X73266360Y-92178318D01*
X73978732Y-91955855D01*
X74718040Y-91715394D01*
X75504047Y-91450645D01*
X76356517Y-91155315D01*
X77295213Y-90823112D01*
X78339897Y-90447744D01*
X79510332Y-90022918D01*
X79530423Y-90015584D01*
X79848984Y-89896565D01*
X80258599Y-89739690D01*
X80741102Y-89552241D01*
X81278327Y-89341503D01*
X81852110Y-89114759D01*
X82444285Y-88879292D01*
X83036687Y-88642387D01*
X83611150Y-88411326D01*
X84149509Y-88193393D01*
X84633598Y-87995871D01*
X85045253Y-87826045D01*
X85366308Y-87691198D01*
X85578598Y-87598613D01*
X85663957Y-87555574D01*
X85636093Y-87551351D01*
X85476051Y-87545199D01*
X85189878Y-87539637D01*
X84795566Y-87534866D01*
X84311109Y-87531087D01*
X83754497Y-87528504D01*
X83143723Y-87527316D01*
X82413153Y-87523309D01*
X81683413Y-87512766D01*
X80987680Y-87496544D01*
X80356406Y-87475500D01*
X79820042Y-87450488D01*
X79409039Y-87422365D01*
X79055702Y-87392645D01*
X78686205Y-87366347D01*
X78426538Y-87356993D01*
X78250602Y-87364776D01*
X78132303Y-87389892D01*
X78045542Y-87432536D01*
X77869335Y-87527699D01*
X77544585Y-87675244D01*
X77095732Y-87862404D01*
X76535317Y-88084317D01*
X75875879Y-88336123D01*
X75129959Y-88612958D01*
X74310098Y-88909963D01*
X73428835Y-89222276D01*
X73216840Y-89296326D01*
X72706592Y-89470528D01*
X72303820Y-89599354D01*
X71980356Y-89690242D01*
X71708034Y-89750628D01*
X71458685Y-89787949D01*
X71329884Y-89798925D01*
X71204142Y-89809641D01*
X70936459Y-89821341D01*
X70591188Y-89805902D01*
X70315140Y-89733172D01*
X70056470Y-89586600D01*
X69763333Y-89349632D01*
X69753315Y-89340788D01*
X69586937Y-89174289D01*
X69439562Y-88977327D01*
X69294436Y-88720454D01*
X69134810Y-88374224D01*
X68943933Y-87909190D01*
X68901757Y-87803388D01*
X68795732Y-87541654D01*
X68717663Y-87355139D01*
X68682055Y-87278755D01*
X68611629Y-87263191D01*
X68561554Y-87255199D01*
X68415666Y-87231914D01*
X68125767Y-87190150D01*
X67773335Y-87142603D01*
X67736790Y-87137791D01*
X67282500Y-87074188D01*
X66809980Y-87002104D01*
X66353765Y-86927381D01*
X65948389Y-86855864D01*
X65628387Y-86793396D01*
X65428293Y-86745820D01*
X65335132Y-86760545D01*
X65182281Y-86887590D01*
X64973929Y-87144296D01*
X64522608Y-87706709D01*
X63787232Y-88462739D01*
X62984971Y-89121601D01*
X62140459Y-89663795D01*
X61278330Y-90069819D01*
X60799029Y-90237710D01*
X60079300Y-90448344D01*
X59292539Y-90639811D01*
X58488768Y-90799033D01*
X58093001Y-90857795D01*
X57463431Y-90925160D01*
X56754351Y-90978578D01*
X56009077Y-91016001D01*
X55526412Y-91028673D01*
X55270927Y-91035381D01*
X54583217Y-91034669D01*
X53989264Y-91011817D01*
X53887219Y-91005327D01*
X53509618Y-90983878D01*
X53197269Y-90970099D01*
X52980233Y-90965130D01*
X52888571Y-90970109D01*
X52872074Y-90990036D01*
X52816768Y-91122495D01*
X52755580Y-91330881D01*
X52625120Y-91667886D01*
X52408290Y-91916871D01*
X52087320Y-92080378D01*
X52049347Y-92088377D01*
X51641109Y-92174377D01*
X51290186Y-92228298D01*
X50857849Y-92311443D01*
X50465715Y-92401923D01*
X50269366Y-92452541D01*
X49992715Y-92519000D01*
X49825270Y-92543014D01*
X49739612Y-92522245D01*
X49708324Y-92454357D01*
X49703988Y-92337014D01*
X49704175Y-92308885D01*
X49716234Y-92214208D01*
X49767558Y-92145677D01*
X49886370Y-92088339D01*
X50100889Y-92027245D01*
X50439337Y-91947444D01*
X50625411Y-91905576D01*
X50933714Y-91840271D01*
X51170761Y-91795283D01*
X51296392Y-91778528D01*
X51347875Y-91775323D01*
X51410445Y-91728083D01*
X51342908Y-91619076D01*
X51142138Y-91441472D01*
X51010236Y-91319628D01*
X50794265Y-91091141D01*
X50542058Y-90803424D01*
X50285086Y-90491364D01*
X49703988Y-89761441D01*
X49703988Y-89173706D01*
X49806107Y-89173706D01*
X49819104Y-89273254D01*
X49920953Y-89476623D01*
X50099861Y-89747526D01*
X50336909Y-90063041D01*
X50613179Y-90400244D01*
X50909752Y-90736211D01*
X51207711Y-91048019D01*
X51488136Y-91312743D01*
X51732110Y-91507461D01*
X52049347Y-91727307D01*
X52207088Y-91569566D01*
X52239234Y-91531660D01*
X52344913Y-91326147D01*
X52409789Y-91076619D01*
X52454750Y-90741413D01*
X52208349Y-90790693D01*
X52068258Y-90805234D01*
X51941038Y-90769394D01*
X51791023Y-90660666D01*
X51577514Y-90457557D01*
X51430341Y-90304851D01*
X51113697Y-89924360D01*
X50879589Y-89563456D01*
X50751293Y-89255989D01*
X50718942Y-89148919D01*
X50608659Y-88979489D01*
X50431532Y-88930914D01*
X50159483Y-88990603D01*
X50068778Y-89023326D01*
X49888921Y-89106462D01*
X49806107Y-89173706D01*
X49703988Y-89173706D01*
X49703988Y-88758548D01*
X49703988Y-87892865D01*
X50478964Y-87892865D01*
X50491842Y-88026113D01*
X50564873Y-88248396D01*
X50704447Y-88584050D01*
X50812426Y-88828750D01*
X51004742Y-89244338D01*
X51168263Y-89558595D01*
X51320872Y-89801478D01*
X51480453Y-90002948D01*
X51664890Y-90192962D01*
X52002454Y-90516292D01*
X53355641Y-90613831D01*
X54014774Y-90652795D01*
X55526412Y-90676080D01*
X56977739Y-90605539D01*
X58346279Y-90442699D01*
X59609555Y-90189086D01*
X60304243Y-90000712D01*
X61134040Y-89717258D01*
X61864195Y-89385713D01*
X62526428Y-88988874D01*
X63152456Y-88509541D01*
X63773998Y-87930509D01*
X63967299Y-87732111D01*
X64296699Y-87374673D01*
X64565408Y-87057038D01*
X64760332Y-86796064D01*
X64868375Y-86608604D01*
X64876442Y-86511515D01*
X64865004Y-86504244D01*
X64739360Y-86458343D01*
X64512033Y-86391268D01*
X64222249Y-86314814D01*
X63822573Y-86206276D01*
X63349588Y-86063663D01*
X62835590Y-85897752D01*
X62304327Y-85717178D01*
X61779541Y-85530580D01*
X61284977Y-85346595D01*
X60844382Y-85173858D01*
X60481498Y-85021008D01*
X60258381Y-84914899D01*
X61009770Y-84914899D01*
X61135297Y-85005444D01*
X61401356Y-85131907D01*
X61805584Y-85291887D01*
X62752440Y-85621765D01*
X64504172Y-86125186D01*
X66348900Y-86526606D01*
X68267025Y-86821385D01*
X68406750Y-86837233D01*
X68561554Y-86839159D01*
X68624932Y-86794413D01*
X68637117Y-86688555D01*
X68636199Y-86645492D01*
X68604757Y-86489104D01*
X68511266Y-86375593D01*
X68332299Y-86293037D01*
X68044430Y-86229516D01*
X67624233Y-86173107D01*
X67621733Y-86172819D01*
X67383951Y-86143723D01*
X67144709Y-86110043D01*
X66889002Y-86068596D01*
X66601824Y-86016198D01*
X66268171Y-85949666D01*
X66097805Y-85913513D01*
X65873037Y-85865816D01*
X65401416Y-85761466D01*
X64838304Y-85633432D01*
X64168695Y-85478530D01*
X63377583Y-85293577D01*
X62449964Y-85075390D01*
X62340932Y-85050188D01*
X61975058Y-84971619D01*
X61637306Y-84907014D01*
X61389180Y-84868378D01*
X61189754Y-84851166D01*
X61027136Y-84862672D01*
X61009770Y-84914899D01*
X60258381Y-84914899D01*
X60220072Y-84896680D01*
X60083847Y-84809512D01*
X60071821Y-84795597D01*
X60068219Y-84755466D01*
X60129359Y-84722893D01*
X60268250Y-84696970D01*
X60497906Y-84676793D01*
X60831338Y-84661456D01*
X61281559Y-84650051D01*
X61861578Y-84641674D01*
X62584410Y-84635419D01*
X62825497Y-84633530D01*
X63432005Y-84626751D01*
X63994464Y-84617677D01*
X64490517Y-84606841D01*
X64897809Y-84594779D01*
X65193985Y-84582026D01*
X65356689Y-84569116D01*
X65699267Y-84519536D01*
X65648938Y-83727406D01*
X65601056Y-83182698D01*
X65518998Y-82684765D01*
X65390475Y-82209548D01*
X65200439Y-81688651D01*
X65125876Y-81509980D01*
X65545044Y-81509980D01*
X65561973Y-81637632D01*
X65624569Y-81841055D01*
X65735068Y-82156136D01*
X65748258Y-82194610D01*
X65854469Y-82583889D01*
X65946981Y-83055725D01*
X66012730Y-83544779D01*
X66097805Y-84388023D01*
X66763627Y-84337293D01*
X66999725Y-84319635D01*
X67336994Y-84289310D01*
X67550788Y-84246313D01*
X67661611Y-84171037D01*
X67689970Y-84043877D01*
X67656370Y-83845227D01*
X67581318Y-83555481D01*
X67502496Y-83298992D01*
X67400270Y-83097788D01*
X67241605Y-82902543D01*
X66993115Y-82662577D01*
X66767317Y-82445075D01*
X66584921Y-82225289D01*
X66452827Y-81985517D01*
X66390394Y-81821715D01*
X67870455Y-81821715D01*
X67924997Y-81915662D01*
X67944988Y-81937163D01*
X68003473Y-82078474D01*
X68051109Y-82292894D01*
X68071018Y-82387449D01*
X68136543Y-82637755D01*
X68238128Y-82994671D01*
X68368420Y-83433149D01*
X68520066Y-83928141D01*
X68685714Y-84454602D01*
X68837433Y-84927090D01*
X69100150Y-85723625D01*
X69332959Y-86394165D01*
X69542728Y-86954798D01*
X69736325Y-87421616D01*
X69920621Y-87810708D01*
X70102485Y-88138165D01*
X70288784Y-88420077D01*
X70486390Y-88672535D01*
X70548319Y-88744891D01*
X70844980Y-89057243D01*
X71097308Y-89250119D01*
X71329884Y-89338649D01*
X71567286Y-89337965D01*
X71719500Y-89300793D01*
X71991044Y-89219616D01*
X72353481Y-89103510D01*
X72782921Y-88960844D01*
X73255474Y-88799988D01*
X73747251Y-88629312D01*
X74234363Y-88457184D01*
X74692921Y-88291975D01*
X75099036Y-88142053D01*
X75428817Y-88015790D01*
X75658376Y-87921554D01*
X75763823Y-87867714D01*
X75764428Y-87867185D01*
X75761121Y-87831137D01*
X75624461Y-87841138D01*
X75368871Y-87894198D01*
X75008773Y-87987329D01*
X74558589Y-88117540D01*
X74006883Y-88279360D01*
X73481706Y-88418848D01*
X73454735Y-88426012D01*
X72995633Y-88524178D01*
X72600838Y-88577517D01*
X72241611Y-88589691D01*
X71889213Y-88564359D01*
X71534818Y-88508329D01*
X71514904Y-88505181D01*
X71240163Y-88433336D01*
X71020153Y-88310258D01*
X70795904Y-88096132D01*
X70407554Y-87634066D01*
X70306377Y-87485013D01*
X70896626Y-87485013D01*
X70911965Y-87542897D01*
X71021431Y-87695378D01*
X71194727Y-87857458D01*
X71382356Y-87986196D01*
X71534818Y-88038651D01*
X71621577Y-88027941D01*
X71847865Y-87976810D01*
X72153310Y-87893101D01*
X72496963Y-87787501D01*
X73273006Y-87536351D01*
X72532822Y-87484566D01*
X72406114Y-87476003D01*
X72008873Y-87452301D01*
X71632656Y-87433846D01*
X71344632Y-87424059D01*
X71149954Y-87427235D01*
X70967192Y-87448968D01*
X70896626Y-87485013D01*
X70306377Y-87485013D01*
X69991449Y-87021063D01*
X69742994Y-86550548D01*
X70121683Y-86550548D01*
X70133026Y-86663322D01*
X70255567Y-86846039D01*
X70287955Y-86884083D01*
X70347566Y-86931970D01*
X70436942Y-86968443D01*
X70577085Y-86996111D01*
X70788996Y-87017585D01*
X71093674Y-87035475D01*
X71512121Y-87052390D01*
X72065338Y-87070940D01*
X72347546Y-87078848D01*
X72914917Y-87088318D01*
X73481706Y-87090237D01*
X74028510Y-87085252D01*
X74535926Y-87074008D01*
X74984550Y-87057151D01*
X75354978Y-87035328D01*
X75627806Y-87009184D01*
X75783632Y-86979365D01*
X75803052Y-86946517D01*
X75749979Y-86924908D01*
X75533394Y-86878676D01*
X75181312Y-86829848D01*
X74707265Y-86779774D01*
X74124784Y-86729806D01*
X73447402Y-86681294D01*
X72688651Y-86635589D01*
X72210310Y-86608405D01*
X71710398Y-86578393D01*
X71258755Y-86549704D01*
X70891164Y-86524616D01*
X70643405Y-86505406D01*
X70479771Y-86493396D01*
X70233333Y-86497360D01*
X70121683Y-86550548D01*
X69742994Y-86550548D01*
X69626521Y-86329976D01*
X69299465Y-85535024D01*
X68996979Y-84610430D01*
X68950819Y-84454494D01*
X68825339Y-84033099D01*
X68687085Y-83571354D01*
X68558510Y-83144340D01*
X68488065Y-82905545D01*
X68386738Y-82541578D01*
X68306373Y-82228264D01*
X68259918Y-82014585D01*
X68230679Y-81875405D01*
X68162703Y-81729849D01*
X68057097Y-81688651D01*
X67929113Y-81727612D01*
X67870455Y-81821715D01*
X66390394Y-81821715D01*
X66330628Y-81664910D01*
X66253782Y-81428264D01*
X66121655Y-80885020D01*
X66073629Y-80372427D01*
X66101448Y-79824175D01*
X66102287Y-79816472D01*
X66225301Y-79312406D01*
X66463388Y-78893304D01*
X66463797Y-78892917D01*
X67277617Y-78892917D01*
X67297408Y-79108349D01*
X67384475Y-79356808D01*
X67519845Y-79575057D01*
X67527809Y-79584598D01*
X67656583Y-79793185D01*
X67658634Y-79967862D01*
X67648914Y-79998640D01*
X67604351Y-80351141D01*
X67652218Y-80737704D01*
X67663915Y-80782055D01*
X67705168Y-80872664D01*
X67787668Y-80918645D01*
X67949555Y-80932499D01*
X68228968Y-80926726D01*
X68499387Y-80927353D01*
X68750470Y-80946732D01*
X68902736Y-80981103D01*
X68936243Y-80996315D01*
X68998298Y-81005147D01*
X69026387Y-80945387D01*
X69026733Y-80788207D01*
X69005559Y-80504780D01*
X68994883Y-80399199D01*
X68890027Y-79889576D01*
X68711147Y-79442405D01*
X68473166Y-79087887D01*
X68191007Y-78856225D01*
X68143297Y-78835719D01*
X67928817Y-78786540D01*
X67672911Y-78766872D01*
X67570294Y-78769374D01*
X67381853Y-78790221D01*
X67294915Y-78825308D01*
X67277617Y-78892917D01*
X66463797Y-78892917D01*
X66799954Y-78574930D01*
X67218405Y-78373051D01*
X67702147Y-78303430D01*
X67710676Y-78303466D01*
X68007242Y-78320706D01*
X68241534Y-78384490D01*
X68468719Y-78518216D01*
X68743963Y-78745280D01*
X68938694Y-78955220D01*
X69190135Y-79387528D01*
X69356534Y-79904624D01*
X69434702Y-80476127D01*
X69421451Y-81071656D01*
X69313591Y-81660831D01*
X69107936Y-82213271D01*
X68998298Y-82437999D01*
X68874653Y-82691438D01*
X69071623Y-83337202D01*
X69109351Y-83458346D01*
X69201391Y-83733208D01*
X69277092Y-83931402D01*
X69322947Y-84016426D01*
X69355035Y-84021647D01*
X69524839Y-84012055D01*
X69818307Y-83977920D01*
X70215716Y-83922407D01*
X70697340Y-83848681D01*
X71243457Y-83759905D01*
X71834340Y-83659246D01*
X72450267Y-83549868D01*
X73071513Y-83434935D01*
X73678353Y-83317613D01*
X74052425Y-83243857D01*
X74444726Y-83167319D01*
X74760624Y-83106595D01*
X74974649Y-83066575D01*
X75061329Y-83052148D01*
X75065005Y-83051912D01*
X75103988Y-82988528D01*
X75103868Y-82987141D01*
X75028302Y-82941059D01*
X74839926Y-82882158D01*
X74578068Y-82822829D01*
X74339068Y-82773618D01*
X74046271Y-82697799D01*
X73783398Y-82601072D01*
X73511471Y-82465739D01*
X73191512Y-82274100D01*
X72784543Y-82008459D01*
X72656089Y-81921498D01*
X71992753Y-81424484D01*
X71330921Y-80844779D01*
X70658804Y-80169951D01*
X69964615Y-79387566D01*
X69236564Y-78485192D01*
X68462863Y-77450394D01*
X68451048Y-77434055D01*
X68069507Y-76883281D01*
X67662574Y-76257448D01*
X67260719Y-75605913D01*
X66894409Y-74978031D01*
X66594113Y-74423160D01*
X66535241Y-74316846D01*
X66423187Y-74156199D01*
X66342603Y-74093689D01*
X66304800Y-74110503D01*
X66187066Y-74221382D01*
X66044274Y-74401374D01*
X65827811Y-74707396D01*
X65745326Y-77068269D01*
X65738099Y-77275082D01*
X65717540Y-77862735D01*
X65698713Y-78400011D01*
X65682358Y-78865840D01*
X65669215Y-79239150D01*
X65660025Y-79498870D01*
X65655528Y-79623927D01*
X65655417Y-79655723D01*
X65669059Y-79855119D01*
X65700778Y-80143741D01*
X65745181Y-80470671D01*
X65782391Y-80729982D01*
X65805937Y-80958385D01*
X65798969Y-81102399D01*
X65758451Y-81201156D01*
X65681350Y-81293790D01*
X65639249Y-81338452D01*
X65571548Y-81422215D01*
X65545044Y-81509980D01*
X65125876Y-81509980D01*
X65125091Y-81508098D01*
X65025841Y-81323411D01*
X64925636Y-81230999D01*
X64795960Y-81196138D01*
X64674944Y-81198116D01*
X64510789Y-81273166D01*
X64316076Y-81456856D01*
X64236381Y-81538104D01*
X64021722Y-81682026D01*
X63830726Y-81678703D01*
X63648110Y-81529806D01*
X63628655Y-81506845D01*
X63547936Y-81437680D01*
X63456452Y-81437896D01*
X63318082Y-81517849D01*
X63096701Y-81687895D01*
X63085138Y-81697064D01*
X62832183Y-81876749D01*
X62646135Y-81945698D01*
X62489822Y-81907705D01*
X62326074Y-81766565D01*
X62316417Y-81756493D01*
X62148199Y-81625699D01*
X61996702Y-81571780D01*
X61952971Y-81577532D01*
X61772997Y-81645864D01*
X61563670Y-81766565D01*
X61325454Y-81898749D01*
X61034544Y-81955032D01*
X60772300Y-81868170D01*
X60690879Y-81829196D01*
X60552126Y-81831704D01*
X60350871Y-81921592D01*
X60348144Y-81923059D01*
X60152096Y-82011752D01*
X59987068Y-82023637D01*
X59766486Y-81965171D01*
X59714582Y-81948844D01*
X59426477Y-81901745D01*
X59117653Y-81945254D01*
X59042012Y-81961899D01*
X58782871Y-81994814D01*
X58579923Y-81988296D01*
X58434586Y-81978097D01*
X58201757Y-82004281D01*
X57972883Y-82063503D01*
X57929055Y-82083159D01*
X57798499Y-82141712D01*
X57729141Y-82224856D01*
X57747151Y-82321682D01*
X57806493Y-82528495D01*
X57892900Y-82786730D01*
X57894041Y-82789942D01*
X57996595Y-83163356D01*
X58068129Y-83592821D01*
X58106620Y-84037067D01*
X58110047Y-84454823D01*
X58076385Y-84804819D01*
X58003613Y-85045784D01*
X57986166Y-85075699D01*
X57767626Y-85298495D01*
X57415737Y-85496472D01*
X56950000Y-85658294D01*
X56916664Y-85668194D01*
X56742188Y-85723467D01*
X56443845Y-85819910D01*
X56038307Y-85952071D01*
X55542244Y-86114496D01*
X54972326Y-86301732D01*
X54345223Y-86508324D01*
X53677608Y-86728819D01*
X53364862Y-86832531D01*
X52720345Y-87048182D01*
X52127928Y-87248946D01*
X51603618Y-87429243D01*
X51163418Y-87583493D01*
X50823335Y-87706115D01*
X50599372Y-87791528D01*
X50507535Y-87834152D01*
X50478964Y-87892865D01*
X49703988Y-87892865D01*
X49703988Y-87755655D01*
X50697393Y-87398882D01*
X50777490Y-87370296D01*
X51187819Y-87227225D01*
X51697302Y-87053582D01*
X52266209Y-86862719D01*
X52854809Y-86667988D01*
X53423372Y-86482742D01*
X53756752Y-86374353D01*
X54326617Y-86183989D01*
X54753882Y-86032808D01*
X55043509Y-85918771D01*
X55200461Y-85839840D01*
X55229700Y-85793977D01*
X55136188Y-85779142D01*
X55095756Y-85772023D01*
X54917348Y-85706881D01*
X54640254Y-85584228D01*
X54290425Y-85416962D01*
X53893811Y-85217980D01*
X53476362Y-85000180D01*
X53064028Y-84776460D01*
X52682759Y-84559718D01*
X52314983Y-84338942D01*
X51757664Y-83975507D01*
X51234064Y-83590342D01*
X50700244Y-83150332D01*
X50112266Y-82622362D01*
X49972853Y-82489679D01*
X49803962Y-82303149D01*
X49725789Y-82159358D01*
X49716533Y-82025422D01*
X49725331Y-81970403D01*
X49752137Y-81917020D01*
X49811132Y-81923946D01*
X49922228Y-82003228D01*
X50105341Y-82166917D01*
X50380386Y-82427059D01*
X50569513Y-82604255D01*
X50900509Y-82903020D01*
X51217845Y-83177469D01*
X51472927Y-83384998D01*
X51529647Y-83428207D01*
X51978077Y-83746391D01*
X52489018Y-84075247D01*
X53038612Y-84402396D01*
X53603000Y-84715459D01*
X54158325Y-85002058D01*
X54680727Y-85249813D01*
X55146348Y-85446346D01*
X55531330Y-85579278D01*
X55811816Y-85636230D01*
X55813977Y-85636369D01*
X56037416Y-85619206D01*
X56355382Y-85557246D01*
X56718752Y-85464274D01*
X57078404Y-85354078D01*
X57385213Y-85240445D01*
X57590057Y-85137161D01*
X57739580Y-84998099D01*
X57865199Y-84738365D01*
X57909987Y-84377218D01*
X57878197Y-83896352D01*
X57874812Y-83869717D01*
X57820340Y-83524861D01*
X57765817Y-83328055D01*
X57713183Y-83281196D01*
X57664374Y-83386180D01*
X57621329Y-83644906D01*
X57616666Y-83681854D01*
X57532779Y-84057468D01*
X57398331Y-84382024D01*
X57231541Y-84620616D01*
X57050627Y-84738341D01*
X56930328Y-84760754D01*
X56680841Y-84749415D01*
X56415425Y-84648873D01*
X56108284Y-84447265D01*
X55733617Y-84132727D01*
X55502274Y-83923382D01*
X54433997Y-82915391D01*
X53481617Y-81940102D01*
X52981763Y-81376995D01*
X57437740Y-81376995D01*
X57440402Y-81480043D01*
X57502055Y-81672760D01*
X57524567Y-81705973D01*
X57594769Y-81759437D01*
X57718298Y-81784566D01*
X57929055Y-81785551D01*
X58260941Y-81766583D01*
X58351378Y-81759868D01*
X58699396Y-81725033D01*
X59007587Y-81681559D01*
X59218031Y-81637269D01*
X59331757Y-81608244D01*
X59544686Y-81602660D01*
X59779113Y-81686873D01*
X59804492Y-81698851D01*
X59985542Y-81771262D01*
X60106382Y-81769776D01*
X60235934Y-81695728D01*
X60318335Y-81645900D01*
X60618539Y-81576511D01*
X60950368Y-81658308D01*
X60951538Y-81658840D01*
X61092976Y-81698760D01*
X61236371Y-81664234D01*
X61439605Y-81541437D01*
X61781544Y-81374451D01*
X62097305Y-81357865D01*
X62382727Y-81493866D01*
X62389450Y-81499139D01*
X62559373Y-81610846D01*
X62704761Y-81633030D01*
X62870353Y-81558636D01*
X63100889Y-81380609D01*
X63252500Y-81263300D01*
X63452714Y-81166926D01*
X63629589Y-81188526D01*
X63827761Y-81324665D01*
X63955909Y-81399059D01*
X64059141Y-81350246D01*
X64083091Y-81322066D01*
X64099984Y-81213234D01*
X64013540Y-81044327D01*
X63904189Y-80855289D01*
X63828974Y-80685553D01*
X63819908Y-80659740D01*
X63773690Y-80597609D01*
X63676531Y-80569013D01*
X63493830Y-80568888D01*
X63190985Y-80592170D01*
X63013984Y-80609191D01*
X62616568Y-80652370D01*
X62170060Y-80705462D01*
X61741718Y-80760648D01*
X61298735Y-80818777D01*
X60622696Y-80902388D01*
X59921925Y-80984063D01*
X59241171Y-81058780D01*
X58625184Y-81121517D01*
X58118712Y-81167252D01*
X57972344Y-81179694D01*
X57702718Y-81209821D01*
X57700646Y-81210053D01*
X57541528Y-81246728D01*
X57464167Y-81299210D01*
X57437740Y-81376995D01*
X52981763Y-81376995D01*
X52622825Y-80972636D01*
X51835312Y-79988114D01*
X51096769Y-78961657D01*
X50934999Y-78723900D01*
X50528910Y-78114328D01*
X50211384Y-77614722D01*
X49977004Y-77215499D01*
X49820348Y-76907074D01*
X49736000Y-76679865D01*
X49718538Y-76524287D01*
X49725041Y-76478359D01*
X49750716Y-76420223D01*
X49802230Y-76453703D01*
X49894797Y-76594415D01*
X50043632Y-76857976D01*
X50182518Y-77100386D01*
X50398886Y-77460927D01*
X50644422Y-77857215D01*
X50888228Y-78238738D01*
X50931067Y-78304388D01*
X51154768Y-78638700D01*
X51321470Y-78864989D01*
X51451048Y-79005336D01*
X51563379Y-79081823D01*
X51678338Y-79116532D01*
X51746956Y-79128217D01*
X52326812Y-79213554D01*
X52897655Y-79269646D01*
X53514129Y-79300652D01*
X54230880Y-79310727D01*
X54430721Y-79310822D01*
X54843984Y-79308288D01*
X55143649Y-79298818D01*
X55360038Y-79278707D01*
X55523473Y-79244250D01*
X55582383Y-79222282D01*
X56329061Y-79222282D01*
X56337176Y-79253498D01*
X56402380Y-79405535D01*
X56517157Y-79641357D01*
X56662586Y-79925083D01*
X56819743Y-80220831D01*
X56969707Y-80492719D01*
X57093554Y-80704866D01*
X57172363Y-80821391D01*
X57237207Y-80874670D01*
X57335873Y-80911765D01*
X57485274Y-80931794D01*
X57702718Y-80934324D01*
X58005512Y-80918923D01*
X58410965Y-80885159D01*
X58936385Y-80832600D01*
X59599080Y-80760815D01*
X60468613Y-80663317D01*
X61358332Y-80559638D01*
X62116518Y-80465856D01*
X62755976Y-80379886D01*
X63289506Y-80299644D01*
X63729912Y-80223046D01*
X64089996Y-80148007D01*
X64382561Y-80072442D01*
X64620408Y-79994269D01*
X64816341Y-79911401D01*
X64929283Y-79848108D01*
X65023443Y-79764180D01*
X65097853Y-79644416D01*
X65155602Y-79471674D01*
X65199777Y-79228816D01*
X65233469Y-78898700D01*
X65259765Y-78464187D01*
X65281755Y-77908138D01*
X65302527Y-77213411D01*
X65303787Y-77167403D01*
X65318060Y-76610456D01*
X65329176Y-76108172D01*
X65336823Y-75680771D01*
X65340689Y-75348471D01*
X65340464Y-75131491D01*
X65335836Y-75050050D01*
X65335021Y-75049459D01*
X65257899Y-75086391D01*
X65079246Y-75210218D01*
X64816064Y-75408169D01*
X64485355Y-75667471D01*
X64104120Y-75975353D01*
X63904659Y-76126667D01*
X63678650Y-76250308D01*
X63541176Y-76250655D01*
X63494786Y-76127075D01*
X63497465Y-76108294D01*
X63585995Y-75970556D01*
X63788213Y-75770202D01*
X64088383Y-75523240D01*
X64611415Y-75114373D01*
X65045732Y-74759377D01*
X65378540Y-74465774D01*
X65623966Y-74220361D01*
X65796135Y-74009935D01*
X65909171Y-73821293D01*
X65997462Y-73608940D01*
X66036960Y-73368657D01*
X65990846Y-73113180D01*
X65856280Y-72786964D01*
X65843303Y-72760956D01*
X65723813Y-72599085D01*
X65602457Y-72533743D01*
X65560482Y-72535645D01*
X65340122Y-72578137D01*
X65059452Y-72666148D01*
X64748143Y-72785952D01*
X64435866Y-72923818D01*
X64152294Y-73066019D01*
X63927097Y-73198826D01*
X63789948Y-73308510D01*
X63770519Y-73381343D01*
X63804029Y-73400516D01*
X63958352Y-73452519D01*
X64182531Y-73508220D01*
X64382799Y-73561305D01*
X64511362Y-73635789D01*
X64546626Y-73741962D01*
X64526862Y-73837439D01*
X64436866Y-73878011D01*
X64234970Y-73874241D01*
X64058584Y-73852955D01*
X63680559Y-73779222D01*
X63278716Y-73679281D01*
X63243384Y-73670494D01*
X62800294Y-73541589D01*
X62404522Y-73407327D01*
X62109301Y-73282526D01*
X61996589Y-73221832D01*
X61685900Y-73029808D01*
X61412990Y-72832079D01*
X61382490Y-72807544D01*
X61145229Y-72624900D01*
X60846360Y-72404086D01*
X60543098Y-72187498D01*
X60532501Y-72180058D01*
X60195678Y-71923120D01*
X59840646Y-71621349D01*
X59542550Y-71338505D01*
X59512612Y-71308013D01*
X59205129Y-71030313D01*
X58892177Y-70802288D01*
X58609142Y-70647023D01*
X58391411Y-70587602D01*
X58376001Y-70598783D01*
X58342925Y-70725961D01*
X58321266Y-70976206D01*
X58313497Y-71326074D01*
X58316878Y-71620844D01*
X58332835Y-71881894D01*
X58364432Y-72023567D01*
X58414450Y-72066258D01*
X58441055Y-72069243D01*
X58600427Y-72106347D01*
X58852012Y-72176928D01*
X59154634Y-72269669D01*
X59553424Y-72416402D01*
X60293437Y-72804176D01*
X60943098Y-73306145D01*
X60975559Y-73337245D01*
X61150413Y-73557741D01*
X61234927Y-73797278D01*
X61224590Y-74069759D01*
X61114889Y-74389087D01*
X60901315Y-74769164D01*
X60579354Y-75223894D01*
X60144497Y-75767179D01*
X59814842Y-76156213D01*
X58972145Y-77081623D01*
X58171584Y-77857050D01*
X57413137Y-78482516D01*
X56696779Y-78958044D01*
X56547787Y-79048350D01*
X56389527Y-79158552D01*
X56329061Y-79222282D01*
X55582383Y-79222282D01*
X55664275Y-79191744D01*
X55812764Y-79117485D01*
X55955079Y-79045173D01*
X56152606Y-78957086D01*
X56266986Y-78922700D01*
X56284306Y-78920466D01*
X56430447Y-78855277D01*
X56663857Y-78714141D01*
X56957537Y-78516354D01*
X57284488Y-78281214D01*
X57617709Y-78028021D01*
X57930202Y-77776071D01*
X58194965Y-77544664D01*
X58350560Y-77395843D01*
X58708417Y-77030354D01*
X59118767Y-76587705D01*
X59553934Y-76098685D01*
X59986244Y-75594085D01*
X60388021Y-75104698D01*
X60548337Y-74898074D01*
X60818105Y-74497266D01*
X60969275Y-74165615D01*
X61005560Y-73885678D01*
X60930669Y-73640015D01*
X60748313Y-73411184D01*
X60743920Y-73406981D01*
X60487682Y-73211566D01*
X60127850Y-72998862D01*
X59710566Y-72790275D01*
X59281972Y-72607209D01*
X58888210Y-72471066D01*
X58575422Y-72403251D01*
X58148973Y-72359237D01*
X58050371Y-72688342D01*
X58026470Y-72767204D01*
X57955968Y-72990630D01*
X57905227Y-73138733D01*
X57891068Y-73199476D01*
X57931988Y-73228294D01*
X58063772Y-73202463D01*
X58313497Y-73120791D01*
X58350916Y-73130649D01*
X58288425Y-73222815D01*
X58128170Y-73384651D01*
X57953672Y-73540962D01*
X57769241Y-73677494D01*
X57655099Y-73707988D01*
X57608338Y-73624547D01*
X57626045Y-73419276D01*
X57705311Y-73084278D01*
X57843224Y-72611657D01*
X57978334Y-72101330D01*
X58066749Y-71618603D01*
X58102130Y-71204495D01*
X58079397Y-70895916D01*
X58034414Y-70776622D01*
X57882114Y-70592240D01*
X57617609Y-70392186D01*
X57607361Y-70384435D01*
X57532954Y-70336541D01*
X57303117Y-70203409D01*
X57884970Y-70203409D01*
X57910006Y-70223772D01*
X58049020Y-70263033D01*
X58269211Y-70298036D01*
X58338764Y-70307258D01*
X58695030Y-70393107D01*
X59035426Y-70552751D01*
X59393433Y-70805218D01*
X59802532Y-71169538D01*
X60020686Y-71368563D01*
X60372620Y-71666516D01*
X60769844Y-71984160D01*
X61179948Y-72296916D01*
X61570523Y-72580205D01*
X61909161Y-72809448D01*
X62163454Y-72960067D01*
X62283863Y-73017180D01*
X62561468Y-73133546D01*
X62854039Y-73242375D01*
X63278716Y-73388486D01*
X63639972Y-73068319D01*
X63869616Y-72883472D01*
X64375924Y-72589449D01*
X64983372Y-72375702D01*
X65044531Y-72358913D01*
X65292967Y-72285370D01*
X65482039Y-72221918D01*
X65657891Y-72155059D01*
X65438422Y-71534867D01*
X65424663Y-71495647D01*
X65237900Y-70903040D01*
X65053896Y-70219604D01*
X64886496Y-69504190D01*
X64749544Y-68815649D01*
X64656887Y-68212833D01*
X64651885Y-68169467D01*
X64621767Y-67753048D01*
X64606959Y-67228600D01*
X64606619Y-66637747D01*
X64619906Y-66022109D01*
X64645977Y-65423310D01*
X64683992Y-64882971D01*
X64733108Y-64442715D01*
X64758444Y-64218912D01*
X64740889Y-64055366D01*
X64648998Y-63989222D01*
X64458897Y-64006204D01*
X64146710Y-64092032D01*
X64103158Y-64104750D01*
X63754941Y-64177234D01*
X63320905Y-64218893D01*
X62766963Y-64233213D01*
X61844356Y-64235890D01*
X61653940Y-64002148D01*
X61600125Y-63936597D01*
X61496669Y-63830513D01*
X61426768Y-63830316D01*
X61343528Y-63924234D01*
X61329755Y-63942765D01*
X61221398Y-64104450D01*
X61068953Y-64347020D01*
X60900837Y-64625461D01*
X60855668Y-64701424D01*
X60705917Y-64947624D01*
X60590639Y-65128677D01*
X60531791Y-65209817D01*
X60484599Y-65273997D01*
X60377344Y-65455439D01*
X60232830Y-65718298D01*
X60068128Y-66029697D01*
X59900305Y-66356758D01*
X59746431Y-66666605D01*
X59623575Y-66926360D01*
X59548806Y-67103148D01*
X59495930Y-67257636D01*
X59400814Y-67552461D01*
X59288076Y-67914354D01*
X59172292Y-68297101D01*
X59042275Y-68720457D01*
X58925963Y-69048188D01*
X58810787Y-69290807D01*
X58677307Y-69481933D01*
X58506085Y-69655181D01*
X58277681Y-69844170D01*
X58088923Y-69999316D01*
X57941452Y-70133505D01*
X57884970Y-70203409D01*
X57303117Y-70203409D01*
X57254847Y-70175449D01*
X56947555Y-70017856D01*
X56644088Y-69878323D01*
X56377459Y-69771410D01*
X56180677Y-69711679D01*
X56086752Y-69713690D01*
X56085171Y-69715822D01*
X56047960Y-69822605D01*
X55995508Y-70036334D01*
X55938640Y-70313191D01*
X55908773Y-70459773D01*
X55810291Y-70842969D01*
X55696710Y-71176582D01*
X55580988Y-71425805D01*
X55476080Y-71555832D01*
X55424511Y-71572325D01*
X55396989Y-71499387D01*
X55436515Y-71299359D01*
X55543827Y-70965810D01*
X55680380Y-70515124D01*
X55794609Y-69953775D01*
X55844400Y-69424582D01*
X55826849Y-68962693D01*
X55739052Y-68603250D01*
X55641912Y-68427972D01*
X55488973Y-68284229D01*
X55260210Y-68175922D01*
X54928959Y-68090732D01*
X54468552Y-68016341D01*
X54373234Y-68003016D01*
X54073853Y-67957490D01*
X53841242Y-67916688D01*
X53719303Y-67888123D01*
X53712768Y-67885682D01*
X53617276Y-67879704D01*
X53575834Y-67964213D01*
X53586033Y-68158588D01*
X53645464Y-68482209D01*
X53692451Y-68734941D01*
X53736327Y-69049675D01*
X53753898Y-69290369D01*
X53747148Y-69476095D01*
X53713762Y-69536715D01*
X53638651Y-69495093D01*
X53567501Y-69396822D01*
X53521779Y-69209569D01*
X53511076Y-69070238D01*
X53469994Y-68793135D01*
X53407851Y-68456742D01*
X53335104Y-68112950D01*
X53262209Y-67813650D01*
X53199620Y-67610733D01*
X53169279Y-67545444D01*
X53030359Y-67392259D01*
X52806393Y-67306373D01*
X52476743Y-67282625D01*
X52020768Y-67315852D01*
X51951693Y-67324184D01*
X51388468Y-67436410D01*
X50895361Y-67627363D01*
X50766386Y-67695045D01*
X50488619Y-67871742D01*
X50272820Y-68051350D01*
X50145020Y-68210124D01*
X50131245Y-68324326D01*
X50173695Y-68342960D01*
X50335966Y-68354878D01*
X50570113Y-68343117D01*
X50732190Y-68333212D01*
X50895206Y-68349366D01*
X50914024Y-68398173D01*
X50790844Y-68468831D01*
X50527866Y-68550540D01*
X50269430Y-68606134D01*
X49967986Y-68636801D01*
X49773160Y-68608252D01*
X49703988Y-68521166D01*
X49712778Y-68467402D01*
X49781902Y-68404295D01*
X49821548Y-68386054D01*
X49859816Y-68274068D01*
X49866913Y-68229992D01*
X49968704Y-68057536D01*
X50165268Y-67852101D01*
X50423162Y-67641929D01*
X50708947Y-67455260D01*
X50989181Y-67320335D01*
X51270192Y-67231107D01*
X51649134Y-67136878D01*
X52015788Y-67067828D01*
X52454311Y-67026527D01*
X52860956Y-67058405D01*
X53156930Y-67180191D01*
X53353017Y-67394520D01*
X53412237Y-67483686D01*
X53568518Y-67606925D01*
X53817557Y-67671518D01*
X53912789Y-67684046D01*
X54134380Y-67687579D01*
X54218104Y-67635720D01*
X54159377Y-67530359D01*
X54117946Y-67478057D01*
X54067178Y-67336872D01*
X54080789Y-67269195D01*
X54159339Y-67241476D01*
X54282103Y-67320032D01*
X54419397Y-67491806D01*
X54550725Y-67652642D01*
X54736550Y-67766701D01*
X55025890Y-67861011D01*
X55211798Y-67920193D01*
X55507732Y-68048311D01*
X55732186Y-68185251D01*
X55989423Y-68390505D01*
X56411276Y-68162991D01*
X56584236Y-68061497D01*
X56907738Y-67825118D01*
X57172689Y-67570954D01*
X57351725Y-67327301D01*
X57417485Y-67122457D01*
X57402398Y-67009384D01*
X57334622Y-66754706D01*
X57226742Y-66429906D01*
X57094627Y-66076745D01*
X56954147Y-65736986D01*
X56821169Y-65452390D01*
X56711564Y-65264719D01*
X56689371Y-65233668D01*
X56603637Y-65081472D01*
X56593133Y-64995314D01*
X56632972Y-64978267D01*
X56786501Y-64987818D01*
X56982527Y-65041585D01*
X57157124Y-65119422D01*
X57246369Y-65201184D01*
X57253571Y-65251147D01*
X57199234Y-65258348D01*
X57127965Y-65232063D01*
X57076029Y-65293973D01*
X57098287Y-65470149D01*
X57194864Y-65746589D01*
X57267905Y-65909091D01*
X57361328Y-66078914D01*
X57423251Y-66144786D01*
X57439676Y-66141038D01*
X57563879Y-66067566D01*
X57765736Y-65918443D01*
X58016531Y-65717711D01*
X58287543Y-65489411D01*
X58550053Y-65257583D01*
X58775344Y-65046270D01*
X58934696Y-64879513D01*
X59053330Y-64729630D01*
X59174945Y-64501507D01*
X59209509Y-64266211D01*
X59209241Y-64236862D01*
X59194707Y-64104295D01*
X59143375Y-63980370D01*
X59035058Y-63837354D01*
X58849568Y-63647509D01*
X58566718Y-63383102D01*
X58495695Y-63318611D01*
X58102665Y-62981478D01*
X57641326Y-62610998D01*
X57142584Y-62229857D01*
X56637346Y-61860744D01*
X56156518Y-61526345D01*
X55731006Y-61249348D01*
X55391718Y-61052441D01*
X55318496Y-61014626D01*
X54746975Y-60752364D01*
X54176787Y-60556565D01*
X53577525Y-60421865D01*
X52918783Y-60342898D01*
X52170153Y-60314300D01*
X52004723Y-60317423D01*
X51301227Y-60330704D01*
X51045650Y-60341646D01*
X50629541Y-60363183D01*
X50275664Y-60386104D01*
X50015191Y-60408285D01*
X49879295Y-60427601D01*
X49804615Y-60443554D01*
X49747581Y-60424820D01*
X49717581Y-60337414D01*
X49705941Y-60152287D01*
X49704731Y-59959108D01*
X52047904Y-59959108D01*
X52084061Y-59972970D01*
X52238329Y-59984889D01*
X52476432Y-59989413D01*
X52902189Y-60012990D01*
X53404490Y-60079368D01*
X53918255Y-60177838D01*
X54387720Y-60297673D01*
X54757120Y-60428146D01*
X55118191Y-60601747D01*
X55613589Y-60881172D01*
X56171154Y-61238437D01*
X56802851Y-61681669D01*
X57520648Y-62218992D01*
X58336511Y-62858532D01*
X58644873Y-63113254D01*
X59044132Y-63491054D01*
X59305964Y-63828885D01*
X59432194Y-64144041D01*
X59424644Y-64453815D01*
X59285138Y-64775502D01*
X59015499Y-65126396D01*
X58617552Y-65523790D01*
X58433355Y-65687427D01*
X58134045Y-65935711D01*
X57865491Y-66140833D01*
X57744580Y-66227258D01*
X57582735Y-66355034D01*
X57515295Y-66456415D01*
X57521757Y-66576011D01*
X57581617Y-66758429D01*
X57633241Y-67074891D01*
X57560802Y-67434842D01*
X57357157Y-67743883D01*
X57349519Y-67751533D01*
X57148484Y-67933087D01*
X56893163Y-68138767D01*
X56626337Y-68336764D01*
X56390787Y-68495271D01*
X56229295Y-68582477D01*
X56212113Y-68589821D01*
X56121088Y-68700327D01*
X56094138Y-68927770D01*
X56094893Y-68970575D01*
X56114678Y-69176216D01*
X56152574Y-69300362D01*
X56216722Y-69348136D01*
X56401629Y-69442924D01*
X56661614Y-69557681D01*
X56954941Y-69675782D01*
X57239873Y-69780603D01*
X57474674Y-69855519D01*
X57617609Y-69883907D01*
X57755557Y-69836868D01*
X57963966Y-69712405D01*
X58195627Y-69543141D01*
X58405952Y-69361729D01*
X58550352Y-69200824D01*
X58602964Y-69111895D01*
X58686257Y-68910737D01*
X58762066Y-68647196D01*
X58876874Y-68268925D01*
X59005935Y-67859400D01*
X59137476Y-67454735D01*
X59259729Y-67091041D01*
X59360922Y-66804431D01*
X59429287Y-66631018D01*
X59463753Y-66557395D01*
X59676100Y-66141739D01*
X59971326Y-65609963D01*
X60344060Y-64971526D01*
X60788931Y-64235890D01*
X60854952Y-64128419D01*
X61263692Y-63471702D01*
X61605029Y-62941058D01*
X61885670Y-62527362D01*
X62112324Y-62221486D01*
X62291697Y-62014304D01*
X62430499Y-61896687D01*
X62535436Y-61859510D01*
X62578789Y-61871079D01*
X62632120Y-61970778D01*
X62616083Y-62122905D01*
X62531297Y-62266469D01*
X62476040Y-62329212D01*
X62341928Y-62504520D01*
X62177216Y-62736038D01*
X62006422Y-62987370D01*
X61854068Y-63222119D01*
X61744675Y-63403890D01*
X61702761Y-63496286D01*
X61703428Y-63503050D01*
X61759493Y-63612675D01*
X61878195Y-63768885D01*
X61925877Y-63821956D01*
X62026410Y-63903924D01*
X62157187Y-63949086D01*
X62360043Y-63968055D01*
X62676814Y-63971441D01*
X62706209Y-63971256D01*
X63190355Y-63941751D01*
X63709879Y-63869650D01*
X64201150Y-63765873D01*
X64600535Y-63641338D01*
X64700966Y-63592370D01*
X64780521Y-63512188D01*
X64837618Y-63374046D01*
X64885057Y-63145593D01*
X64935638Y-62794479D01*
X64945432Y-62724978D01*
X65000058Y-62396828D01*
X65062623Y-62081396D01*
X65098689Y-61879405D01*
X65093200Y-61673429D01*
X65019247Y-61479872D01*
X64946089Y-61357561D01*
X64812306Y-61211627D01*
X64627594Y-61098353D01*
X64370973Y-61011240D01*
X64021464Y-60943789D01*
X63558086Y-60889499D01*
X62959860Y-60841871D01*
X62515154Y-60807541D01*
X62097232Y-60762930D01*
X61812035Y-60712743D01*
X61646802Y-60653668D01*
X61588771Y-60582395D01*
X61625179Y-60495613D01*
X61661361Y-60466120D01*
X61769971Y-60432702D01*
X61960491Y-60417325D01*
X62257355Y-60418593D01*
X62684995Y-60435113D01*
X63656503Y-60481016D01*
X62903191Y-59280846D01*
X62566374Y-58744470D01*
X62259623Y-58257562D01*
X62018386Y-57878209D01*
X61833536Y-57593490D01*
X61695949Y-57390486D01*
X61596499Y-57256275D01*
X61526061Y-57177936D01*
X61475511Y-57142549D01*
X61435723Y-57137192D01*
X61397572Y-57148946D01*
X61230126Y-57213647D01*
X60933051Y-57324266D01*
X60589898Y-57448838D01*
X60232720Y-57576075D01*
X59893575Y-57694686D01*
X59604518Y-57793385D01*
X59397604Y-57860883D01*
X59304889Y-57885890D01*
X59196458Y-57910914D01*
X58960100Y-57991746D01*
X58622019Y-58120165D01*
X58203457Y-58287655D01*
X57725656Y-58485698D01*
X57209856Y-58705780D01*
X56677301Y-58939382D01*
X56529003Y-59005093D01*
X55992369Y-59238143D01*
X55576456Y-59412469D01*
X55510382Y-59440163D01*
X55100428Y-59604340D01*
X54779894Y-59723862D01*
X54566168Y-59791915D01*
X54476635Y-59801687D01*
X54502723Y-59765142D01*
X54623031Y-59635179D01*
X54824831Y-59427946D01*
X55090611Y-59160716D01*
X55164947Y-59086927D01*
X55545643Y-59086927D01*
X55576456Y-59132516D01*
X55612392Y-59119450D01*
X55769440Y-59053695D01*
X56028243Y-58941977D01*
X56364280Y-58794913D01*
X56753032Y-58623119D01*
X57282452Y-58393877D01*
X58330379Y-57966187D01*
X59492715Y-57520060D01*
X60744915Y-57063451D01*
X60861623Y-57022780D01*
X62071866Y-57022780D01*
X62089089Y-57118455D01*
X62175691Y-57302514D01*
X62314473Y-57537890D01*
X62461207Y-57768582D01*
X62673022Y-58103824D01*
X62911502Y-58482900D01*
X63147659Y-58859817D01*
X63263610Y-59044814D01*
X63560471Y-59510035D01*
X63800157Y-59865858D01*
X63998894Y-60130970D01*
X64172906Y-60324061D01*
X64338415Y-60463816D01*
X64511647Y-60568924D01*
X64708824Y-60658073D01*
X64933769Y-60747392D01*
X65125937Y-60818766D01*
X65217728Y-60846266D01*
X65253395Y-60785680D01*
X65307797Y-60610066D01*
X65366675Y-60359663D01*
X65395240Y-60228287D01*
X65589144Y-59503583D01*
X65861124Y-58683806D01*
X66201096Y-57795626D01*
X66598980Y-56865713D01*
X67044693Y-55920736D01*
X67146108Y-55701943D01*
X67215769Y-55521484D01*
X67228823Y-55438741D01*
X67178519Y-55439448D01*
X66991600Y-55479374D01*
X66681278Y-55560540D01*
X66261827Y-55678737D01*
X65747524Y-55829753D01*
X65152644Y-56009379D01*
X64491463Y-56213405D01*
X63778257Y-56437621D01*
X63027301Y-56677816D01*
X63025411Y-56678426D01*
X62673621Y-56794654D01*
X62377041Y-56897769D01*
X62166827Y-56976587D01*
X62074136Y-57019926D01*
X62071866Y-57022780D01*
X60861623Y-57022780D01*
X62062436Y-56604315D01*
X63420735Y-56150609D01*
X64795269Y-55710289D01*
X66161495Y-55291309D01*
X67494870Y-54901626D01*
X68770850Y-54549196D01*
X69964892Y-54241974D01*
X71052454Y-53987915D01*
X71244975Y-53943805D01*
X71542674Y-53867175D01*
X71762359Y-53799678D01*
X71866657Y-53752136D01*
X71873890Y-53737979D01*
X71804983Y-53704232D01*
X71621145Y-53685574D01*
X71352708Y-53681307D01*
X71030001Y-53690733D01*
X70683356Y-53713155D01*
X70343102Y-53747873D01*
X70039571Y-53794190D01*
X69130645Y-53974314D01*
X67258128Y-54397489D01*
X65442638Y-54876361D01*
X64718423Y-55084023D01*
X63787303Y-55358013D01*
X62958478Y-55612556D01*
X62202964Y-55857780D01*
X61491777Y-56103813D01*
X60795935Y-56360783D01*
X60086452Y-56638817D01*
X59334346Y-56948042D01*
X58510632Y-57298588D01*
X58435266Y-57330958D01*
X58051024Y-57493496D01*
X57661990Y-57654753D01*
X57341920Y-57784090D01*
X57033501Y-57916625D01*
X56422168Y-58264294D01*
X55865669Y-58716553D01*
X55829994Y-58750432D01*
X55632335Y-58956430D01*
X55545643Y-59086927D01*
X55164947Y-59086927D01*
X55402861Y-58850765D01*
X55744069Y-58515367D01*
X56096724Y-58171797D01*
X56443314Y-57837330D01*
X56766330Y-57529240D01*
X57048258Y-57264802D01*
X57105658Y-57211041D01*
X57298742Y-57020397D01*
X57425912Y-56878809D01*
X57462039Y-56813676D01*
X57417383Y-56824430D01*
X57255727Y-56897568D01*
X56998431Y-57026777D01*
X56668212Y-57199620D01*
X56287787Y-57403663D01*
X55879871Y-57626471D01*
X55467181Y-57855608D01*
X55072433Y-58078640D01*
X54718344Y-58283131D01*
X54427630Y-58456646D01*
X54223006Y-58586750D01*
X54012877Y-58723767D01*
X53710574Y-58907780D01*
X53457238Y-59048334D01*
X53443245Y-59055522D01*
X53202057Y-59191618D01*
X52900410Y-59377180D01*
X52600183Y-59574236D01*
X52528855Y-59622945D01*
X52294554Y-59784147D01*
X52123241Y-59903865D01*
X52047904Y-59959108D01*
X49704731Y-59959108D01*
X49703988Y-59840385D01*
X49704012Y-59818878D01*
X49714879Y-59467396D01*
X49743181Y-59281335D01*
X51430360Y-59281335D01*
X51532516Y-59343321D01*
X51777577Y-59394350D01*
X51805806Y-59398019D01*
X52004723Y-59408431D01*
X52204213Y-59382126D01*
X52429975Y-59308982D01*
X52707706Y-59178878D01*
X53063102Y-58981691D01*
X53521861Y-58707300D01*
X55094208Y-57779685D01*
X57144786Y-56662940D01*
X58313497Y-56054909D01*
X58336694Y-55567946D01*
X58342173Y-55425919D01*
X58337744Y-55213103D01*
X58305572Y-55108717D01*
X58239301Y-55080982D01*
X58182261Y-55088632D01*
X58118712Y-55144872D01*
X58095537Y-55197380D01*
X57994303Y-55343345D01*
X57839941Y-55534443D01*
X57790651Y-55591125D01*
X57616915Y-55761564D01*
X57460180Y-55840732D01*
X57264833Y-55860124D01*
X57087711Y-55874284D01*
X56923785Y-55952437D01*
X56760497Y-56132823D01*
X56614285Y-56299598D01*
X56457108Y-56385351D01*
X56232659Y-56405522D01*
X56068350Y-56414936D01*
X55916395Y-56464962D01*
X55760801Y-56582698D01*
X55554667Y-56795093D01*
X55408164Y-56948990D01*
X55235388Y-57097806D01*
X55083671Y-57167421D01*
X54908512Y-57184663D01*
X54743857Y-57197765D01*
X54577881Y-57275603D01*
X54413002Y-57456717D01*
X54219675Y-57651227D01*
X53914968Y-57807002D01*
X53883423Y-57816135D01*
X53654828Y-57914605D01*
X53488257Y-58035714D01*
X53466408Y-58057091D01*
X53281467Y-58166412D01*
X53046340Y-58237848D01*
X53036748Y-58239518D01*
X52799415Y-58318147D01*
X52660967Y-58438309D01*
X52591215Y-58525137D01*
X52458227Y-58587117D01*
X52414136Y-58597553D01*
X52263716Y-58690650D01*
X52090877Y-58848864D01*
X52026839Y-58912394D01*
X51818639Y-59073087D01*
X51632362Y-59162005D01*
X51475552Y-59215499D01*
X51430360Y-59281335D01*
X49743181Y-59281335D01*
X49746744Y-59257910D01*
X49801381Y-59178372D01*
X49836427Y-59170806D01*
X50008703Y-59142295D01*
X50276375Y-59103022D01*
X50598365Y-59059134D01*
X51016084Y-58991767D01*
X51453321Y-58876547D01*
X51770922Y-58725547D01*
X51988631Y-58531272D01*
X52120876Y-58410289D01*
X52263493Y-58353375D01*
X52377217Y-58318870D01*
X52526027Y-58201923D01*
X52543534Y-58183542D01*
X52721880Y-58070853D01*
X52952392Y-57995893D01*
X52969991Y-57992415D01*
X53236563Y-57898811D01*
X53469322Y-57757774D01*
X53494220Y-57737668D01*
X53675337Y-57621608D01*
X53818230Y-57574234D01*
X53888388Y-57550843D01*
X54049215Y-57437785D01*
X54231779Y-57262577D01*
X54420270Y-57077920D01*
X54593956Y-56977615D01*
X54789295Y-56950921D01*
X54965558Y-56930248D01*
X55139227Y-56838603D01*
X55338507Y-56644782D01*
X55493006Y-56482088D01*
X55721531Y-56293024D01*
X55941490Y-56197923D01*
X56198339Y-56171780D01*
X56351380Y-56159386D01*
X56500269Y-56082262D01*
X56638344Y-55899081D01*
X56643716Y-55890479D01*
X56810033Y-55695242D01*
X56975833Y-55617394D01*
X57085809Y-55609051D01*
X57222700Y-55590304D01*
X57262467Y-55582327D01*
X57420332Y-55560335D01*
X57507100Y-55511809D01*
X57659520Y-55365997D01*
X57830892Y-55158897D01*
X57862044Y-55117267D01*
X58019190Y-54920787D01*
X58145848Y-54816973D01*
X58293822Y-54776320D01*
X58514916Y-54769326D01*
X58669803Y-54766406D01*
X58902438Y-54736124D01*
X59097215Y-54654052D01*
X59299557Y-54497181D01*
X59554888Y-54242500D01*
X59618436Y-54175598D01*
X59782149Y-53988381D01*
X59868268Y-53832507D01*
X59901756Y-53645997D01*
X59907578Y-53366872D01*
X59904042Y-53177826D01*
X59805154Y-52381293D01*
X59576417Y-51636721D01*
X59225830Y-50964909D01*
X58761392Y-50386657D01*
X58318375Y-49938651D01*
X58607065Y-49938651D01*
X58609834Y-49938658D01*
G37*
%TD*%
%LPC*%
D12*
%TO.C,SW2*%
X53000000Y-89250000D03*
X59500000Y-89250000D03*
X53000000Y-93750000D03*
X59500000Y-93750000D03*
%TD*%
D13*
%TO.C,D2*%
X54750000Y-76750000D03*
D14*
X54750000Y-84370000D03*
%TD*%
D12*
%TO.C,SW1*%
X89500000Y-93500000D03*
X89500000Y-100000000D03*
X85000000Y-93500000D03*
X85000000Y-100000000D03*
%TD*%
D15*
%TO.C,H4*%
X94000000Y-114000000D03*
%TD*%
%TO.C,H3*%
X56000000Y-56000000D03*
%TD*%
D16*
%TO.C,BT1*%
X70500000Y-67000000D03*
D17*
X90990000Y-67000000D03*
%TD*%
D18*
%TO.C,J1*%
X72790000Y-113345000D03*
X78570000Y-113345000D03*
D19*
X71360000Y-112845000D03*
D20*
X71360000Y-117025000D03*
D19*
X80000000Y-112845000D03*
D20*
X80000000Y-117025000D03*
%TD*%
%LPD*%
M02*
